<?xml version="1.0" encoding="UTF-8" standalone="no"?>
<svg
   version="1.1"
   width="1095.7053"
   height="784.76208"
   id="svg155"
   sodipodi:docname="ChatGPT Image Jun 18, 2026, 01_55_43 PM.svg"
   viewBox="0 0 1095.7053 784.76207"
   inkscape:version="1.4.3 (0d15f75, 2025-12-25)"
   xmlns:inkscape="http://www.inkscape.org/namespaces/inkscape"
   xmlns:sodipodi="http://sodipodi.sourceforge.net/DTD/sodipodi-0.dtd"
   xmlns="http://www.w3.org/2000/svg"
   xmlns:svg="http://www.w3.org/2000/svg">
  <defs
     id="defs155" />
  <sodipodi:namedview
     id="namedview155"
     pagecolor="#505050"
     bordercolor="#eeeeee"
     borderopacity="1"
     inkscape:showpageshadow="0"
     inkscape:pageopacity="0"
     inkscape:pagecheckerboard="0"
     inkscape:deskcolor="#505050"
     inkscape:zoom="0.77364474"
     inkscape:cx="544.82371"
     inkscape:cy="421.38204"
     inkscape:window-width="2880"
     inkscape:window-height="1676"
     inkscape:window-x="-12"
     inkscape:window-y="-12"
     inkscape:window-maximized="1"
     inkscape:current-layer="svg155" />
  <path
     d="m 134.54341,62.414963 c 1.88011,-0.0103 3.7602,-0.0223 5.64029,-0.0358 5.08249,-0.0309 10.1647,-0.0363 15.24728,-0.0351 4.24969,-8.3e-4 8.49931,-0.0131 12.74898,-0.0249 10.02549,-0.0273 20.05082,-0.0327 30.07634,-0.0252 10.33292,0.007 20.66517,-0.0262 30.99794,-0.0791 8.88522,-0.0438 17.77021,-0.0605 26.65554,-0.056 5.30106,0.002 10.60157,-0.006 15.90252,-0.0411 4.98264,-0.032 9.96415,-0.0301 14.9468,-0.003 1.8253,0.004 3.65068,-0.003 5.47587,-0.0233 15.49996,-0.16118 15.49996,-0.16118 20.64751,4.27396 1.04532,1.17357 2.05949,2.3763 3.02763,3.61432 0.92949,0.88679 1.85899,1.77358 2.81665,2.687251 1.25285,1.25116 1.25285,1.25116 2.53101,2.52759 0.46039,0.45943 0.92078,0.91887 1.39512,1.39223 0.95977,0.95909 1.91831,1.91942 2.87563,2.88096 1.44184,1.44721 2.88896,2.88899 4.33667,4.33032 4.66007,4.65708 9.1767,9.37998 13.4646,14.38306 2.55446,2.907256 5.31358,5.595276 8.08032,8.298586 4.07873,4.0279 7.98575,8.10259 11.69531,12.47656 2.33106,2.61361 4.81282,5.06501 7.30469,7.52344 3.89398,3.85112 7.61291,7.7697 11.16016,11.9414 1.06048,1.23363 2.18952,2.40828 3.33984,3.5586 0.17518,2.72485 0.23149,5.34659 0.19531,8.07031 -0.004,1.19434 -0.004,1.19434 -0.009,2.41281 -0.0112,2.54744 -0.0363,5.09454 -0.0617,7.64188 -0.01,1.72525 -0.0192,3.45051 -0.0273,5.17578 -0.0221,4.2332 -0.0566,8.46615 -0.0977,12.69922 -2.39706,0.10854 -4.78916,0.18753 -7.1875,0.25 -0.67354,0.0335 -1.34707,0.067 -2.04102,0.10156 -3.6619,0.0715 -5.59299,-0.23622 -8.69726,-2.24219 -3.3928,-3.45031 -3.31077,-5.98485 -3.63672,-10.73437 -0.12568,-1.78278 -0.12568,-1.78278 -0.25391,-3.60157 -0.0606,-0.91523 -0.12117,-1.83047 -0.18359,-2.77343 -0.69634,-0.004 -1.39267,-0.007 -2.11011,-0.0111 -6.59061,-0.038 -13.18076,-0.095 -19.77102,-0.17286 -3.38746,-0.0394 -6.77467,-0.0716 -10.16233,-0.0871 -3.9026,-0.0215 -7.80423,-0.0682 -11.70654,-0.11963 -1.20552,-10e-4 -2.41103,-0.002 -3.65308,-0.004 -8.18729,-0.14154 -13.65388,-1.22771 -20.0227,-6.68377 -0.62262,-0.71672 -1.24524,-1.43344 -1.88672,-2.17188 -0.63551,-0.70641 -1.27102,-1.41281 -1.92578,-2.14062 -4.92262,-7.29115 -5.17779,-14.0061 -5.05469,-22.54688 0.004,-1.12068 0.008,-2.24136 0.0129,-3.396 0.0167,-3.55575 0.0543,-7.11092 0.0926,-10.6665 0.0151,-2.42056 0.0287,-4.84114 0.041,-7.26172 0.033,-5.912946 0.0831,-11.825566 0.14649,-17.738276 -21.40979,0.0605 -42.81946,0.13802 -64.22911,0.23572 -9.94087,0.045 -19.88171,0.0844 -29.82265,0.11072 -8.66449,0.023 -17.32887,0.0564 -25.99327,0.10226 -4.58777,0.0239 -9.17543,0.0427 -13.76326,0.0489 -4.31908,0.006 -8.63786,0.026 -12.95683,0.0567 -1.58421,0.009 -3.16847,0.0125 -4.7527,0.0107 -2.16587,-0.002 -4.33087,0.0151 -6.49662,0.0363 -1.21123,0.005 -2.42247,0.009 -3.67041,0.014 -4.86617,0.56478 -7.99822,2.06586 -11.4597,5.53253 -2.27734,3.50077 -2.41283,6.23597 -2.35602,10.275496 -0.008,1.11269 -0.008,1.11269 -0.0167,2.24785 -0.0136,2.49367 10e-4,4.98634 0.0161,7.47999 -0.004,1.80258 -0.01,3.60516 -0.0168,5.40773 -0.0148,4.95972 -0.005,9.91912 0.01,14.87882 0.0111,5.34638 -8.3e-4,10.69271 -0.01,16.03909 -0.0139,10.47633 -0.006,20.95254 0.009,31.42887 0.0168,12.19432 0.0136,24.3886 0.01,36.58293 -0.006,21.75522 0.008,43.51039 0.0329,65.26561 0.0239,21.12046 0.031,42.24085 0.0205,63.36132 -0.0114,22.98533 -0.0133,45.97062 0.001,68.95594 0.001,2.45016 0.003,4.90032 0.005,7.35048 7.6e-4,1.20559 0.001,2.41119 0.002,3.65332 0.005,8.50421 0.003,17.0084 -0.001,25.51261 -0.005,10.36168 0.001,20.72328 0.0209,31.08493 0.01,5.28879 0.015,10.57746 0.007,15.86625 -0.007,4.83905 -2.9e-4,9.67788 0.0176,14.51691 0.004,1.75297 0.003,3.50596 -0.004,5.25892 -0.008,2.37896 0.002,4.75715 0.0171,7.13605 -0.007,0.68391 -0.0135,1.36782 -0.0204,2.07245 0.0692,5.69245 1.7227,9.59999 5.49558,13.8195 4.1504,2.36748 7.68414,2.2151 12.38756,2.17183 1.43951,0.0104 1.43951,0.0104 2.9081,0.0211 3.21829,0.0183 6.43585,0.008 9.65417,-0.002 2.30625,0.007 4.61249,0.0158 6.91873,0.0261 6.26651,0.0225 12.53277,0.0196 18.79931,0.0107 5.22883,-0.005 10.45762,0.002 15.68645,0.009 13.03925,0.018 26.07837,0.0116 39.11761,-0.006 11.32185,-0.0147 22.64344,-7e-5 33.96525,0.0288 11.62805,0.0294 23.25596,0.0399 34.88405,0.0308 6.52718,-0.005 13.05416,-0.003 19.58132,0.0178 6.1372,0.0183 12.27391,0.0124 18.41108,-0.0122 2.25345,-0.005 4.50694,-0.001 6.76036,0.0112 3.07449,0.0159 6.14735,0.001 9.22177,-0.0217 0.89348,0.0118 1.78697,0.0237 2.70753,0.0359 4.24048,-0.0637 7.04275,-0.33486 10.42041,-3.03144 4.36647,-4.63247 4.70664,-9.37612 4.94239,-15.48418 0.78073,-3.11163 1.9569,-4.26325 4.53906,-6.14843 3.34766,-0.4961 3.34766,-0.4961 7.0625,-0.4375 1.84271,0.002 1.84271,0.002 3.72266,0.004 3.48754,0.47037 4.14322,0.75063 6.21484,3.4336 0.32877,2.96779 0.47464,5.6598 0.4375,8.625 -0.006,0.81307 -0.0122,1.62615 -0.0186,2.46386 -0.15818,6.06706 -1.08938,10.74858 -4.41894,15.91114 -0.55688,1.01062 -1.11375,2.02125 -1.6875,3.0625 -6.21886,7.89963 -13.63295,13.79559 -23.82232,15.31069 -2.63246,0.14308 -5.23891,0.17005 -7.87516,0.1482 -0.99646,0.008 -1.99293,0.0153 -3.01959,0.0232 -3.31312,0.0205 -6.62553,0.0127 -9.93869,0.005 -2.38592,0.009 -4.77184,0.0191 -7.15775,0.031 -5.79265,0.0239 -11.58508,0.0291 -17.37778,0.0244 -4.71173,-0.004 -9.42341,-5e-5 -14.13513,0.008 -1.00855,0.002 -1.00855,0.002 -2.03748,0.004 -1.36623,0.002 -2.73245,0.005 -4.09867,0.007 -12.79262,0.0217 -25.58514,0.0174 -38.37776,0.005 -11.68287,-0.0103 -23.3654,0.0122 -35.04821,0.0502 -12.01922,0.0388 -24.03828,0.0553 -36.05756,0.0478 -6.7386,-0.004 -13.47693,10e-4 -20.21548,0.0294 -6.33843,0.0252 -12.67619,0.0212 -19.01461,-0.005 -2.32028,-0.005 -4.6406,6.9e-4 -6.96082,0.0172 -14.76777,0.0977 -25.0546,-0.40035 -36.612988,-10.45656 -6.56584,-7.08564 -9.71678,-16.09665 -9.69672,-25.60065 -0.002,-0.75149 -0.005,-1.50299 -0.007,-2.27725 -0.007,-2.53844 -0.006,-5.07682 -0.006,-7.61527 -0.003,-1.83029 -0.007,-3.66057 -0.0111,-5.49086 -0.01,-5.04568 -0.0137,-10.09136 -0.0164,-15.13705 -0.004,-5.4358 -0.0135,-10.87159 -0.0222,-16.30738 -0.0198,-13.13647 -0.0298,-26.27295 -0.0387,-39.40944 -0.004,-6.18397 -0.01,-12.36794 -0.015,-18.55191 -0.017,-20.55384 -0.0315,-41.10769 -0.0388,-61.66154 -0.002,-5.33591 -0.004,-10.67182 -0.006,-16.00774 -2.4e-4,-0.66291 -4.8e-4,-1.32583 -7.3e-4,-2.00884 -0.008,-21.48639 -0.0313,-42.97273 -0.0638,-64.4591 -0.0343,-22.71762 -0.054,-45.4352 -0.0573,-68.15285 -0.002,-12.38307 -0.0109,-24.76606 -0.0365,-37.1491 -0.0217,-10.5464 -0.0298,-21.09269 -0.02,-31.63911 0.005,-5.38057 0.003,-10.76093 -0.0168,-16.14147 -0.0176,-4.92887 -0.0166,-9.85738 -10e-4,-14.78625 0.002,-1.78004 -0.002,-3.56011 -0.0138,-5.34012 -0.0911,-14.620616 1.98678,-25.616946 12.31804,-36.482576 10.210008,-9.715981 21.480708,-9.687891 34.820798,-9.658941 z"
     fill="#033372"
     id="path2" />
  <path
     d="m 744.80171,62.349053 c 1.37104,-0.005 2.74208,-0.0124 4.1131,-0.0217 3.69416,-0.0184 7.38759,-0.006 11.08172,0.0141 3.87825,0.0165 7.75645,0.008 11.63471,0.002 6.50616,-0.005 13.01203,0.0113 19.51813,0.0393 7.51311,0.0321 15.0257,0.032 22.53885,0.0148 7.24557,-0.0159 14.49096,-0.009 21.73653,0.008 3.07645,0.007 6.15275,0.006 9.2292,-0.002 3.62165,-0.008 7.2427,0.005 10.86424,0.0319 1.95728,0.0101 3.91462,7.1e-4 5.8719,-0.009 8.48044,0.0921 12.04654,1.04728 18.02783,7.08447 1.29551,1.46953 1.29551,1.46953 2.61719,2.968751 6.31905,7.05037 13.01394,13.70003 19.75635,20.34375 4.35655,4.31286 8.53385,8.688456 12.52565,13.340576 2.4027,2.73852 4.9859,5.27371 7.593,7.81567 3.8229,3.77649 7.489,7.59989 10.9766,11.69141 2.8522,3.25418 5.8147,6.40135 8.7734,9.55859 1.2266,1.31116 2.4532,2.62236 3.6797,3.9336 0.6017,0.64308 1.2033,1.28616 1.8232,1.94873 0.8648,0.9245 0.8648,0.9245 1.7471,1.86767 0.5224,0.55833 1.0448,1.11665 1.583,1.6919 1.4345,1.53669 2.864,3.07791 4.292,4.6206 0.8018,0.86239 1.6036,1.72477 2.4297,2.61328 0.4101,0.47372 0.8203,0.94744 1.2428,1.43551 1.098,1.23877 2.2525,2.4278 3.4309,3.59026 6.804,7.31294 7.156,13.64997 7.0106,23.29954 0.01,1.53523 0.016,3.07045 0.029,4.60565 0.025,4.1981 0.001,8.39466 -0.031,12.59266 -0.026,4.53523 -0.01,9.0703 0.01,13.60555 0.02,8.87662 0,17.75264 -0.039,26.62918 -0.042,10.34264 -0.041,20.68515 -0.039,31.02786 0,18.45803 -0.035,36.91578 -0.093,55.37371 -0.056,17.89946 -0.085,35.79868 -0.082,53.69824 2e-4,1.65347 2e-4,1.65347 4e-4,3.34035 2e-4,1.10043 4e-4,2.20087 5e-4,3.33465 0,20.3925 -0.021,40.7849 -0.057,61.17737 -0.012,7.20448 -0.016,14.40894 -0.018,21.61343 0,8.7841 -0.021,17.56802 -0.057,26.35204 -0.018,4.47936 -0.031,8.95849 -0.026,13.43789 0,4.10523 -0.01,8.20997 -0.039,12.3151 -0.01,1.48035 -0.01,2.96076 -9e-4,4.44111 0.05,12.03611 -1.6885,21.78195 -9.5567,31.20022 -6.5747,6.62636 -14.8884,11.30478 -24.2985,11.40513 -0.7835,-0.007 -1.567,-0.0134 -2.3742,-0.0203 -1.2746,0.007 -1.2746,0.007 -2.5749,0.0142 -2.8342,0.0119 -5.6679,0.003 -8.5022,-0.007 -2.0372,0.004 -4.0745,0.009 -6.1118,0.0159 -5.5248,0.0137 -11.0494,0.008 -16.57423,-10e-4 -5.78584,-0.008 -11.57167,-5.5e-4 -17.35751,0.004 -9.71694,0.005 -19.43381,-0.002 -29.15074,-0.016 -11.2273,-0.0163 -22.45444,-0.011 -33.68173,0.005 -9.64521,0.0136 -19.29037,0.0155 -28.93559,0.008 -5.75811,-0.005 -11.51613,-0.005 -17.27424,0.005 -5.41485,0.009 -10.82949,0.003 -16.24432,-0.0147 -1.98493,-0.004 -3.96987,-0.003 -5.95479,0.004 -2.71427,0.008 -5.42788,-0.002 -8.1421,-0.017 -0.78124,0.007 -1.56248,0.0134 -2.3674,0.0203 -10.25804,-0.10901 -17.87678,-4.77746 -24.98308,-11.95591 -6.35979,-7.84244 -7.82682,-18.0967 -8.02344,-27.88282 -0.0402,-1.13562 -0.0402,-1.13562 -0.0813,-2.29419 0.0274,-4.05121 0.46715,-6.54527 3.05395,-9.74096 3.55755,-3.4717 5.55906,-3.86569 10.55078,-3.82032 3.17041,0.45552 4.85831,2.04613 7.03907,4.29297 1.30068,2.60137 1.12555,4.95525 1.18921,7.81641 0.20381,7.74012 0.59595,13.07842 5.81079,19.18359 3.12136,1.56068 6.44185,1.15171 9.86883,1.1539 0.82235,0.004 1.64471,0.009 2.49198,0.0133 2.77133,0.0134 5.54263,0.0196 8.31399,0.0257 1.98068,0.008 3.96137,0.0162 5.94205,0.0248 6.51832,0.0263 13.03666,0.0415 19.55502,0.0558 2.24167,0.005 4.48334,0.0107 6.72501,0.0161 9.32303,0.0216 18.64605,0.0404 27.9691,0.0516 13.37262,0.0162 26.74495,0.0494 40.11747,0.1064 9.39623,0.0387 18.79239,0.0582 28.1887,0.0635 5.61514,0.004 11.22997,0.0157 16.84502,0.0481 5.2827,0.03 10.5649,0.0364 15.8477,0.0246 1.939,-2.3e-4 3.878,0.008 5.817,0.0256 2.6477,0.0226 5.2936,0.0144 7.9414,-10e-4 0.7671,0.0139 1.5342,0.0278 2.3246,0.0421 3.8198,-0.0565 6.4519,-0.56469 9.4507,-2.87557 4.1569,-4.4334 4.8509,-8.07456 4.8615,-14.0577 0.01,-1.27421 0.014,-2.54842 0.021,-3.86124 0,-1.41177 0,-2.82354 -0.01,-4.2353 0,-1.50147 0.01,-3.00294 0.016,-4.5044 0.014,-4.12731 0.016,-8.25455 0.015,-12.38188 0,-4.45066 0.015,-8.90129 0.026,-13.35194 0.023,-9.7312 0.031,-19.46238 0.036,-29.19361 0,-6.07448 0.01,-12.14895 0.017,-18.22343 0.02,-16.81463 0.036,-33.62926 0.039,-50.4439 2e-4,-1.07603 4e-4,-2.15205 6e-4,-3.26068 3e-4,-2.1814 7e-4,-4.3628 10e-4,-6.5442 10e-5,-1.08286 3e-4,-2.16572 5e-4,-3.2814 2e-4,-1.08418 4e-4,-2.16837 6e-4,-3.2854 0,-17.57817 0.031,-35.15622 0.068,-52.73435 0.038,-18.04197 0.057,-36.08388 0.058,-54.12589 5e-4,-10.13216 0.01,-20.26418 0.038,-30.39631 0.024,-8.62513 0.032,-17.25007 0.017,-25.87523 -0.01,-4.40183 -0.01,-8.80326 0.016,-13.20504 0.02,-4.02873 0.018,-8.05675 0,-12.08546 0,-1.45823 0,-2.91651 0.016,-4.37468 0.3867,-8.62665 0.3867,-8.62665 -3.0492,-16.19663 -3.4959,-2.91366 -5.0666,-3.28059 -9.5202,-3.29767 -1.543,-0.0106 -1.543,-0.0106 -3.1172,-0.0213 -1.1176,-0.004 -2.2352,-0.008 -3.3867,-0.0126 -2.3633,-0.0232 -4.7266,-0.0473 -7.0899,-0.0723 -3.728,-0.035 -7.4558,-0.0644 -11.184,-0.0779 -3.5966,-0.0156 -7.1923,-0.0558 -10.78861,-0.0999 -1.65214,0.003 -1.65214,0.003 -3.33765,0.006 -11.29384,-0.17672 -18.84731,-3.48583 -26.96313,-11.28313 -8.30915,-8.67811 -9.48024,-16.9604 -9.61328,-28.57812 -0.029,-1.58114 -0.029,-1.58114 -0.0587,-3.19422 -0.0594,-3.34143 -0.10603,-6.6829 -0.15225,-10.02453 -0.0382,-2.27606 -0.0773,-4.5521 -0.11719,-6.82813 -0.0956,-5.557166 -0.1808,-11.114416 -0.25781,-16.671866 -15.65613,-0.14115 -31.3114,-0.24688 -46.96732,-0.31172 -7.26972,-0.0309 -14.53904,-0.073 -21.80851,-0.14176 -6.33775,-0.0599 -12.67522,-0.0985 -19.01324,-0.1119 -3.35463,-0.008 -6.70843,-0.0261 -10.06279,-0.0699 -3.7494,-0.0436 -7.49712,-0.0495 -11.24672,-0.0468 -1.10627,-0.0216 -2.21255,-0.0431 -3.35234,-0.0654 -6.22187,0.0499 -9.81243,0.76409 -14.33929,5.165 -2.82413,3.68982 -2.35547,7.86919 -2.35232,12.278296 -0.004,0.78245 -0.007,1.56489 -0.0105,2.37105 -0.007,1.69913 -0.0127,3.39827 -0.0163,5.09741 -0.007,2.69008 -0.0228,5.37999 -0.0413,8.07002 -0.0525,7.64845 -0.10045,15.29679 -0.11592,22.94541 -0.0101,4.67855 -0.0394,9.35665 -0.0813,14.03502 -0.0123,1.78213 -0.0174,3.56432 -0.0152,5.34649 0.002,2.49458 -0.0198,4.98785 -0.0475,7.48226 0.007,0.73472 0.0132,1.46944 0.02,2.22642 -0.0883,4.84294 -1.10622,7.32912 -4.55003,10.72914 -3.4574,1.7287 -7.21976,1.48967 -11,1 -2.8703,-1.79393 -4.49132,-2.98263 -6,-6 -0.12969,-2.71258 -0.1994,-5.40066 -0.22461,-8.11474 -0.0114,-0.83933 -0.0228,-1.67866 -0.0345,-2.54343 -0.11095,-8.80993 -0.15815,-17.6207 -0.20084,-26.43118 -0.0222,-4.17295 -0.0639,-8.345 -0.12304,-12.51758 -0.0714,-5.04692 -0.10784,-10.093 -0.12008,-15.1404 -0.0104,-1.91604 -0.0326,-3.83205 -0.0676,-5.74779 -0.20422,-11.731976 0.18849,-19.998606 7.76927,-29.504426 0.54604,-0.68911 1.09208,-1.37823 1.65466,-2.08822 8.11181,-9.048511 17.56155,-10.650901 29.23694,-10.542881 z"
     fill="#0496a3"
     id="path3" />
  <path
     d="m 438.91011,260.98015 c 5.25108,1.81768 7.86391,4.57257 11,9 0,0.99 0,1.98 0,3 0.57291,0.0292 1.14581,0.0583 1.73608,0.0884 25.60069,1.40939 51.25982,4.95276 76.38892,10.03662 34.22401,6.77682 69.17698,8.60503 103.78516,3.53125 4.74544,-0.68805 9.29856,-0.77397 14.08984,-0.65627 0.0619,-1.03125 0.12375,-2.0625 0.1875,-3.125 1.01843,-4.85714 2.33915,-6.40165 5.8125,-9.875 4.6886,-2.89678 9.66734,-2.85205 15,-2 3.14987,1.53994 5.71247,3.33325 8,6 0.37145,1.32322 0.71004,2.65657 1,4 1.82338,-0.0174 1.82338,-0.0174 3.68359,-0.0352 1.58464,-0.009 3.16927,-0.0185 4.75391,-0.0273 0.80244,-0.008 1.60488,-0.0168 2.43164,-0.0254 2.04381,-0.009 4.0877,0.0356 6.13086,0.0879 1,1 1,1 1.0625,4.0625 -0.0206,0.96938 -0.0412,1.93875 -0.0625,2.9375 -3.06533,1.53267 -6.26754,1.10276 -9.625,1.0625 -0.70641,-0.005 -1.41281,-0.009 -2.14063,-0.0137 -1.74482,-0.0118 -3.48961,-0.0297 -5.23437,-0.0488 -0.15855,0.87785 -0.15855,0.87785 -0.32031,1.77344 -0.77514,2.53923 -1.80273,3.87297 -3.55469,5.85156 -0.76957,0.88559 -0.76957,0.88559 -1.55469,1.78906 -3.20732,3.23924 -5.45985,3.89976 -9.88281,3.96094 -5.00644,-0.0861 -7.8686,-0.94778 -11.6875,-4.375 -0.66,-0.99 -1.32,-1.98 -2,-3 -7.03038,-1.23131 -14.67713,0.38181 -21.64063,1.46484 -12.27072,1.66593 -24.74335,1.80896 -37.10937,1.84766 -1.22173,0.004 -1.22173,0.004 -2.46814,0.008 -17.79792,0.006 -35.18308,-1.81126 -52.78186,-4.3205 -1.22235,-0.1708 -2.44471,-0.3416 -3.7041,-0.51758 -12.02169,-1.69977 -23.94556,-3.74521 -35.85181,-6.11645 -7.24999,-1.41096 -14.50599,-2.26646 -21.85425,-2.97144 -3.58984,-0.39453 -3.58984,-0.39453 -5.57104,-0.89941 -3.3659,-0.8255 -6.81946,-0.87175 -10.2688,-1.05762 -1.11762,-0.0648 -1.11762,-0.0648 -2.25781,-0.13086 -1.83054,-0.10561 -3.66134,-0.20658 -5.49219,-0.30664 -0.12762,0.61617 -0.25523,1.23234 -0.38672,1.86719 -1.0038,3.49093 -3.39117,5.40059 -6.44531,7.23047 -5.01382,2.08683 -10.5875,1.44832 -15.60547,-0.28516 -2.83979,-2.00863 -4.11216,-3.67009 -5.5625,-6.8125 0,-0.66 0,-1.32 0,-2 -6.28985,1.12404 -12.56039,2.29465 -18.80859,3.63281 -2.19141,0.36719 -2.19141,0.36719 -6.19141,0.36719 -0.10312,0.88687 -0.20625,1.77375 -0.3125,2.6875 -0.96412,4.64529 -2.26646,7.22802 -6.0625,10.125 -5.5796,1.8278 -10.83842,2.34482 -16.625,1.1875 -3.67576,-2.67936 -5.98141,-5.96282 -8,-10 -0.5436,-4.95482 -0.56437,-8.87126 1.6875,-13.375 4.07737,-4.62837 7.3071,-7.33602 13.5625,-7.9375 5.33326,0.44444 8.56761,2.48211 12.6875,5.9375 1.0625,1.375 1.0625,1.375 1.0625,3.375 4.1119,-0.46859 8.21128,-1.00865 12.3125,-1.5625 1.75087,-0.19819 1.75087,-0.19819 3.53711,-0.40039 5.86642,-0.53584 5.86642,-0.53584 10.50513,-3.65039 0.8905,-2.0987 0.8905,-2.0987 1.64526,-5.38672 4.9795,-5.65103 9.79639,-6.65709 17,-6 z"
     fill="#0a97a4"
     id="path10" />
  <path
     d="m 163.66817,333.13786 c 1.72675,-0.003 3.45349,-0.009 5.18022,-0.0177 4.6821,-0.0148 9.36301,0.014 14.04495,0.0514 4.90103,0.0326 9.80204,0.0279 14.70316,0.028 8.22917,0.006 16.45789,0.0379 24.6869,0.0877 9.51361,0.0575 19.02678,0.0803 28.54054,0.0829 10.13028,0.003 20.26041,0.0287 30.39063,0.0626 2.9186,0.008 5.83719,0.0127 8.7558,0.0163 4.58592,0.007 9.17152,0.0293 13.75731,0.0638 1.683,0.0104 3.36605,0.0157 5.04908,0.0156 2.29728,7.7e-4 4.59368,0.02 6.89081,0.044 1.92823,0.009 1.92823,0.009 3.89541,0.0192 3.61555,0.41987 5.47543,1.19162 8.34713,3.3887 2.47968,3.7195 2.41836,6.69436 2,10.99999 -1.13946,3.51336 -2.85336,5.11429 -6,7 -3.22688,0.38032 -3.22688,0.38032 -7.12901,0.38768 -1.07789,0.008 -1.07789,0.008 -2.17756,0.0163 -2.40832,0.0143 -4.81609,0.007 -7.22443,6e-5 -1.72645,0.006 -3.4529,0.0127 -5.17934,0.0208 -4.69009,0.018 -9.37998,0.0168 -14.07009,0.0111 -3.91414,-0.003 -7.82824,0.003 -11.74237,0.009 -9.23323,0.014 -18.46637,0.0125 -27.69961,10e-4 -9.52835,-0.0115 -19.05641,0.003 -28.58472,0.0294 -8.17846,0.0221 -16.35682,0.0288 -24.53531,0.0229 -4.88563,-0.003 -9.77108,-9.3e-4 -14.65669,0.0163 -4.59409,0.0154 -9.18777,0.0115 -13.78185,-0.007 -1.68625,-0.004 -3.37253,-5.6e-4 -5.05875,0.01 -2.30191,0.0132 -4.60242,0.002 -6.90427,-0.016 -1.28808,-2.1e-4 -2.57616,-4.2e-4 -3.90327,-6.4e-4 -3.92373,-0.58582 -5.54978,-1.75381 -8.35273,-4.50057 -2.294,-3.27714 -2.61717,-6.06551 -2,-10 4.08027,-9.57962 13.99147,-7.9567 22.75806,-7.84227 z"
     fill="#d5ebee"
     id="path14" />
  <path
     d="m 155.84294,399.71945 c 0.70957,-0.004 1.41915,-0.008 2.15022,-0.0116 2.38369,-0.0103 4.76713,-0.006 7.15084,-0.002 1.70659,-0.004 3.41319,-0.01 5.11978,-0.0155 4.64052,-0.0134 9.28097,-0.014 13.92152,-0.0114 3.87182,0.001 7.74363,-0.004 11.61546,-0.009 9.13395,-0.0111 18.26787,-0.0115 27.40183,-0.005 9.4266,0.006 18.85305,-0.006 28.27962,-0.0276 8.08926,-0.0176 16.17846,-0.0236 24.26773,-0.0204 4.83308,0.002 9.66606,-8.4e-4 14.49912,-0.0147 4.54559,-0.0126 9.09095,-0.0107 13.63654,0.002 1.66851,0.002 3.33704,-3.9e-4 5.00553,-0.009 2.27767,-0.0104 4.55455,-0.002 6.83218,0.0103 1.27463,-1.6e-4 2.54926,-3.3e-4 3.86252,-5e-4 3.6098,0.40691 5.45775,1.18235 8.32428,3.37473 2.6821,4.02315 2.68843,7.2722 2,12 -2.11392,3.4989 -3.11736,4.70578 -7,6 -2.30697,0.10296 -4.61685,0.14379 -6.9261,0.1539 -0.70887,0.004 -1.41774,0.009 -2.14809,0.0133 -2.38128,0.0134 -4.76252,0.0196 -7.14383,0.0257 -1.70497,0.008 -3.40994,0.0162 -5.11491,0.0248 -5.60385,0.0262 -11.20771,0.0415 -16.8116,0.0558 -1.92871,0.005 -3.85743,0.0107 -5.78614,0.0161 -8.02173,0.0216 -16.04345,0.0404 -24.0652,0.0516 -11.49928,0.0163 -22.99823,0.0494 -34.49739,0.1064 -8.08416,0.0387 -16.16823,0.0582 -24.25249,0.0635 -4.82931,0.004 -9.65826,0.0157 -14.48748,0.0481 -4.54322,0.03 -9.08586,0.0364 -13.62915,0.0246 -1.66651,-2.2e-4 -3.33303,0.008 -4.99944,0.0256 -2.27774,0.0227 -4.55338,0.0144 -6.83113,-10e-4 -1.27371,0.003 -2.54742,0.007 -3.85972,0.01 -4.56089,-0.81767 -6.18875,-2.37658 -9.44733,-5.61804 -1.2528,-2.68679 -1.35599,-5.066 -1,-8 3.49345,-6.73735 6.53895,-8.24875 13.93283,-8.26067 z"
     fill="#dcebee"
     id="path15" />
  <path
     d="m 439.91011,392.98015 c 4.27167,1.53223 7.83502,3.92474 10,8 0,1.32 0,2.64 0,4 0.59941,-0.0464 1.19883,-0.0928 1.81641,-0.14063 22.68639,-0.90358 46.18401,6.79766 67.5625,13.66797 11.89458,3.80935 23.79302,6.8341 36.05859,9.22266 1.07774,0.21084 2.15547,0.42169 3.26587,0.63892 12.24598,2.30196 24.30457,2.84791 36.73413,2.86108 1.12393,0.002 1.12393,0.002 2.27057,0.004 16.24466,-0.006 31.62424,-1.76397 47.29193,-6.2541 0.0516,-0.56848 0.10312,-1.13695 0.15625,-1.72266 0.92026,-6.26406 3.0483,-9.05743 7.96875,-12.96484 4.14173,-2.89921 7.93526,-2.90494 12.875,-2.3125 4.77345,2.38673 8.15696,5.48458 11,10 1.01632,5.88699 0.44319,11.01331 -3,16 -3.60966,3.41967 -7.0189,5.90045 -12.10547,6.07031 -4.50756,-0.25671 -6.36676,-0.57696 -9.76953,-3.75781 -2.79265,-2.54925 -2.79265,-2.54925 -5.48047,-2.30078 -2.92993,0.52849 -5.76881,1.21747 -8.64453,1.98828 -31.32369,7.91335 -63.54921,6.29167 -94.77393,-1.44971 -2.32037,-0.5736 -4.64562,-1.12338 -6.97216,-1.67138 -8.90151,-2.12906 -17.64639,-4.57665 -26.37891,-7.31631 -19.643,-6.10912 -39.44481,-10.22879 -59.875,-12.5625 -0.2823,0.77988 -0.56461,1.55977 -0.85547,2.36328 -1.76945,4.07638 -4.66777,5.85948 -8.51953,7.88672 -4.96912,1.41975 -8.46485,1.23006 -13.25,-0.75 -4.07046,-2.60031 -6.51016,-6.0824 -8.375,-10.5 -0.72304,-5.24205 0.0948,-8.5954 3,-13 5.01516,-6.24395 10.21035,-7.35173 18,-6 z"
     fill="#0a3874"
     id="path17" />
  <path
     d="m 439.91011,327.98015 c 4.3202,1.49694 7.73564,3.97447 10,8 0.35625,1.32739 0.693,2.66036 1,4 0.65782,0.0647 1.31565,0.12939 1.99341,0.19605 13.41896,1.35951 26.16196,3.28369 39.11694,7.00024 40.29891,11.20852 82.98831,21.11051 124.88965,13.80371 0.99798,-0.16871 0.99798,-0.16871 2.01611,-0.34082 3.41174,-0.58103 6.80888,-1.20363 10.19873,-1.90137 2.43819,-0.48814 4.88983,-0.9151 7.35157,-1.26562 3.11781,-0.53277 5.63407,-1.01573 8.43359,-2.49219 1.30605,-2.48855 1.79611,-4.72834 2.33203,-7.48047 0.95197,-3.59077 2.57324,-5.32812 5.51172,-7.51953 4.87547,-2.26109 10.25935,-2.00831 15.27734,-0.26172 3.90031,2.03823 6.85735,4.38032 8.87891,8.26172 0.80282,4.90068 1.14624,9.68726 -1.10547,14.23047 -3.24255,4.0771 -6.83019,6.39615 -11.89453,7.76953 -3.19093,0.17851 -5.9779,0.0636 -9,-1 -1.34385,-1.31484 -1.34385,-1.31484 -2.71484,-2.65625 -1.88812,-1.65475 -2.78464,-2.32356 -5.31861,-2.42578 -2.37707,0.38959 -4.64443,0.94182 -6.96655,1.58203 -0.8358,0.20343 -1.67159,0.40686 -2.53271,0.61645 -1.69474,0.41275 -3.38674,0.8369 -5.07569,1.27271 -3.32354,0.84887 -6.66265,1.57859 -10.0166,2.29834 -1.02352,0.23074 -2.04703,0.46148 -3.10156,0.69922 -9.99584,1.87273 -19.95698,1.81096 -30.08594,1.80078 -0.82199,3.9e-4 -1.64398,7.9e-4 -2.49088,0.001 -32.35636,-0.0184 -32.35636,-0.0184 -38.69662,-3.1885 -2.06076,-0.31384 -4.12707,-0.59154 -6.19531,-0.85156 -7.67883,-1.05949 -15.14308,-2.70727 -22.67969,-4.52344 -1.32802,-0.31524 -2.65614,-0.63001 -3.98438,-0.94434 -7.91943,-1.87998 -15.82039,-3.82813 -23.70703,-5.84082 -4.91993,-1.20339 -9.87093,-2.2246 -14.83593,-3.22656 -2.59766,-0.61328 -2.59766,-0.61328 -3.59766,-1.61328 -1.77534,-0.29804 -3.56039,-0.53869 -5.34766,-0.75391 -1.07959,-0.13213 -2.15918,-0.26425 -3.27148,-0.40039 -1.13631,-0.1347 -2.27262,-0.26941 -3.44336,-0.4082 -1.14018,-0.13857 -2.28035,-0.27715 -3.45508,-0.41992 -2.82703,-0.34303 -5.65449,-0.68204 -8.48242,-1.01758 -0.26941,0.77859 -0.53883,1.55719 -0.81641,2.35937 -1.61185,3.59609 -3.81394,4.71512 -7.18359,6.64063 -3.61931,1.20644 -6.19231,1.32269 -10,1 -4.4633,-2.32092 -8.79917,-5.35791 -11,-10 -1.03754,-5.1877 -1.26843,-9.88048 1.50781,-14.51953 5.63291,-6.5403 9.9682,-7.33875 18.49219,-6.48047 z"
     fill="#f06e17"
     id="path18" />
  <path
     d="m 776.21049,197.71945 c 1.09915,-0.007 2.1983,-0.0142 3.33076,-0.0215 1.80946,0.004 1.80946,0.004 3.65548,0.008 1.27012,-0.005 2.54025,-0.0102 3.84886,-0.0155 3.48561,-0.0134 6.97112,-0.014 10.45675,-0.0114 2.91001,0.001 5.81999,-0.004 8.73,-0.009 6.86624,-0.0111 13.73242,-0.0115 20.59866,-0.005 7.08176,0.006 14.16333,-0.006 21.24505,-0.0276 6.08078,-0.0176 12.1615,-0.0236 18.24231,-0.0204 3.63143,0.002 7.26272,-8.2e-4 10.89413,-0.0147 4.05086,-0.0149 8.10133,-0.006 12.15221,0.006 1.20225,-0.008 2.40451,-0.0153 3.6432,-0.0232 1.65719,0.0105 1.65719,0.0105 3.34785,0.0213 0.95754,-1.6e-4 1.91507,-3.3e-4 2.90162,-5e-4 3.15954,0.44633 5.03944,1.58322 7.65274,3.37473 0.5775,0.39187 1.155,0.78375 1.75,1.1875 2.0801,3.01621 2.4797,6.23879 2.25,9.8125 -2.0386,4.07722 -3.7652,6.35509 -8,8 -2.53693,0.26006 -2.53693,0.26006 -5.45188,0.27415 -1.10749,0.01 -2.21499,0.0199 -3.35605,0.0302 -1.21049,6.6e-4 -2.42098,0.001 -3.66815,0.002 -1.27842,0.008 -2.55683,0.0167 -3.87399,0.0252 -3.5042,0.0219 -7.0083,0.0307 -10.51256,0.0358 -2.19044,0.004 -4.38085,0.01 -6.57128,0.017 -7.64492,0.0245 -15.28978,0.0376 -22.93475,0.0411 -7.12106,0.004 -14.2417,0.0335 -21.36263,0.0754 -6.11819,0.0347 -12.23623,0.0501 -18.35452,0.0508 -3.65225,7.9e-4 -7.30406,0.01 -10.95621,0.038 -4.07469,0.0311 -8.14834,0.0221 -12.22312,0.01 -1.80966,0.0222 -1.80966,0.0222 -3.65588,0.045 -9.11457,-0.0799 -9.11457,-0.0799 -12.81583,-3.0414 -2.88171,-3.31434 -3.29285,-5.1343 -3.50534,-9.38417 0.38579,-3.53437 1.93868,-5.59531 4.24219,-8.21875 3.34073,-2.22715 4.40272,-2.25233 8.30038,-2.26069 z"
     fill="#0498a4"
     id="path19" />
  <path
     d="m 158.52144,197.23552 c 1.90343,-0.011 1.90343,-0.011 3.84532,-0.0221 3.46935,-0.0188 6.93757,-2e-5 10.40684,0.0267 3.63669,0.0227 7.27333,0.0144 10.91007,0.0105 6.10643,-0.002 12.21242,0.0204 18.31873,0.0572 7.0518,0.0423 14.10295,0.0494 21.15486,0.0369 6.79388,-0.0114 13.58753,-7e-5 20.38138,0.0224 2.88665,0.009 5.77316,0.0111 8.65982,0.007 4.03378,-0.004 8.06667,0.0245 12.10032,0.057 1.19395,-0.005 2.3879,-0.01 3.61803,-0.015 6.26514,0.0806 10.29437,0.23464 14.9933,4.56433 2.48386,3.72579 2.38042,5.58711 2,10 -1.82626,4.22923 -3.93956,5.94376 -8,8 -2.64715,0.38311 -2.64715,0.38311 -5.54089,0.39441 -1.65285,0.017 -1.65285,0.017 -3.3391,0.0344 -1.19911,-0.003 -2.39823,-0.006 -3.63368,-0.009 -1.27042,0.009 -2.54083,0.0169 -3.84975,0.0257 -3.47726,0.0222 -6.95428,0.0251 -10.4316,0.0233 -2.90515,-1.2e-4 -5.81025,0.008 -8.71539,0.0168 -6.85382,0.0192 -13.70752,0.0221 -20.56137,0.0154 -7.06716,-0.007 -14.1338,0.0162 -21.20086,0.0533 -6.07235,0.0307 -12.14453,0.0421 -18.21695,0.0382 -3.6248,-0.002 -7.24919,0.003 -10.87392,0.0279 -4.04129,0.0264 -8.08148,0.0125 -12.12282,-0.005 -1.79867,0.0199 -1.79867,0.0199 -3.63368,0.0402 -8.09516,-0.0824 -8.09516,-0.0824 -12.09959,-3.00638 -2.87531,-4.27817 -3.73271,-8.57611 -2.7804,-13.64905 5.02439,-7.21452 10.27512,-6.85135 18.61133,-6.74461 z"
     fill="#023371"
     id="path20" />
  <path
     d="m 777.93202,333.83971 c 1.08799,-0.006 2.17598,-0.0114 3.29694,-0.0173 1.20414,-10e-4 2.40829,-0.002 3.64892,-0.003 1.26008,-0.005 2.52016,-0.01 3.81842,-0.0151 3.46711,-0.0131 6.9342,-0.0196 10.40133,-0.024 2.16544,-0.003 4.33088,-0.007 6.49632,-0.0115 6.77299,-0.0137 13.54596,-0.0234 20.31896,-0.0272 7.82194,-0.004 15.64372,-0.022 23.46561,-0.051 6.04251,-0.0216 12.08498,-0.0317 18.12753,-0.033 3.61024,-10e-4 7.22031,-0.007 10.8305,-0.0248 4.02951,-0.0195 8.05866,-0.0152 12.08821,-0.009 1.19605,-0.009 2.39209,-0.0184 3.62439,-0.0279 1.09926,0.006 2.19853,0.0111 3.33111,0.0169 1.42914,-0.002 1.42914,-0.002 2.88714,-0.004 3.19631,0.44985 5.04721,1.47653 7.64271,3.37193 2.6684,4.00255 2.834,7.29313 2,12 -2.1816,2.7557 -3.8718,4.43589 -7,6 -1.69677,0.1036 -3.39757,0.14384 -5.09747,0.1539 -1.61926,0.0129 -1.61926,0.0129 -3.27123,0.0261 -1.18963,0.004 -2.37926,0.008 -3.60493,0.0129 -1.24887,0.008 -2.49773,0.0164 -3.78444,0.0248 -4.14835,0.0249 -8.29666,0.0415 -12.44506,0.0558 -1.42816,0.005 -2.85631,0.0107 -4.28447,0.0161 -5.94144,0.0216 -11.88286,0.0404 -17.82433,0.0516 -8.51359,0.0162 -17.02672,0.0494 -25.54014,0.1064 -5.9865,0.0387 -11.97287,0.0582 -17.95949,0.0635 -3.57518,0.004 -7.14987,0.0156 -10.72492,0.0481 -3.9909,0.0357 -7.98124,0.0317 -11.97231,0.0243 -1.7723,0.0246 -1.7723,0.0246 -3.5804,0.0497 -8.93187,-0.0681 -8.93187,-0.0681 -12.62901,-3.04468 -3.14803,-3.57119 -3.6713,-5.74217 -3.64508,-10.54946 0.60362,-3.3881 2.77887,-4.95893 5.36328,-7.03906 1.67537,-1.67537 3.72152,-1.13325 6.02191,-1.14044 z"
     fill="#d5ebee"
     id="path21" />
  <path
     d="m 778.20377,466.706 c 1.64656,-0.015 1.64656,-0.015 3.32639,-0.0302 1.20473,-6.6e-4 2.40946,-10e-4 3.65071,-0.002 1.90277,-0.0125 1.90277,-0.0125 3.84399,-0.0252 3.48153,-0.022 6.96297,-0.0308 10.44456,-0.0358 2.17586,-0.004 4.35169,-0.01 6.52754,-0.017 7.59305,-0.0245 15.18603,-0.0376 22.77912,-0.0411 7.0739,-0.004 14.14737,-0.0335 21.22113,-0.0754 6.07571,-0.0347 12.15127,-0.0501 18.22707,-0.0508 3.62768,-7.9e-4 7.25491,-0.01 10.88248,-0.038 4.04845,-0.0311 8.09587,-0.0221 12.14442,-0.01 1.79799,-0.0222 1.79799,-0.0222 3.63231,-0.0449 9.05842,0.08 9.05842,0.08 12.77022,3.02553 3.1217,3.62299 3.0587,5.64326 2.7916,10.23988 -0.8089,3.59542 -2.6313,5.23555 -5.5352,7.37891 -2.5257,1.26284 -4.27615,1.13435 -7.1042,1.14717 -1.08095,0.007 -2.1619,0.0143 -3.2756,0.0217 -1.1912,0.003 -2.3824,0.005 -3.6097,0.008 -1.8757,0.01 -1.8757,0.01 -3.7893,0.0199 -3.43607,0.0164 -6.87208,0.028 -10.30818,0.0362 -2.14652,0.005 -4.29304,0.0112 -6.43956,0.0175 -6.71531,0.019 -13.43061,0.0333 -20.14594,0.0416 -7.75294,0.01 -15.5056,0.0361 -23.25843,0.0765 -5.99158,0.0302 -11.98308,0.045 -17.97473,0.0483 -3.57898,0.002 -7.15766,0.0113 -10.73656,0.0365 -3.99355,0.0276 -7.98647,0.0235 -11.98011,0.0165 -1.18513,0.0128 -2.37025,0.0256 -3.59129,0.0388 -8.02254,-0.0511 -8.02254,-0.0511 -11.97797,-2.42098 -2.67515,-3.08844 -3.68521,-4.92964 -4.12093,-9.02531 0.35675,-3.49606 1.21641,-5.26771 3.3125,-8.0625 3.33532,-2.22349 4.40239,-2.25516 8.29366,-2.2741 z"
     fill="#0897a4"
     id="path22" />
  <path
     d="m 153.24831,466.82625 c 0.91122,-0.009 1.82244,-0.0172 2.76128,-0.0261 1.00261,-0.004 2.00522,-0.009 3.03822,-0.0129 1.58069,-0.0123 1.58069,-0.0123 3.19331,-0.0248 3.49904,-0.0249 6.99803,-0.0414 10.49712,-0.0558 1.78984,-0.008 1.78984,-0.008 3.61584,-0.0161 6.31571,-0.0267 12.6314,-0.0461 18.94715,-0.0605 6.5283,-0.0167 13.0561,-0.0614 19.58421,-0.11237 5.01516,-0.0336 10.03019,-0.0452 15.04545,-0.0508 2.40658,-0.007 4.81315,-0.022 7.21962,-0.0459 3.36853,-0.0316 6.73569,-0.0317 10.10433,-0.0243 1.49178,-0.0246 1.49178,-0.0246 3.01369,-0.0497 4.49199,0.0405 7.66148,0.15265 11.25993,3.01343 2.57496,2.83242 3.18078,3.85988 3.06915,7.61978 -0.22543,3.87868 -0.58294,4.86518 -3.0625,8.0625 -3.30976,2.44292 -4.86108,3.06262 -8.88726,3.0914 -0.8944,0.009 -1.78879,0.0172 -2.71028,0.0261 -0.98392,0.004 -1.96783,0.008 -2.98156,0.0129 -1.55143,0.0123 -1.55143,0.0123 -3.1342,0.0248 -3.4341,0.0249 -6.86816,0.0414 -10.30232,0.0558 -1.17116,0.005 -2.34232,0.0106 -3.54897,0.0161 -6.19901,0.0267 -12.39799,0.0461 -18.59703,0.0605 -6.40724,0.0167 -12.81396,0.0614 -19.22101,0.11237 -4.92251,0.0336 -9.84489,0.0452 -14.7675,0.0509 -2.36193,0.007 -4.72384,0.022 -7.08565,0.0459 -3.30627,0.0316 -6.61115,0.0317 -9.91754,0.0243 -0.97581,0.0164 -1.95163,0.0328 -2.95701,0.0497 -4.46053,-0.041 -7.55042,-0.17531 -11.11006,-3.0293 -3.04698,-3.29953 -3.42664,-5.05182 -3.6507,-9.38125 0.38872,-3.51085 1.96402,-5.61457 4.24609,-8.22266 2.33915,-1.16957 3.73109,-1.13561 6.3382,-1.1539 z"
     fill="#073471"
     id="path23" />
  <path
     d="m 157.51387,265.23552 c 0.93748,-0.007 1.87496,-0.0146 2.84085,-0.0221 3.08301,-0.0161 6.1639,0.0109 9.2468,0.0402 2.15038,10e-4 4.30077,0 6.45115,-0.003 4.49989,1.7e-4 8.99906,0.021 13.4988,0.0572 5.76259,0.0454 11.52413,0.0465 17.28685,0.033 4.43791,-0.007 8.87558,0.007 13.31344,0.0263 2.12463,0.008 4.24928,0.01 6.37392,0.007 2.97053,-7.5e-4 5.93973,0.0245 8.91006,0.057 1.31168,-0.007 1.31168,-0.007 2.64986,-0.015 5.41378,0.0942 8.51967,0.9756 12.82451,4.56433 2.58537,3.40798 2.43782,6.84071 2,11 -2.20324,3.54091 -4.18507,5.41356 -8,7 -1.97749,0.25447 -1.97749,0.25447 -4.0919,0.26069 -0.80604,0.007 -1.61207,0.0142 -2.44252,0.0215 -1.31316,-0.004 -1.31316,-0.004 -2.65284,-0.007 -0.92889,0.005 -1.85779,0.0102 -2.81483,0.0155 -3.07098,0.0139 -6.14174,0.0129 -9.21275,0.0106 -2.13465,0.004 -4.2693,0.008 -6.40395,0.013 -4.47467,0.007 -8.94926,0.007 -13.42393,0.002 -5.73457,-0.006 -11.46882,0.0111 -17.20333,0.0343 -4.40864,0.0147 -8.81719,0.0156 -13.22585,0.0125 -2.1143,5.2e-4 -4.22862,0.006 -6.3429,0.0158 -2.9564,0.0123 -5.91216,0.006 -8.86855,-0.006 -1.31011,0.0115 -1.31011,0.0115 -2.6467,0.0232 -5.75874,-0.0499 -8.86704,-1.20377 -13.44339,-4.78219 -1.65712,-2.1796 -1.7596,-3.70451 -1.85156,-6.42578 -0.0541,-0.83145 -0.10828,-1.66289 -0.16406,-2.51953 2.41784,-8.17518 9.88997,-9.54408 17.39282,-9.41261 z"
     fill="#0a96a4"
     id="path24" />
  <path
     d="m 831.73213,265.20378 c 0.76016,-0.0105 1.52033,-0.021 2.30353,-0.0319 2.49936,-0.0263 4.99615,-0.009 7.49554,0.0113 1.74586,-0.004 3.49172,-0.01 5.23757,-0.0174 3.65429,-0.009 7.3077,0.004 10.9619,0.032 4.67219,0.0342 9.34231,0.0145 14.01443,-0.0214 3.6042,-0.0217 7.20791,-0.0148 10.81212,7.6e-4 1.7219,0.004 3.44384,-8.6e-4 5.16569,-0.0149 15.1195,-0.0961 15.1195,-0.0961 19.7387,3.70742 3.4083,4.32963 3.4083,4.32963 3.3235,8.11035 0.018,0.80437 0.036,1.60875 0.055,2.4375 -1.5527,4.27963 -3.9412,6.58481 -7.9297,8.5625 -5.91232,0.91987 -11.78221,0.84549 -17.75391,0.79687 -1.74682,0.004 -3.49364,0.01 -5.24046,0.0174 -3.65251,0.009 -7.30414,-0.004 -10.95656,-0.032 -4.67338,-0.0342 -9.3447,-0.0145 -14.018,0.0214 -3.60416,0.0217 -7.20783,0.0148 -10.812,-7.7e-4 -1.72272,-0.004 -3.44549,8.8e-4 -5.16817,0.0149 -2.41081,0.0153 -4.81831,-0.008 -7.22888,-0.0414 -0.70614,0.0122 -1.41228,0.0243 -2.13981,0.0368 -4.05928,-0.10362 -6.2691,-0.95127 -9.12128,-3.70154 -2.40842,-2.62598 -3.38134,-4.45043 -3.31093,-8.11164 -0.0155,-0.80437 -0.0309,-1.60875 -0.0469,-2.4375 2.19364,-7.0541 7.59357,-9.45971 14.61889,-9.33888 z"
     fill="#0698a5"
     id="path29" />
  <path
     d="m 254.81319,265.78728 c 0.72203,-0.008 1.44405,-0.0163 2.18796,-0.0248 2.40063,-0.0249 4.80121,-0.0414 7.20193,-0.0558 0.81904,-0.005 1.63807,-0.0106 2.48193,-0.0161 4.33813,-0.0268 8.67623,-0.0461 13.01441,-0.0605 4.47813,-0.0166 8.95551,-0.0614 13.43336,-0.11237 3.44446,-0.0337 6.88875,-0.0452 10.33336,-0.0509 1.65021,-0.007 3.30041,-0.0219 4.95046,-0.0459 2.3151,-0.0317 4.62821,-0.0317 6.94346,-0.0243 1.31603,-0.008 2.63206,-0.0162 3.98797,-0.0245 4.66031,0.79545 6.25022,2.29881 9.56208,5.608 1.60307,3.20614 1.48741,6.5214 1,10 -2.1617,3.55137 -4.13471,5.53757 -8,7 -2.54579,0.17986 -4.97874,0.25297 -7.52246,0.22705 -1.12741,4.4e-4 -1.12741,4.4e-4 -2.2776,8.9e-4 -2.47822,-0.001 -4.95614,-0.0169 -7.43431,-0.0326 -1.72064,-0.004 -3.44128,-0.007 -5.16193,-0.009 -4.52427,-0.008 -9.04841,-0.0273 -13.57263,-0.0494 -4.61841,-0.0205 -9.23684,-0.0296 -13.85528,-0.0397 -9.05866,-0.0214 -18.11721,-0.0556 -27.17579,-0.0977 1.17563,-0.89719 1.17563,-0.89719 2.375,-1.8125 2.77075,-2.09835 2.77075,-2.09835 4.625,-5.1875 0.30686,-4.21925 0.41693,-7.43821 -2,-11 -1.54123,-1.70922 -1.54123,-1.70922 -3,-3 1.91404,-1.91401 5.36819,-1.168 7.90308,-1.19285 z"
     fill="#d5ebee"
     id="path30" />
  <path
     d="m 845.84102,399.81902 c 1.24502,-0.01 2.49004,-0.0192 3.77278,-0.0291 1.3657,-0.005 2.73139,-0.009 4.09709,-0.0129 1.39764,-0.006 2.79528,-0.0115 4.19292,-0.0173 2.93301,-0.0105 5.866,-0.0163 8.79903,-0.0198 3.75272,-0.005 7.50509,-0.0295 11.2577,-0.058 2.88854,-0.0187 5.777,-0.0238 8.6656,-0.0254 1.38305,-0.003 2.76611,-0.011 4.14911,-0.0242 1.93852,-0.0171 3.87718,-0.0133 5.81577,-0.009 1.65308,-0.005 1.65308,-0.005 3.33955,-0.011 3.40534,0.42001 5.24404,1.32485 7.97954,3.36749 2.6791,4.01859 2.6961,7.27642 2,12 -1.7939,2.8703 -2.9826,4.49132 -6,6 -2.03581,0.11715 -4.07545,0.16977 -6.1145,0.19287 -1.92759,0.0241 -1.92759,0.0241 -3.89412,0.0487 -1.40988,0.0115 -2.81977,0.0221 -4.22966,0.0319 -0.70904,0.005 -1.41808,0.0107 -2.14861,0.0161 -3.75343,0.0267 -7.50683,0.0461 -11.26032,0.0605 -3.87403,0.0166 -7.74721,0.0614 -11.62091,0.11238 -2.98119,0.0337 -5.96218,0.0452 -8.94354,0.0509 -1.42776,0.007 -2.85551,0.0219 -4.28308,0.0459 -2.00063,0.0317 -4.0017,0.0287 -6.00257,0.0243 -1.13759,0.008 -2.27517,0.0162 -3.44722,0.0245 -4.00343,-0.79634 -5.48283,-2.51907 -8.05547,-5.60771 -1.57456,-3.14911 -1.34799,-5.52008 -1,-9 3.41082,-5.72711 6.48981,-7.12114 12.93091,-7.16113 z"
     fill="#0698a4"
     id="path31" />
  <path
     d="m 160.88277,333.19109 c 1.36949,0.005 2.739,0.008 4.10851,0.008 2.86267,0.008 5.72381,0.0386 8.58607,0.0877 3.66086,0.0623 7.32025,0.0808 10.98159,0.0838 2.82519,0.005 5.65007,0.0255 8.47513,0.0519 2.00349,0.0178 4.00704,0.0279 6.01058,0.0378 1.22154,0.0224 2.44309,0.0447 3.70164,0.0678 1.07223,0.0144 2.14445,0.0289 3.24917,0.0438 3.31561,0.46397 5.21948,1.45399 7.91465,3.40786 1.84374,2.74874 2.36337,5.15262 2.5,8.4375 0.0516,0.74121 0.10313,1.48242 0.15625,2.2461 -0.81183,2.86556 -2.16855,4.39989 -4.48227,6.24253 -4.9311,2.43579 -10.77183,1.7572 -16.14663,1.70278 -1.36951,8.3e-4 -2.73901,0.003 -4.10851,0.007 -2.86233,0.003 -5.72388,-0.0118 -8.58607,-0.0393 -3.66098,-0.0341 -7.32055,-0.0281 -10.98159,-0.009 -2.82517,0.0106 -5.65,0.002 -8.47514,-0.0134 -2.00351,-0.008 -4.00706,-3.4e-4 -6.01057,0.007 -1.83232,-0.0238 -1.83232,-0.0238 -3.70165,-0.048 -1.60833,-0.009 -1.60833,-0.009 -3.24916,-0.0188 -4.23174,-0.74723 -6.78785,-2.90495 -9.22716,-6.38966 -1.17909,-3.64447 -1.52129,-6.38594 0.18261,-9.93979 4.89389,-6.97349 11.19245,-6.13567 19.10255,-5.97428 z"
     fill="#0696a3"
     id="path32" />
  <path
     d="m 265.91695,465.87908 c 1.89272,0.006 1.89272,0.006 3.82367,0.012 1.38463,0.0106 2.76925,0.0221 4.15387,0.0344 0.69676,0.006 1.39352,0.0114 2.1114,0.0173 3.68985,0.0316 7.37954,0.0705 11.06926,0.11453 3.8041,0.0437 7.60779,0.0596 11.41211,0.0692 2.93087,0.0129 5.86121,0.0476 8.79182,0.0881 1.40168,0.0154 2.80348,0.0226 4.20525,0.0211 12.34032,-10e-4 12.34032,-10e-4 16.29199,3.14603 2.23536,2.72206 2.87403,3.70745 2.63379,7.16088 -0.0309,0.74379 -0.0619,1.48758 -0.0937,2.25391 -0.62164,3.34133 -1.61418,5.43036 -4.08883,7.78368 -3.039,1.83581 -5.0753,1.7488 -8.61478,1.70875 -1.27457,-0.007 -2.54914,-0.0134 -3.86233,-0.0203 -1.38688,-0.022 -2.77375,-0.0439 -4.16062,-0.0659 -1.42438,-0.0107 -2.84876,-0.0197 -4.27316,-0.0272 -3.74438,-0.0228 -7.48839,-0.0618 -11.23258,-0.106 -6,-0.0702 -12,-0.1254 -18.0003,-0.16236 -2.09748,-0.0167 -4.19452,-0.0463 -6.29184,-0.0767 -1.26827,-0.01 -2.53653,-0.0197 -3.84323,-0.0298 -1.68067,-0.0202 -1.68067,-0.0202 -3.3953,-0.0409 -2.80046,-0.0531 -2.80046,-0.0531 -4.64328,2.22032 -0.33,-0.99 -0.66,-1.98 -1,-3 0.80438,-0.45375 1.60875,-0.9075 2.4375,-1.375 2.65107,-1.37225 2.65107,-1.37225 3.5625,-3.625 0.79555,-6.12305 0.79555,-6.12305 -1.11718,-11.76953 -1.49663,-1.52639 -1.49663,-1.52639 -3.88287,-3.23044 2.74815,-1.37407 4.93117,-1.11461 8.00684,-1.10107 z"
     fill="#dde5ed"
     id="path33" />
  <path
     d="m 789.0312,399.39421 c 1.46971,0.0112 2.93945,0.0197 4.40919,0.0257 3.84913,0.0228 7.69688,0.0816 11.54546,0.14822 3.93485,0.0616 7.86992,0.0888 11.80512,0.11902 7.707,0.0641 15.41287,0.16641 23.11914,0.29297 -0.64099,0.6938 -0.64099,0.6938 -1.29493,1.40161 -0.55236,0.61641 -1.10472,1.23283 -1.67382,1.86792 -0.82662,0.91036 -0.82662,0.91036 -1.66993,1.83911 -2.14764,2.98382 -1.89495,5.35611 -1.36132,8.89136 1.02761,2.71583 1.93231,3.93231 4,6 -1.79388,1.79387 -4.48587,1.16503 -6.90918,1.19287 -1.26512,0.0161 -2.53023,0.0321 -3.83368,0.0487 -1.393,0.0115 -2.78601,0.0221 -4.17902,0.0319 -0.69893,0.005 -1.39785,0.0107 -2.11796,0.0161 -3.70155,0.0267 -7.40307,0.0461 -11.1047,0.0605 -3.82137,0.0166 -7.64188,0.0614 -11.46293,0.11237 -2.93915,0.0337 -5.87811,0.0452 -8.81744,0.0509 -1.40822,0.007 -2.81643,0.0219 -4.22447,0.0459 -1.97438,0.0317 -3.94923,0.0287 -5.92387,0.0243 -1.68425,0.0121 -1.68425,0.0121 -3.40252,0.0245 -3.96072,-0.79627 -5.44218,-2.58955 -8.02423,-5.608 -0.33,-0.33 -0.66,-0.66 -1,-1 -0.34375,-1.85547 -0.34375,-1.85547 -0.5,-4.1875 -0.10829,-1.13502 -0.10829,-1.13502 -0.21875,-2.29297 0.98001,-3.43536 2.5173,-4.98083 5.25283,-7.23244 5.34453,-2.78959 11.70096,-2.00515 17.58701,-1.87302 z"
     fill="#d8ecef"
     id="path34" />
  <path
     d="m 778.54341,265.86662 c 0.96085,8e-5 1.92169,1.5e-4 2.91165,2.3e-4 1.03962,0.005 2.07924,0.0103 3.15036,0.0156 1.06258,10e-4 2.12516,0.003 3.21994,0.004 3.40328,0.006 6.80649,0.0182 10.20975,0.0309 2.30338,0.005 4.60677,0.01 6.91015,0.0137 5.65498,0.011 11.30991,0.0278 16.96485,0.0488 0,0.99 0,1.98 0,3 -0.48598,0.45632 -0.97195,0.91265 -1.47266,1.38281 -2.56046,2.71108 -1.98696,5.60211 -1.89844,9.16406 0.50752,3.35497 1.92774,5.16248 4.3711,7.45312 -2.3539,1.17696 -3.82067,1.15131 -6.44629,1.19288 -0.92146,0.0161 -1.84292,0.0321 -2.7923,0.0487 -4.22108,0.0445 -8.442,0.0855 -12.66327,0.10855 -2.22504,0.0165 -4.45003,0.0438 -6.6748,0.082 -3.2091,0.0548 -6.41696,0.0767 -9.62647,0.0913 -0.99082,0.0227 -1.98165,0.0453 -3.0025,0.0687 -4.55146,-0.0139 -7.77733,-0.067 -11.40668,-2.99985 -3.25582,-3.5348 -3.78237,-5.64067 -3.74707,-10.48682 0.6352,-3.7214 2.69917,-5.50859 5.35938,-8.10546 2.41774,-1.20888 3.93331,-1.1206 6.6333,-1.11353 z"
     fill="#d4ebee"
     id="path35" />
  <path
     d="m 157.08589,399.64421 c 0.80278,-0.007 1.60556,-0.0133 2.43266,-0.0202 1.69878,-0.0101 3.39759,-0.0148 5.09639,-0.0145 2.588,-0.004 5.17427,-0.0406 7.76197,-0.0786 1.65298,-0.006 3.30598,-0.01 4.95898,-0.0117 1.15343,-0.0216 1.15343,-0.0216 2.33015,-0.0435 5.1827,0.0437 8.12664,1.08848 12.24407,4.50449 1.7287,3.45739 1.48967,7.21975 1,11 -1.79394,2.8703 -2.98263,4.49131 -6,6 -5.34956,0.28501 -10.70021,0.3138 -16.05664,0.35009 -1.78855,0.0165 -3.57702,0.0438 -5.36524,0.082 -2.58368,0.0549 -5.16581,0.0767 -7.75,0.0913 -0.79396,0.0227 -1.58792,0.0453 -2.40594,0.0687 -4.11564,-0.0156 -6.65793,-0.36664 -9.91486,-2.99813 -2.98799,-3.09128 -3.51594,-4.47922 -3.74951,-8.5979 0.41232,-3.3983 2.06227,-5.45286 4.24219,-7.9961 3.76976,-2.51318 6.80545,-2.32339 11.17578,-2.33594 z"
     fill="#0694a1"
     id="path36" />
  <path
     d="m 386.91011,201.98015 c 4.90713,2.31973 7.8111,5.71777 11,10 1.62706,4.88117 1.41143,8.74405 -0.1875,13.625 -2.59861,4.83878 -5.68625,8.29505 -10.8125,10.375 -6.1539,0.71579 -11.82194,0.69862 -17,-3 -5.35701,-5.47378 -6.46844,-9.32998 -6.41406,-16.87891 0.64067,-4.82922 2.83916,-7.9029 6.41406,-11.12109 5.41698,-3.91327 10.53042,-3.78233 17,-3 z"
     fill="#033472"
     id="path37" />
  <path
     d="m 886.10103,333.73992 c 2.03704,-0.01 4.07306,-0.0407 6.10986,-0.0723 1.28778,-0.005 2.57555,-0.0103 3.90235,-0.0156 1.77359,-0.014 1.77359,-0.014 3.58301,-0.0283 3.55496,0.39427 5.38076,1.20994 8.21386,3.35644 2.6684,4.00255 2.834,7.29314 2,12 -2.1816,2.7557 -3.8718,4.43589 -7,6 -4.57701,0.3267 -9.16278,0.32465 -13.75,0.375 -1.91426,0.0561 -1.91426,0.0561 -3.86719,0.11329 -10.53989,0.099 -10.53989,0.099 -14.21093,-2.82422 -2.56736,-3.14917 -3.10039,-5.02071 -3.54688,-9.03907 0.47017,-4.54493 1.93063,-5.76869 5.375,-8.625 2.60134,-2.60133 9.66163,-1.23009 13.19092,-1.24023 z"
     fill="#0696a4"
     id="path38" />
  <path
     d="m 721.91011,269.98015 c 4.79297,2.4417 7.66029,5.1406 10,10 0.79754,4.9968 0.62308,8.77691 -1.6875,13.3125 -0.76312,0.88687 -1.52625,1.77375 -2.3125,2.6875 -0.66,0.94875 -1.32,1.8975 -2,2.875 -4.04541,2.8655 -7.09683,2.94481 -11.98047,2.74609 -4.99712,-1.02786 -7.8898,-3.71302 -11.01953,-7.62109 -2.35914,-3.9319 -2.39072,-7.46759 -2,-12 1.82057,-5.86628 4.12885,-8.5496 9,-12 4.19735,-1.39912 7.71221,-0.93979 12,0 z"
     fill="#0998a5"
     id="path39" />
  <path
     d="m 442.16011,204.10515 c 3.83084,2.61194 6.65162,5.67824 8.75,9.875 0.54712,6.45599 -0.23417,9.70748 -4,15 -4.81158,4.45951 -8.92487,5.52754 -15.35547,5.48047 -4.76843,-0.86635 -7.59895,-3.88046 -10.64453,-7.48047 -2.63326,-3.89723 -2.23741,-7.95855 -1.67578,-12.49219 1.29127,-4.79187 4.40991,-8.13358 8.60156,-10.67578 4.71373,-1.89082 9.61944,-1.33561 14.32422,0.29297 z"
     fill="#063470"
     id="path40" />
  <path
     d="m 385.91011,332.98015 c 4.85901,2.29699 7.66907,5.15884 10,10 0.9608,5.35175 0.56525,9.7073 -2.1875,14.4375 -2.29181,3.14251 -4.05302,5.25485 -7.8125,6.5625 -5.27165,0.63776 -9.56105,0.65407 -14.4375,-1.5625 -4.6412,-4.4148 -6.76808,-8.0901 -7.125,-14.4375 0.22193,-5.2075 1.92164,-8.349 5.5625,-12 4.49923,-4.10224 10.24141,-3.7537 16,-3 z"
     fill="#f06c13"
     id="path41" />
  <path
     d="m 667.91011,199.98015 c 4.32046,2.2751 7.19199,5.46736 9,10 0.5587,4.46232 0.55302,8.61746 -1.125,12.8125 -3.10142,3.61832 -6.89693,7.82418 -11.82813,8.42578 -5.57592,0.18018 -8.66368,-0.46669 -13.04687,-4.23828 -4.08228,-4.52361 -5.31646,-7.78829 -5.21484,-13.94141 0.47677,-4.56835 2.44047,-7.35977 5.77734,-10.37109 5.16536,-3.57602 10.28502,-3.52826 16.4375,-2.6875 z"
     fill="#056b90"
     id="path42" />
  <path
     d="m 722.12495,207.67546 c 4.75217,2.10618 7.65588,4.42509 9.78516,9.30469 0.77056,5.38592 0.70255,9.59489 -1.75,14.5 -3.44791,3.83101 -6.245,6.1845 -11.51954,6.73828 -4.25426,0.12416 -7.16691,0.0122 -11.10546,-1.73828 -4.28844,-4.08423 -6.28873,-8.14606 -7.125,-14 0.83976,-5.87838 2.83033,-9.94683 7.1875,-14 5.00252,-2.2653 9.27358,-2.45402 14.52734,-0.80469 z"
     fill="#0596a3"
     id="path43" />
  <path
     d="m 385.91011,396.98015 c 4.87987,2.26565 7.66705,5.15465 10,10 0.86007,4.41896 0.85525,8.2079 -1.10547,12.31641 -3.18527,4.637 -6.329,7.26862 -11.89453,8.68359 -5.20015,0.36946 -8.87565,-0.48533 -12.9375,-3.8125 -3.04967,-2.80454 -4.80947,-5.4045 -5.39844,-9.55469 -0.0897,-5.75743 0.37723,-9.13914 4.33594,-13.63281 0.66,-0.78375 1.32,-1.5675 2,-2.375 4.83005,-2.61628 9.63541,-2.33834 15,-1.625 z"
     fill="#063774"
     id="path44" />
  <path
     d="m 720.91011,332.98015 c 4.77345,2.38673 8.15696,5.48458 11,10 0.92995,4.89233 0.65251,9.40647 -1.625,13.875 -3.1874,4.19395 -5.61879,6.72656 -10.99609,7.50391 -4.47739,0.18833 -7.68105,-0.0744 -11.81641,-1.87891 -4.23797,-4.13461 -6.2779,-8.18255 -7,-14.0625 0.67643,-5.31485 2.01441,-9.08557 5.9375,-12.8125 4.64344,-3.01823 9.11116,-3.28127 14.5,-2.625 z"
     fill="#f06b13"
     id="path45" />
  <path
     d="m 720.91011,396.98015 c 4.66494,1.46859 7.4412,3.87235 10.08203,7.90625 1.75158,3.99509 1.66268,7.85031 0.91797,12.09375 -2.36027,5.00378 -6.00886,8.61602 -11,11 -4.43542,1.00408 -7.50196,0.20259 -11.6875,-1.5 -4.03207,-2.63564 -6.53654,-6.04439 -8.3125,-10.5 -0.91655,-4.75156 -0.51231,-7.99436 1.6875,-12.3125 5.71886,-6.64624 9.65112,-7.70799 18.3125,-6.6875 z"
     fill="#053472"
     id="path46" />
  <path
     d="m 387.16011,460.10515 c 3.83084,2.61194 6.65162,5.67824 8.75,9.875 0.37365,5.6047 0.20861,9.18709 -3,14 -3.75785,3.79892 -6.93015,5.88501 -12.375,6.1875 -4.41156,-0.22818 -7.05602,-0.60325 -10.23047,-3.80859 -4.40517,-5.03299 -5.81051,-8.01494 -5.74219,-14.76954 0.6951,-5.21714 3.74247,-8.22712 7.59766,-11.54687 5.1231,-1.97938 9.85066,-1.71996 15,0.0625 z"
     fill="#063574"
     id="path47" />
  <path
     d="m 719.91011,458.98015 c 5.67476,1.96434 9.314,5.62801 12,11 0.43262,6.4893 -0.16396,10.47717 -4.37109,15.70312 -3.38294,3.47218 -6.20996,4.77933 -11.06641,5.10938 -5.3812,-0.28907 -8.209,-2.19828 -12.00391,-5.89063 -3.13446,-3.86505 -3.9691,-6.85659 -3.80078,-11.90625 0.67491,-5.61696 3.95478,-9.44743 8.21485,-12.8789 3.63267,-2.03682 7.01292,-1.86328 11.02734,-1.13672 z"
     fill="#0798a5"
     id="path48" />
  <path
     d="m 821.91011,280.98015 c 0.33,1.32 0.66,2.64 1,4 10.36162,0.0232 20.72323,0.0409 31.08487,0.0518 4.81124,0.005 9.62246,0.0123 14.43368,0.0236 4.64247,0.0109 9.28491,0.0168 13.92738,0.0194 1.77183,0.002 3.54366,0.005 5.31548,0.0109 2.48026,0.007 4.96046,0.008 7.44074,0.008 0.73368,0.004 1.46735,0.007 2.22327,0.0109 3.33542,-0.007 6.38588,-0.0854 9.57458,-1.12442 -2.3744,3.07245 -3.5533,3.93529 -7.45998,4.50121 -1.39933,0.0207 -2.7991,0.0193 -4.19847,5e-4 -1.14944,0.008 -1.14944,0.008 -2.32211,0.0164 -2.52901,0.0125 -5.05688,-0.004 -7.58585,-0.022 -1.75829,1.6e-4 -3.51659,0.002 -5.27488,0.004 -3.68286,0.001 -7.36533,-0.0112 -11.04811,-0.034 -4.7237,-0.0284 -9.44675,-0.0256 -14.17049,-0.0129 -3.62968,0.007 -7.2592,-8.2e-4 -10.88885,-0.0133 -1.74195,-0.005 -3.48391,-0.005 -5.22585,-9.4e-4 -2.43246,0.003 -4.86402,-0.0136 -7.29636,-0.0354 -0.72164,0.005 -1.44327,0.009 -2.18678,0.0136 -2.93221,-0.0438 -4.88873,-0.10124 -7.33237,-1.80622 -1.0099,-1.61113 -1.0099,-1.61113 -0.6974,-3.79863 0.22687,-0.59812 0.45375,-1.19625 0.6875,-1.8125 z"
     fill="#2e9fac"
     id="path52" />
  <path
     d="m 675.91011,280.98015 c 2.81256,-0.0268 5.62487,-0.0468 8.4375,-0.0625 0.80244,-0.008 1.60488,-0.0168 2.43164,-0.0254 2.04381,-0.009 4.0877,0.0356 6.13086,0.0879 1,1 1,1 1.0625,4.0625 -0.0206,0.96938 -0.0412,1.93875 -0.0625,2.9375 -3.06533,1.53267 -6.26754,1.10276 -9.625,1.0625 -0.70641,-0.005 -1.41281,-0.009 -2.14063,-0.0137 -1.74482,-0.0118 -3.48961,-0.0297 -5.23437,-0.0488 -0.33,0.99 -0.66,1.98 -1,3 -1.11491,-3.34474 -0.80511,-5.60064 0,-9 0,-0.66 0,-1.32 0,-2 z"
     fill="#3eaab6"
     id="path53" />
  <path
     d="m 412.91011,405.98015 c 0.0425,1.99955 0.0408,4.00042 0,6 -2.05922,2.05922 -6.21708,1.41428 -9.0625,1.5625 -1.13792,0.0648 -1.13792,0.0648 -2.29883,0.13086 -1.87932,0.10638 -3.75897,0.20704 -5.63867,0.30664 0,-2.31 0,-4.62 0,-7 12.68546,-3.15727 12.68546,-3.15727 17,-1 z"
     fill="#89acbd"
     id="path54" />
  <path
     d="m 408.28902,214.88249 c 1.39456,0.007 2.78911,0.0186 4.18359,0.0352 0.71092,0.005 1.42184,0.009 2.1543,0.0137 1.7611,0.0118 3.52216,0.0298 5.2832,0.0488 0,2.97 0,5.94 0,9 -2.4796,-0.14025 -4.95852,-0.28692 -7.4375,-0.4375 -0.70705,-0.0393 -1.4141,-0.0786 -2.14257,-0.11914 -5.30664,-0.33012 -5.30664,-0.33012 -6.41993,-1.4434 -0.125,-3 -0.125,-3 0,-6 1,-1 1,-1 4.37891,-1.09766 z"
     fill="#9dbaca"
     id="path55" />
  <path
     d="m 408.91011,468.98015 c 0.66,0.66 1.32,1.32 2,2 -0.55556,4.55556 -0.55556,4.55556 -2,6 -2.18639,0.0726 -4.375,0.0837 -6.5625,0.0625 -1.79631,-0.0135 -1.79631,-0.0135 -3.62891,-0.0273 -0.92683,-0.0116 -1.85367,-0.0232 -2.80859,-0.0352 0,-2.31 0,-4.62 0,-7 4.39146,-0.85687 8.52475,-1.25819 13,-1 z"
     fill="#86aabc"
     id="path56" />
  <path
     d="m 491.91011,193.98015 c 1,1 1,1 1.375,3.875 -0.375,3.125 -0.375,3.125 -2.5625,5.0625 -3.20241,1.2098 -4.61374,1.18639 -7.8125,0.0625 -0.66,-0.66 -1.32,-1.32 -2,-2 0.15786,-3.0783 0.61461,-4.57179 2.6875,-6.875 3.12509,-1.52032 5.01415,-1.00456 8.3125,-0.125 z"
     fill="#95b4c4"
     id="path57" />
  <path
     d="m 678.91011,473.98015 c 1.8125,1.1875 1.8125,1.1875 3,3 0.4375,2.5 0.4375,2.5 0,5 -2.16383,2.32411 -3.46945,2.93684 -6.625,3.3125 -2.375,-0.3125 -2.375,-0.3125 -4.375,-2.3125 -0.33373,-3.13704 -0.52849,-5.16554 1.1875,-7.875 2.46757,-1.5316 3.9577,-1.55322 6.8125,-1.125 z"
     fill="#7bb2bf"
     id="path58" />
  <path
     d="m 430.91011,469.98015 c 1.9375,1.1875 1.9375,1.1875 3,3 -0.24453,3.34193 -0.60544,4.60544 -3,7 -3.13042,0.33302 -5.17898,0.47672 -7.9375,-1.125 -1.0625,-1.875 -1.0625,-1.875 -0.875,-5 0.26813,-0.94875 0.53625,-1.8975 0.8125,-2.875 2.7987,-1.39935 4.90499,-1.25265 8,-1 z"
     fill="#9db9c6"
     id="path60" />
  <path
     d="m 655.91011,480.98015 c 2,2 2,2 2.3125,4.4375 -0.3125,2.5625 -0.3125,2.5625 -1.4375,4.375 -2.70946,1.71599 -4.73796,1.52123 -7.875,1.1875 -2,-2 -2,-2 -2.3125,-5 0.10312,-0.99 0.20625,-1.98 0.3125,-3 3.45246,-2.30164 4.94739,-2.3449 9,-2 z"
     fill="#99b9c6"
     id="path61" />
  <path
     d="m 580.91011,499.73015 c 3,0.25 3,0.25 5,2.25 0.25,3 0.25,3 0,6 -2,2 -2,2 -4.9375,2.3125 -3.0625,-0.3125 -3.0625,-0.3125 -5,-1.5 -1.0625,-1.8125 -1.0625,-1.8125 -0.875,-4.375 1.19876,-3.59628 2.00004,-4.36979 5.8125,-4.6875 z"
     fill="#9ab6c6"
     id="path62" />
  <path
     d="m 607.91011,495.98015 c 2,2 2,2 2.3125,4.4375 -0.3125,2.5625 -0.3125,2.5625 -1.4375,4.375 -2.70946,1.71599 -4.73796,1.52123 -7.875,1.1875 -2,-2 -2,-2 -2.3125,-4.4375 0.3125,-2.5625 0.3125,-2.5625 1.4375,-4.375 2.70946,-1.71599 4.73796,-1.52123 7.875,-1.1875 z"
     fill="#9db8c6"
     id="path63" />
  <path
     d="m 450.97261,475.16765 c 2.9375,0.8125 2.9375,0.8125 4.9375,2.8125 0.25,2.5 0.25,2.5 0,5 -2,2 -2,2 -5.5,2.25 -3.5,-0.25 -3.5,-0.25 -5.5,-2.25 -0.36332,-2.83386 -0.35687,-4.40522 1.125,-6.875 1.875,-1.125 1.875,-1.125 4.9375,-0.9375 z"
     fill="#9fbac9"
     id="path64" />
  <path
     d="m 632.91011,489.98015 c 1,1 1,1 1.3125,3.375 -0.3125,2.625 -0.3125,2.625 -2,4.4375 -2.70539,1.38926 -4.31051,1.5825 -7.3125,1.1875 -2,-2 -2,-2 -2.3125,-4.4375 0.3125,-2.5625 0.3125,-2.5625 1.375,-4.4375 3.07951,-1.7881 5.58083,-0.87093 8.9375,-0.125 z"
     fill="#9cb8c6"
     id="path65" />
  <path
     d="m 549.91011,181.73015 c 3,0.25 3,0.25 5,2.25 0.36488,2.84603 0.40199,4.38643 -1.1875,6.8125 -2.46158,1.61276 -3.92316,1.6209 -6.8125,1.1875 -1.875,-1.1875 -1.875,-1.1875 -3,-3 0.33037,-4.51503 1.1848,-6.84873 6,-7.25 z"
     fill="#9bb7c6"
     id="path66" />
  <path
     d="m 467.91011,202.98015 c 0.66,0.66 1.32,1.32 2,2 -0.1875,2.5 -0.1875,2.5 -1,5 -3.22374,2.14916 -4.26704,2.38287 -8,2 -2,-2 -2,-2 -2.375,-4.4375 0.375,-2.5625 0.375,-2.5625 2.0625,-4.4375 2.93172,-1.42624 4.26577,-1.1673 7.3125,-0.125 z"
     fill="#98b5c5"
     id="path67" />
  <path
     d="m 613.47261,191.23015 c 2.4375,0.75 2.4375,0.75 4.4375,2.75 0.25,2.5 0.25,2.5 0,5 -2,2 -2,2 -4.9375,2.3125 -3.0625,-0.3125 -3.0625,-0.3125 -5,-1.5 -1.0625,-1.8125 -1.0625,-1.8125 -0.9375,-4.375 1.24793,-3.47637 2.73681,-4.54854 6.4375,-4.1875 z"
     fill="#9db7c6"
     id="path68" />
  <path
     d="m 629.91011,198.98015 c 6.57692,0.57692 6.57692,0.57692 8,2 0.1875,2.9375 0.1875,2.9375 0,6 -0.66,0.66 -1.32,1.32 -2,2 -6.57692,-0.57692 -6.57692,-0.57692 -8,-2 -0.1875,-2.9375 -0.1875,-2.9375 0,-6 0.66,-0.66 1.32,-1.32 2,-2 z"
     fill="#9fb9c8"
     id="path69" />
  <path
     d="m 560.91011,500.98015 c 2,2 2,2 2.25,5 -0.25,3 -0.25,3 -2.25,5 -3,0.25 -3,0.25 -6,0 -2,-2 -2,-2 -2.3125,-4.4375 0.3125,-2.5625 0.3125,-2.5625 1.5,-4.375 2.42607,-1.58949 3.96647,-1.55238 6.8125,-1.1875 z"
     fill="#a0bac9"
     id="path70" />
  <path
     d="m 532.91011,499.98015 c 2.33945,0.2873 4.67391,0.61937 7,1 0.625,3.375 0.625,3.375 1,7 -2,2 -2,2 -5,2.25 -3,-0.25 -3,-0.25 -5,-2.25 0.57692,-6.57692 0.57692,-6.57692 2,-8 z"
     fill="#97b3c4"
     id="path71" />
  <path
     d="m 510.91011,496.98015 c 6.57692,0.57692 6.57692,0.57692 8,2 0.1875,2.9375 0.1875,2.9375 0,6 -0.66,0.66 -1.32,1.32 -2,2 -3.625,-0.375 -3.625,-0.375 -7,-1 -0.625,-3.375 -0.625,-3.375 -1,-7 0.66,-0.66 1.32,-1.32 2,-2 z"
     fill="#a7bfcd"
     id="path72" />
  <path
     d="m 588.91011,185.98015 c 6.57692,0.57692 6.57692,0.57692 8,2 0.29574,2.80951 0.38243,4.41629 -1.1875,6.8125 -2.42607,1.58949 -3.96647,1.55237 -6.8125,1.1875 -2,-2 -2,-2 -2.25,-5 0.25,-3 0.25,-3 2.25,-5 z"
     fill="#99b5c6"
     id="path73" />
  <path
     d="m 492.34761,490.66765 c 2.5625,0.3125 2.5625,0.3125 4.4375,1.4375 1.67791,2.79651 0.87376,4.81191 0.125,7.875 -3.375,0.625 -3.375,0.625 -7,1 -2,-2 -2,-2 -2.25,-5 0.31075,-3.72896 0.9054,-4.82761 4.6875,-5.3125 z"
     fill="#9cb7c6"
     id="path74" />
  <path
     d="m 472.47261,483.23015 c 2.4375,0.75 2.4375,0.75 4.4375,2.75 0.25,2.5 0.25,2.5 0,5 -2,2 -2,2 -5,2.3125 -0.99,-0.10312 -1.98,-0.20625 -3,-0.3125 -2.13873,-3.20809 -2.47731,-4.27698 -2,-8 3,-2 3,-2 5.5625,-1.75 z"
     fill="#a0b9c8"
     id="path75" />
  <path
     d="m 689.53511,345.85515 c 1.67062,0.0619 1.67062,0.0619 3.375,0.125 0.66,1.65 1.32,3.3 2,5 -3.28934,3.89848 -3.28934,3.89848 -6.625,4.375 -2.375,-0.375 -2.375,-0.375 -4.375,-2.375 -0.25,-2.5 -0.25,-2.5 0,-5 2,-2 2,-2 5.625,-2.125 z"
     fill="#b2c9d3"
     id="path76" />
  <path
     d="m 509.47261,187.23015 c 2.4375,0.75 2.4375,0.75 4.4375,1.75 0.36076,4.44937 0.36076,4.44937 -1.1875,6.8125 -2.42607,1.58949 -3.96647,1.55237 -6.8125,1.1875 -2,-2 -2,-2 -2.3125,-4.4375 0.3125,-2.5625 0.3125,-2.5625 1.5,-4.4375 1.8125,-1.125 1.8125,-1.125 4.375,-0.875 z"
     fill="#a0bbca"
     id="path77" />
  <path
     d="m 688.91011,411.79265 c 3,0.1875 3,0.1875 5,1.1875 0.1875,2.875 0.1875,2.875 0,6 -3.22374,2.14916 -4.26704,2.38287 -8,2 -2,-2 -2,-2 -2.25,-4.5 0.38419,-3.84194 1.46783,-4.45111 5.25,-4.6875 z"
     fill="#9cbac9"
     id="path78" />
  <path
     d="m 412.91011,340.98015 c 0.125,2.875 0.125,2.875 0,6 -2,2 -2,2 -5.5,2.25 -3.5,-0.25 -3.5,-0.25 -5.5,-2.25 0.25,-2.5625 0.25,-2.5625 1,-5 3.21451,-1.60726 6.43613,-1.05748 10,-1 z"
     fill="#a2bdc8"
     id="path79" />
  <path
     d="m 685.91011,214.98015 c 6.57692,0.57692 6.57692,0.57692 8,2 0.0408,1.99958 0.0425,4.00045 0,6 -2.7625,1.38125 -4.94731,1.19079 -8,1 -2,-2 -2,-2 -2.25,-4.5 0.25,-2.5 0.25,-2.5 2.25,-4.5 z"
     fill="#9fbdc9"
     id="path80" />
  <path
     d="m 570.91011,182.73015 c 3,0.25 3,0.25 5,2.25 0.25,2.5 0.25,2.5 0,5 -2,2 -2,2 -5,2.25 -3,-0.25 -3,-0.25 -5,-2.25 -0.25,-2.5 -0.25,-2.5 0,-5 2,-2 2,-2 5,-2.25 z"
     fill="#a2bac8"
     id="path81" />
  <path
     d="m 528.91011,183.73015 c 3,0.25 3,0.25 5,2.25 0.3125,2.5 0.3125,2.5 0,5 -3.22374,2.14916 -4.26704,2.38287 -8,2 -2,-2 -2,-2 -2.25,-4.5 0.38369,-3.83691 1.48305,-4.43609 5.25,-4.75 z"
     fill="#9cb6c7"
     id="path82" />
  <path
     d="m 712.91011,396.98015 c 0,0.66 0,1.32 0,2 -1.75781,0.91146 -3.51563,1.82292 -5.27344,2.73437 -2.68512,1.96828 -3.52135,4.11647 -4.09765,7.34375 -0.19155,6.26455 1.60175,9.98135 5.37109,14.92188 -0.99,0 -1.98,0 -3,0 -3.43843,-3.55466 -5.34492,-7.696 -5.5625,-12.625 0.35314,-5.69927 3.0178,-8.94333 7.125,-12.75 2.4375,-1.625 2.4375,-1.625 5.4375,-1.625 z"
     fill="#1c427d"
     id="path83" />
  <path
     d="m 385.91011,332.98015 c -0.33,0.99 -0.66,1.98 -1,3 -0.56848,-0.0696 -1.13695,-0.13922 -1.72266,-0.21094 -4.72608,-0.33138 -7.53291,-0.12251 -11.21484,3.02344 -3.27149,3.13228 -5.23794,5.80445 -5.6875,10.375 -0.12375,1.25812 -0.2475,2.51625 -0.375,3.8125 -0.33,0 -0.66,0 -1,0 -0.46518,-5.13764 -0.83001,-9.54326 2.1875,-13.9375 5.54945,-6.51792 10.61515,-6.45012 18.8125,-6.0625 z"
     fill="#f17729"
     id="path84" />
  <path
     d="m 675.91011,280.98015 c 5.61,0 11.22,0 17,0 0,0.33 0,0.66 0,1 -2.97,0 -5.94,0 -9,0 -0.33,1.65 -0.66,3.3 -1,5 -1.65,0.33 -3.3,0.66 -5,1 0,-1.65 0,-3.3 0,-5 -0.66,0 -1.32,0 -2,0 0,-0.66 0,-1.32 0,-2 z"
     fill="#59b9c2"
     id="path86" />
  <path
     d="m 402.91011,406.98015 c 0,1.98 0,3.96 0,6 -2.31,0.33 -4.62,0.66 -7,1 0,-2.31 0,-4.62 0,-7 3.1335,-1.0445 3.98968,-0.93424 7,0 z"
     fill="#aac5d3"
     id="path87" />
  <path
     d="m 356.91011,114.98015 c 4.07376,1.61011 6.76507,4.53822 9.75,7.625 0.5066,0.51562 1.0132,1.03125 1.53516,1.5625 1.24288,1.26633 2.47949,2.53881 3.71484,3.8125 -0.66,0.66 -1.32,1.32 -2,2 -1.98538,-1.93147 -3.96329,-3.86967 -5.9375,-5.8125 -0.56396,-0.54721 -1.12793,-1.09441 -1.70898,-1.6582 -4.24024,-4.18946 -4.24024,-4.18946 -5.35352,-7.5293 z"
     fill="#123977"
     id="path88" />
  <path
     d="m 389.91011,479.98015 c 0.99,0.33 1.98,0.66 3,1 -0.33646,3.14027 -1.05236,4.05098 -3.375,6.3125 -1.29938,0.83531 -1.29938,0.83531 -2.625,1.6875 -0.99,-0.33 -1.98,-0.66 -3,-1 1.23139,-3.69418 3.20791,-5.3511 6,-8 z"
     fill="#0c3166"
     id="path92" />
  <path
     d="m 426.91011,417.98015 c 1.65,0.33 3.3,0.66 5,1 0,0.99 0,1.98 0,3 2.64,0 5.28,0 8,0 -2,2 -2,2 -5.25,2.3125 -3.9674,-0.33062 -6.3434,-1.31839 -9.75,-3.3125 0.66,-0.33 1.32,-0.66 2,-1 0,-0.66 0,-1.32 0,-2 z"
     fill="#1b4179"
     id="path94" />
  <path
     d="m 418.91011,273.98015 c 0,0.99 0,1.98 0,3 -3.60484,0.58855 -6.96645,1.00058 -10.625,0.9375 -3.3254,-0.13984 -3.3254,-0.13984 -6,1.125 -2.8769,1.13562 -4.44828,0.77371 -7.375,-0.0625 0,-0.33 0,-0.66 0,-1 7.92548,-1.94661 15.91357,-2.99852 24,-4 z"
     fill="#3aadb9"
     id="path95" />
  <path
     d="m 908.91011,345.98015 c -0.3549,2.62656 -0.7246,4.57968 -2.1875,6.8125 -2.6061,1.70746 -4.7724,1.39017 -7.8125,1.1875 0.99,-0.33 1.98,-0.66 3,-1 0,-0.99 0,-1.98 0,-3 4.3429,-4 4.3429,-4 7,-4 z"
     fill="#098d99"
     id="path96" />
  <path
     d="m 720.91011,332.98015 c 0,0.66 0,1.32 0,2 -0.65227,0.0258 -1.30453,0.0516 -1.97656,0.0781 -5.90419,0.38317 -9.42011,1.16653 -14.02344,4.92188 0,-0.99 0,-1.98 0,-3 5.54165,-3.77304 9.34454,-4.5433 16,-4 z"
     fill="#f06d1d"
     id="path97" />
  <path
     d="m 601.91011,495.98015 c 2.875,-0.125 2.875,-0.125 6,0 2,2 2,2 2.3125,4.4375 -0.3125,2.5625 -0.3125,2.5625 -1.4375,4.375 -2.65036,1.67856 -4.80746,1.392 -7.875,1.1875 2.13855,-2.13855 3.13275,-2.42655 6,-3 -0.33,-1.98 -0.66,-3.96 -1,-6 -1.32,-0.33 -2.64,-0.66 -4,-1 z"
     fill="#a6bfcc"
     id="path98" />
  <path
     d="m 905.91011,354.98015 c -3.4158,2.09376 -5.89731,2.17871 -9.85938,1.97656 -1.67255,-0.0773 -1.67255,-0.0773 -3.3789,-0.15625 -1.15887,-0.0644 -2.31774,-0.1289 -3.51172,-0.19531 -1.7615,-0.0851 -1.7615,-0.0851 -3.55859,-0.17188 -2.89777,-0.14135 -5.79465,-0.29275 -8.69141,-0.45312 0,-0.33 0,-0.66 0,-1 4.27047,-0.19656 8.54138,-0.3807 12.8125,-0.5625 1.21494,-0.0561 2.42988,-0.11215 3.68164,-0.16992 1.16338,-0.0483 2.32676,-0.0967 3.52539,-0.14649 1.07355,-0.0471 2.1471,-0.0943 3.25318,-0.14282 2.72729,0.0217 2.72729,0.0217 5.72729,1.02173 z"
     fill="#e7f6f5"
     id="path101" />
  <path
     d="m 365.91011,211.98015 c 0.96661,3.1218 0.98989,5.52084 0.5625,8.75 -0.15275,1.19883 -0.15275,1.19883 -0.30859,2.42187 -0.12569,0.90493 -0.12569,0.90493 -0.25391,1.82813 -0.66,0 -1.32,0 -2,0 0,-3.96 0,-7.92 0,-12 0.66,-0.33 1.32,-0.66 2,-1 z"
     fill="#153b74"
     id="path106" />
  <path
     d="m 393.91011,469.98015 c 0.66,0 1.32,0 2,0 0.16682,4.92127 0.24828,8.50344 -2,13 -0.33,0 -0.66,0 -1,0 0.33,-4.29 0.66,-8.58 1,-13 z"
     fill="#14386e"
     id="path111" />
  <path
     d="m 380.53511,332.91765 c 1.50434,0.0135 1.50434,0.0135 3.03906,0.0273 0.77086,0.0116 1.54172,0.0232 2.33594,0.0352 -0.33,0.99 -0.66,1.98 -1,3 -1.43708,0.0542 -2.87475,0.0929 -4.3125,0.125 -0.80051,0.0232 -1.60102,0.0464 -2.42578,0.0703 -2.26172,-0.1953 -2.26172,-0.1953 -5.26172,-2.1953 2.64458,-1.32229 4.67761,-1.09677 7.625,-1.0625 z"
     fill="#f3823a"
     id="path112" />
  <path
     d="m 425.91011,204.98015 c 0.66,0.33 1.32,0.66 2,1 -2.33846,5.66154 -2.33846,5.66154 -5.6875,7.375 -0.76312,0.20625 -1.52625,0.4125 -2.3125,0.625 1.31225,-3.93674 2.9191,-6.22719 6,-9 z"
     fill="#22467d"
     id="path113" />
  <path
     d="m 710.91011,458.98015 c 2.97,0 5.94,0 9,0 0,0.66 0,1.32 0,2 -1.11375,0.12375 -2.2275,0.2475 -3.375,0.375 -3.65604,0.27158 -3.65604,0.27158 -5.625,2.625 -0.33,-0.99 -0.66,-1.98 -1,-3 0.33,-0.66 0.66,-1.32 1,-2 z"
     fill="#209fac"
     id="path117" />
  <path
     d="m 662.91011,339.98015 c 0,0.33 0,0.66 0,1 -3.63,0.66 -7.26,1.32 -11,2 0.33,-0.99 0.66,-1.98 1,-3 3.28301,-1.6415 6.42545,-0.51889 10,0 z"
     fill="#f1782b"
     id="path118" />
  <path
     d="m 370.91011,273.98015 c 0.66,0.33 1.32,0.66 2,1 -0.66,1.32 -1.32,2.64 -2,4 -1.32,0 -2.64,0 -4,0 0.3125,-1.9375 0.3125,-1.9375 1,-4 0.99,-0.33 1.98,-0.66 3,-1 z"
     fill="#0d919e"
     id="path119" />
  <path
     d="m 718.09761,510.85515 c 1.88719,0.0619 1.88719,0.0619 3.8125,0.125 -1.90598,2.43542 -3.00596,3.00158 -6.0625,3.8125 -1.45406,0.0928 -1.45406,0.0928 -2.9375,0.1875 -0.66,-0.66 -1.32,-1.32 -2,-2 3.08889,-2.05926 3.70936,-2.23904 7.1875,-2.125 z"
     fill="#3db4be"
     id="path121" />
  <path
     d="m 655.91011,199.98015 c 0.66,0.33 1.32,0.66 2,1 -0.80438,0.61875 -1.60875,1.2375 -2.4375,1.875 -2.60125,1.86664 -2.60125,1.86664 -3.5625,4.125 -1.32,-0.33 -2.64,-0.66 -4,-1 5.75,-4.875 5.75,-4.875 8,-6 z"
     fill="#1d769b"
     id="path123" />
  <path
     d="m 702.91011,415.98015 c 2.61527,2.3662 4.26441,4.94205 6,8 -0.99,0 -1.98,0 -3,0 -2.1875,-3 -2.1875,-3 -4,-6 0.33,-0.66 0.66,-1.32 1,-2 z"
     fill="#0e3c7d"
     id="path126" />
  <path
     d="m 526.91011,362.98015 c 2.64,0.33 5.28,0.66 8,1 0,0.66 0,1.32 0,2 0.99,0.33 1.98,0.66 3,1 -7.42857,-1 -7.42857,-1 -11,-2 0,-0.66 0,-1.32 0,-2 z"
     fill="#f27d2f"
     id="path128" />
  <path
     d="m 391.91011,227.98015 c 0.66,0 1.32,0 2,0 0.33,0.99 0.66,1.98 1,3 -2.3125,2.0625 -2.3125,2.0625 -5,4 -0.99,-0.33 -1.98,-0.66 -3,-1 1.375,-1.5 1.375,-1.5 3,-3 0.66,0 1.32,0 2,0 0,-0.99 0,-1.98 0,-3 z"
     fill="#1a4680"
     id="path129" />
  <path
     d="m 708.91011,207.98015 c 0.66,0 1.32,0 2,0 -1.293,2.88438 -2.65941,4.87219 -5,7 -0.99,-0.33 -1.98,-0.66 -3,-1 2,-2 4,-4 6,-6 z"
     fill="#17a1ae"
     id="path130" />
  <path
     d="m 146.91011,467.98015 c 0.66,0.33 1.32,0.66 2,1 0,0.99 0,1.98 0,3 -2,1.6875 -2,1.6875 -4,3 -0.125,-2.375 -0.125,-2.375 0,-5 0.66,-0.66 1.32,-1.32 2,-2 z"
     fill="#173c73"
     id="path132" />
  <path
     d="m 389.91011,291.98015 c 0.99,0.33 1.98,0.66 3,1 -0.33,1.32 -0.66,2.64 -1,4 -1.65,-0.33 -3.3,-0.66 -5,-1 0,-0.66 0,-1.32 0,-2 0.99,-0.66 1.98,-1.32 3,-2 z"
     fill="#098f9a"
     id="path133" />
  <path
     d="m 426.91011,286.98015 c 0.66,0.66 1.32,1.32 2,2 2.19705,0.67651 2.19705,0.67651 4.625,1.125 0.81727,0.16758 1.63453,0.33516 2.47656,0.50781 0.62649,0.12117 1.25297,0.24235 1.89844,0.36719 0,0.33 0,0.66 0,1 -8.57143,0.28571 -8.57143,0.28571 -12,-2 0.33,-0.99 0.66,-1.98 1,-3 z"
     fill="#0b8f9b"
     id="path134" />
  <path
     d="m 443.91011,283.98015 c 0.99,0.495 0.99,0.495 2,1 -0.99,0.495 -0.99,0.495 -2,1 0,-0.66 0,-1.32 0,-2 z m 0,2 c 0,1.32 0,2.64 0,4 -1.65,0.33 -3.3,0.66 -5,1 0.375,-1.9375 0.375,-1.9375 1,-4 2,-1 2,-1 4,-1 z"
     fill="#078a96"
     id="path138" />
  <path
     d="m 366.91011,228.98015 c 3.87132,0.57353 6.08173,2.48704 9,5 -0.99,0.33 -1.98,0.66 -3,1 -3.1875,-2.375 -3.1875,-2.375 -6,-5 0,-0.33 0,-0.66 0,-1 z"
     fill="#0e3d79"
     id="path140" />
  <path
     d="m 703.91011,228.98015 c 2.5,2.3125 2.5,2.3125 5,5 0,0.99 0,1.98 0,3 -4.875,-3.625 -4.875,-3.625 -6,-7 0.33,-0.33 0.66,-0.66 1,-1 z"
     fill="#17a0ac"
     id="path141" />
  <path
     d="m 363.91011,521.98015 c 0.33,0 0.66,0 1,0 0.24934,1.60116 0.47379,3.2062 0.6875,4.8125 0.19143,1.33998 0.19143,1.33998 0.38672,2.70703 -0.0742,2.48047 -0.0742,2.48047 -3.07422,5.48047 0.33,-4.29 0.66,-8.58 1,-13 z"
     fill="#315a91"
     id="path146" />
  <path
     d="m 369.91011,461.98015 c 0.99,0.33 1.98,0.66 3,1 -0.66,1.32 -1.32,2.64 -2,4 -0.99,-0.33 -1.98,-0.66 -3,-1 0.66,-1.32 1.32,-2.64 2,-4 z"
     fill="#16427b"
     id="path151" />
  <path
     d="m 710.91011,333.98015 c -1.04875,2.62187 -1.64931,3.79371 -4.125,5.25 -0.61875,0.2475 -1.2375,0.495 -1.875,0.75 0,-0.99 0,-1.98 0,-3 3.33333,-3 3.33333,-3 6,-3 z"
     fill="#f3752a"
     id="path152" />
  <path
     d="m 433.53511,328.41765 c 1.2259,0.15275 1.2259,0.15275 2.47656,0.30859 0.93973,0.12569 0.93973,0.12569 1.89844,0.25391 0,0.33 0,0.66 0,1 -1.45635,0.22175 -2.91523,0.42699 -4.375,0.625 -0.81211,0.11602 -1.62422,0.23203 -2.46094,0.35156 -0.71414,0.008 -1.42828,0.0155 -2.16406,0.0234 -0.66,-0.66 -1.32,-1.32 -2,-2 2.52054,-1.26027 3.85421,-0.91874 6.625,-0.5625 z"
     fill="#f17422"
     id="path153" />
  <path
     d="m 647.91011,277.98015 c 0.99,0 1.98,0 3,0 -0.8125,2.9375 -0.8125,2.9375 -2,6 -0.99,0.33 -1.98,0.66 -3,1 0.875,-5.875 0.875,-5.875 2,-7 z"
     fill="#2aa8b4"
     id="path154" />
  <path
     d="m 422.91011,265.98015 c 0.66,1.32 1.32,2.64 2,4 -0.63937,0.10312 -1.27875,0.20625 -1.9375,0.3125 -0.68062,0.22687 -1.36125,0.45375 -2.0625,0.6875 -0.33,0.99 -0.66,1.98 -1,3 0.54724,-3.37463 1.0549,-5.08235 3,-8 z"
     fill="#2da8b4"
     id="path155" />
  <text
     style="font-size:134.541px;font-family:Orbitron;-inkscape-font-specification:'Orbitron, @wght=900';font-variation-settings:'wght' 900;white-space:pre;fill:#033372;fill-opacity:1;stroke:#1278d1;stroke-width:1.44043;stroke-opacity:0;paint-order:fill markers stroke"
     x="62.254822"
     y="715.29218"
     id="text166">d</text>
  <text
     style="font-size:134.541px;font-family:Orbitron;-inkscape-font-specification:'Orbitron, @wght=900';font-variation-settings:'wght' 900;white-space:pre;fill:#033372;fill-opacity:1;stroke:#1278d1;stroke-width:1.44043;stroke-opacity:0;paint-order:fill markers stroke"
     x="148.89906"
     y="715.29218"
     id="text165">o</text>
  <text
     style="font-size:134.541px;font-family:Orbitron;-inkscape-font-specification:'Orbitron, @wght=900';font-variation-settings:'wght' 900;white-space:pre;fill:#033372;fill-opacity:1;stroke:#1278d1;stroke-width:1.44043;stroke-opacity:0;paint-order:fill markers stroke"
     x="242.00105"
     y="715.29218"
     id="text164">c</text>
  <text
     style="font-size:134.541px;font-family:Orbitron;-inkscape-font-specification:'Orbitron, @wght=900';font-variation-settings:'wght' 900;white-space:pre;fill:#0496a3;fill-opacity:1;stroke:#1278d1;stroke-width:1.44043;stroke-opacity:0;paint-order:fill markers stroke"
     x="335.50671"
     y="715.29218"
     id="text163">d</text>
  <text
     style="font-size:134.541px;font-family:Orbitron;-inkscape-font-specification:'Orbitron, @wght=900';font-variation-settings:'wght' 900;white-space:pre;fill:#0496a3;fill-opacity:1;stroke:#1278d1;stroke-width:1.44043;stroke-opacity:0;paint-order:fill markers stroke"
     x="425.24521"
     y="715.29218"
     id="text162">i</text>
  <text
     style="font-size:134.541px;font-family:Orbitron;-inkscape-font-specification:'Orbitron, @wght=900';font-variation-settings:'wght' 900;white-space:pre;fill:#0496a3;fill-opacity:1;stroke:#1278d1;stroke-width:1.44043;stroke-opacity:0;paint-order:fill markers stroke"
     x="461.43674"
     y="715.29218"
     id="text161">s</text>
  <text
     style="font-size:134.541px;font-family:Orbitron;-inkscape-font-specification:'Orbitron, @wght=900';font-variation-settings:'wght' 900;white-space:pre;fill:#0496a3;fill-opacity:1;stroke:#1278d1;stroke-width:1.44043;stroke-opacity:0;paint-order:fill markers stroke"
     x="553.73169"
     y="715.29218"
     id="text160">t</text>
  <text
     style="font-size:134.541px;font-family:Orbitron;-inkscape-font-specification:'Orbitron, @wght=900';font-variation-settings:'wght' 900;white-space:pre;fill:#0496a3;fill-opacity:1;stroke:#1278d1;stroke-width:1.44043;stroke-opacity:0;paint-order:fill markers stroke"
     x="618.44574"
     y="715.29218"
     id="text159">a</text>
  <text
     style="font-size:134.541px;font-family:Orbitron;-inkscape-font-specification:'Orbitron, @wght=900';font-variation-settings:'wght' 900;white-space:pre;fill:#0496a3;fill-opacity:1;stroke:#1278d1;stroke-width:1.44043;stroke-opacity:0;paint-order:fill markers stroke"
     x="710.6062"
     y="715.29218"
     id="text158">n</text>
  <text
     style="font-size:134.541px;font-family:Orbitron;-inkscape-font-specification:'Orbitron, @wght=900';font-variation-settings:'wght' 900;white-space:pre;fill:#0496a3;fill-opacity:1;stroke:#1278d1;stroke-width:1.44043;stroke-opacity:0;paint-order:fill markers stroke"
     x="800.88287"
     y="715.29218"
     id="text157">c</text>
  <text
     style="font-size:134.541px;font-family:Orbitron;-inkscape-font-specification:'Orbitron, @wght=900';font-variation-settings:'wght' 900;white-space:pre;fill:#0496a3;fill-opacity:1;stroke:#1278d1;stroke-width:1.44043;stroke-opacity:0;paint-order:fill markers stroke"
     x="891.02502"
     y="715.29218"
     id="text156">e</text>
</svg>
