<?xml version="1.0" encoding="UTF-8" standalone="no"?>
<svg
   version="1.1"
   width="1562.4587"
   height="348.58337"
   id="svg356"
   sodipodi:docname="ChatGPT Image Jun 18, 2026, 01_55_57 PM.svg"
   inkscape:version="1.4.3 (0d15f75, 2025-12-25)"
   viewBox="0 0 1736.0653 387.31487"
   xmlns:inkscape="http://www.inkscape.org/namespaces/inkscape"
   xmlns:sodipodi="http://sodipodi.sourceforge.net/DTD/sodipodi-0.dtd"
   xmlns="http://www.w3.org/2000/svg"
   xmlns:svg="http://www.w3.org/2000/svg">
  <defs
     id="defs356" />
  <sodipodi:namedview
     id="namedview356"
     pagecolor="#505050"
     bordercolor="#eeeeee"
     borderopacity="1"
     inkscape:showpageshadow="0"
     inkscape:pageopacity="0"
     inkscape:pagecheckerboard="0"
     inkscape:deskcolor="#505050"
     inkscape:zoom="0.72901169"
     inkscape:cx="726.3258"
     inkscape:cy="362.13411"
     inkscape:window-width="2880"
     inkscape:window-height="1676"
     inkscape:window-x="-12"
     inkscape:window-y="-12"
     inkscape:window-maximized="1"
     inkscape:current-layer="svg356" />
  <text
     style="font-size:130.814px;font-family:Orbitron;-inkscape-font-specification:'Orbitron, @wght=900';font-variation-settings:'wght' 900;white-space:pre;fill:#033372;fill-opacity:1;stroke:#1278d1;stroke-width:1.40053;stroke-opacity:0;paint-order:fill markers stroke"
     x="734.84711"
     y="198.53606"
     id="text166">d</text>
  <text
     style="font-size:130.814px;font-family:Orbitron;-inkscape-font-specification:'Orbitron, @wght=900';font-variation-settings:'wght' 900;white-space:pre;fill:#033372;fill-opacity:1;stroke:#1278d1;stroke-width:1.40053;stroke-opacity:0;paint-order:fill markers stroke"
     x="819.091"
     y="198.53606"
     id="text165">o</text>
  <text
     style="font-size:130.814px;font-family:Orbitron;-inkscape-font-specification:'Orbitron, @wght=900';font-variation-settings:'wght' 900;white-space:pre;fill:#033372;fill-opacity:1;stroke:#1278d1;stroke-width:1.40053;stroke-opacity:0;paint-order:fill markers stroke"
     x="909.61377"
     y="198.53606"
     id="text164">c</text>
  <text
     style="font-size:130.814px;font-family:Orbitron;-inkscape-font-specification:'Orbitron, @wght=900';font-variation-settings:'wght' 900;white-space:pre;fill:#0496a3;fill-opacity:1;stroke:#1278d1;stroke-width:1.40053;stroke-opacity:0;paint-order:fill markers stroke"
     x="1000.5291"
     y="198.53606"
     id="text163">d</text>
  <text
     style="font-size:130.814px;font-family:Orbitron;-inkscape-font-specification:'Orbitron, @wght=900';font-variation-settings:'wght' 900;white-space:pre;fill:#0496a3;fill-opacity:1;stroke:#1278d1;stroke-width:1.40053;stroke-opacity:0;paint-order:fill markers stroke"
     x="1087.7816"
     y="198.53606"
     id="text162">i</text>
  <text
     style="font-size:130.814px;font-family:Orbitron;-inkscape-font-specification:'Orbitron, @wght=900';font-variation-settings:'wght' 900;white-space:pre;fill:#0496a3;fill-opacity:1;stroke:#1278d1;stroke-width:1.40053;stroke-opacity:0;paint-order:fill markers stroke"
     x="1122.9706"
     y="198.53606"
     id="text161">s</text>
  <text
     style="font-size:130.814px;font-family:Orbitron;-inkscape-font-specification:'Orbitron, @wght=900';font-variation-settings:'wght' 900;white-space:pre;fill:#0496a3;fill-opacity:1;stroke:#1278d1;stroke-width:1.40053;stroke-opacity:0;paint-order:fill markers stroke"
     x="1212.7086"
     y="198.53606"
     id="text160">t</text>
  <text
     style="font-size:130.814px;font-family:Orbitron;-inkscape-font-specification:'Orbitron, @wght=900';font-variation-settings:'wght' 900;white-space:pre;fill:#0496a3;fill-opacity:1;stroke:#1278d1;stroke-width:1.40053;stroke-opacity:0;paint-order:fill markers stroke"
     x="1275.63"
     y="198.53606"
     id="text159">a</text>
  <text
     style="font-size:130.814px;font-family:Orbitron;-inkscape-font-specification:'Orbitron, @wght=900';font-variation-settings:'wght' 900;white-space:pre;fill:#0496a3;fill-opacity:1;stroke:#1278d1;stroke-width:1.40053;stroke-opacity:0;paint-order:fill markers stroke"
     x="1365.2372"
     y="198.53606"
     id="text158">n</text>
  <text
     style="font-size:130.814px;font-family:Orbitron;-inkscape-font-specification:'Orbitron, @wght=900';font-variation-settings:'wght' 900;white-space:pre;fill:#0496a3;fill-opacity:1;stroke:#1278d1;stroke-width:1.40053;stroke-opacity:0;paint-order:fill markers stroke"
     x="1453.0129"
     y="198.53606"
     id="text157">c</text>
  <text
     style="font-size:130.814px;font-family:Orbitron;-inkscape-font-specification:'Orbitron, @wght=900';font-variation-settings:'wght' 900;white-space:pre;fill:#0496a3;fill-opacity:1;stroke:#1278d1;stroke-width:1.40053;stroke-opacity:0;paint-order:fill markers stroke"
     x="1540.6578"
     y="198.53606"
     id="text156">e</text>
  <path
     d="m 94.579425,18.434954 c 1.348103,-0.0098 2.696191,-0.0221 4.04425,-0.03673 3.632375,-0.0314 7.263745,-0.0252 10.896185,-0.0099 3.04185,0.0092 6.08352,-5.8e-4 9.12537,-0.01034 7.17778,-0.02284 14.35508,-0.01541 21.53283,0.01206 7.38837,0.02783 14.77554,0.0084 22.16382,-0.03488 6.363,-0.03583 12.72563,-0.04431 19.08872,-0.03061 3.79203,0.008 7.58337,0.0064 11.37533,-0.02086 3.56456,-0.02423 7.12744,-0.01405 10.69189,0.02199 1.92114,0.01123 3.84238,-0.01181 5.76339,-0.03608 5.88575,0.093 9.72935,0.369491 14.28302,4.304001 1.14482,1.187432 2.26664,2.397662 3.35892,3.633591 1.04643,1.016328 2.09863,2.026801 3.16016,3.027344 0.9707,0.966793 1.93815,1.936867 2.90234,2.910156 0.77513,0.77803 0.77513,0.77803 1.56592,1.571778 3.34587,3.383689 6.51449,6.873362 9.59814,10.498535 2.16457,2.431567 4.45773,4.704298 6.77344,6.992187 3.55137,3.513814 6.96566,7.064681 10.1582,10.908448 1.80812,2.127556 1.80812,2.127556 3.90381,3.985595 4.41926,4.24807 6.46431,7.232846 6.71924,13.453614 -0.0525,2.239627 -0.14705,4.478623 -0.28125,6.714843 -0.0361,1.151778 -0.0722,2.303555 -0.10937,3.490235 -0.0936,2.8193 -0.22452,5.631465 -0.39063,8.447265 -2.45862,0.05384 -4.91608,0.09359 -7.375,0.125 -0.69867,0.01676 -1.39734,0.03352 -2.11719,0.05078 -1.83678,0.01766 -3.67383,-0.07275 -5.50781,-0.175782 -2.49506,-2.495059 -2.35948,-3.673289 -2.625,-7.125 -0.11215,-1.365117 -0.11215,-1.365117 -0.22656,-2.757812 -0.049,-0.698672 -0.098,-1.397344 -0.14844,-2.117188 -1.07894,-0.0093 -2.15789,-0.01869 -3.26953,-0.02832 -4.03345,-0.04011 -8.06615,-0.105927 -12.09912,-0.179199 -1.73981,-0.02809 -3.47975,-0.04936 -5.21973,-0.06348 -2.51285,-0.0216 -5.02422,-0.06833 -7.53662,-0.119629 -1.15206,-0.0018 -1.15206,-0.0018 -2.32739,-0.0037 -6.60043,-0.175841 -11.37472,-1.820537 -16.36695,-6.202637 -6.31178,-7.471069 -4.83218,-17.292351 -4.55566,-26.465515 0.0301,-1.74149 0.0575,-3.483031 0.082,-5.224609 0.0657,-4.238886 0.16896,-8.475327 0.29297,-12.712891 -15.18594,0.06052 -30.37172,0.138009 -45.55747,0.235715 -7.05098,0.04497 -14.1019,0.08438 -21.15297,0.110721 -6.80171,0.02542 -13.60318,0.06632 -20.40475,0.116751 -2.59796,0.01672 -5.19596,0.0282 -7.79396,0.03443 -3.63241,0.0096 -7.264241,0.03759 -10.896509,0.07001 -1.619483,-0.0022 -1.619483,-0.0022 -3.271682,-0.0043 -0.989955,0.01254 -1.97991,0.02508 -2.999863,0.03799 -0.859111,0.0046 -1.718222,0.0092 -2.603367,0.01397 -2.920577,0.484484 -4.247485,1.27415 -6.319424,3.384761 -0.911393,3.458882 -1.127848,6.720712 -1.137014,10.286484 -0.0051,1.051891 -0.01015,2.103781 -0.01538,3.187547 -4.98e-4,1.14931 -9.96e-4,2.298619 -0.0015,3.482756 -0.0044,1.22581 -0.0088,2.45162 -0.01328,3.714576 -0.01105,3.399534 -0.01761,6.799022 -0.02218,10.198567 -0.006,3.6674 -0.01757,7.334783 -0.02829,11.002171 -0.02449,8.852289 -0.03914,17.704583 -0.05206,26.556897 -0.0037,2.49978 -0.0077,4.99955 -0.01175,7.49933 -0.02523,15.5229 -0.04728,31.04579 -0.05973,46.5687 -0.0029,3.59312 -0.0059,7.18623 -0.0089,10.77934 -7.46e-4,0.89305 -0.0015,1.78609 -0.0023,2.7062 -0.01267,14.48139 -0.04591,28.96265 -0.08754,43.44397 -0.04239,14.8655 -0.06598,29.73093 -0.07121,44.59649 -0.0034,8.34754 -0.0152,16.69489 -0.0481,25.04238 -0.02796,7.10525 -0.03902,14.21028 -0.0278,21.31559 0.0052,3.62607 0.0022,7.25165 -0.02247,10.87765 -0.02654,3.92839 -0.01447,7.85611 0.0015,11.78457 -0.01388,1.14931 -0.02776,2.29862 -0.04207,3.48276 0.06147,6.20835 0.06147,6.20835 2.77058,11.68206 3.474192,2.16206 5.479538,2.41812 9.559298,2.42016 0.658196,0.007 1.316392,0.0142 1.994534,0.0215 2.198345,0.0176 4.394916,-5.1e-4 6.593237,-0.0186 1.57882,0.005 3.15763,0.0124 4.73643,0.0217 4.28318,0.0185 8.56573,0.006 12.84888,-0.0141 4.48333,-0.0164 8.96662,-0.008 13.44997,-0.002 7.52886,0.005 15.05748,-0.0113 22.5863,-0.0393 8.70304,-0.0321 17.40563,-0.032 26.10871,-0.0148 8.37376,0.0159 16.74737,0.009 25.12113,-0.008 3.56292,-0.007 7.12571,-0.006 10.68863,0.002 4.19609,0.008 8.39167,-0.004 12.58767,-0.0318 1.53949,-0.007 3.07903,-0.007 4.61852,2.2e-4 2.10269,0.009 4.20381,-0.007 6.30637,-0.0294 1.17617,-0.003 2.35233,-0.006 3.56414,-0.009 3.77481,-0.61323 5.44273,-1.81325 8.11567,-4.50615 0.91504,-2.91661 0.91504,-2.91661 1.125,-6.0625 0.55472,-5.47281 0.55472,-5.47281 2.14844,-7.78516 2.20119,-1.46912 3.59371,-1.55367 6.22656,-1.52734 0.77344,-0.008 1.54688,-0.0155 2.34375,-0.0234 2.15625,0.39844 2.15625,0.39844 3.90234,1.55078 2.88922,4.25731 1.90932,9.98269 1.25391,14.84766 -2.9881,8.79999 -6.88225,14.44623 -15.19607,18.59484 -6.63981,2.39932 -13.82625,1.84002 -20.79172,1.82508 -1.62041,0.007 -3.24081,0.0159 -4.86121,0.0257 -4.3844,0.0222 -8.76861,0.0251 -13.15306,0.0233 -3.66782,-1.2e-4 -7.33561,0.008 -11.00341,0.0168 -8.65723,0.0192 -17.31435,0.0221 -25.97158,0.0154 -8.91378,-0.007 -17.82714,0.0162 -26.74083,0.0533 -7.66906,0.0307 -15.338,0.0421 -23.00713,0.0382 -4.57336,-0.002 -9.14639,0.003 -13.71969,0.0279 -4.30287,0.0224 -8.60506,0.0203 -12.90793,7e-5 -1.572894,-0.003 -3.145833,0.002 -4.718664,0.016 -8.807743,0.0748 -16.602631,-0.16953 -23.928707,-5.6364 -2.360936,-2.50967 -4.270867,-5.02116 -6,-8 -0.513004,-0.77962 -1.026009,-1.55924 -1.554559,-2.36248 -2.115972,-5.32495 -1.858731,-10.31769 -1.826391,-15.99809 -0.0047,-1.25722 -0.0094,-2.51443 -0.01418,-3.80974 -0.01251,-3.48277 -0.0063,-6.96529 0.003,-10.44806 0.0068,-3.75879 -0.0037,-7.51754 -0.01194,-11.27632 -0.01334,-7.3613 -0.01046,-14.72251 -0.0018,-22.08382 0.0068,-5.98377 0.0077,-11.96753 0.0044,-17.95131 -4.6e-4,-0.85169 -9.19e-4,-1.70337 -0.0014,-2.58087 -9.59e-4,-1.73022 -0.0019,-3.46044 -0.0029,-5.19066 -0.0086,-16.2261 0.0013,-32.45215 0.0174,-48.67823 0.0134,-13.91826 0.01108,-27.83644 -0.0028,-41.7547 -0.01606,-16.16498 -0.02237,-32.32991 -0.01316,-48.49489 9.56e-4,-1.72446 0.0019,-3.44893 0.0028,-5.17339 4.63e-4,-0.84845 9.26e-4,-1.6969 0.0014,-2.57106 0.0026,-5.97454 -0.0018,-11.94905 -0.0088,-17.923595 -0.0084,-7.284088 -0.0061,-14.568079 0.0098,-21.852157 0.0079,-3.715425 0.01099,-7.43069 0.0011,-11.146114 -0.01061,-4.030137 0.0021,-8.059867 0.01704,-12.089989 -0.0067,-1.171017 -0.01338,-2.342033 -0.02028,-3.548535 0.05904,-8.189373 0.96546,-15.319634 6.790835,-21.628175 7.871709,-7.028854 14.959119,-8.318753 25.286741,-8.230815 z"
     fill="#093878"
     id="path2" />
  <path
     d="m 506.16469,18.939584 c 0.84377,-0.01287 1.68754,-0.02573 2.55687,-0.03899 0.91748,-0.0038 1.83495,-0.0076 2.78023,-0.01154 1.45927,-0.0173 1.45927,-0.0173 2.94801,-0.03496 3.21884,-0.03431 6.4375,-0.05281 9.65648,-0.06831 1.10064,-0.0069 2.20127,-0.01381 3.33526,-0.02092 5.82526,-0.03584 11.65042,-0.05937 17.47578,-0.07308 6.01043,-0.01655 12.0197,-0.07497 18.02974,-0.143144 4.62751,-0.04482 9.25474,-0.05835 13.88245,-0.06347 2.21517,-0.0079 4.43032,-0.02751 6.64528,-0.05922 3.10498,-0.04152 6.20699,-0.03859 9.31215,-0.02517 0.90938,-0.02202 1.81876,-0.04405 2.7557,-0.06674 6.23127,0.09119 9.29838,1.78908 13.72164,6.15941 0.54083,0.572137 1.08166,1.144274 1.63887,1.733748 0.82629,0.782461 1.65258,1.564922 2.50391,2.371094 4.08176,4.097255 7.9859,8.274066 11.75,12.664063 2.47091,2.780462 5.12776,5.356026 7.77734,7.964844 2.52301,2.563052 4.84438,5.273458 7.1875,8 1.85551,2.083371 3.79349,4.042812 5.78125,6 19.5775,19.389253 19.5775,19.389253 20.12765,27.997307 10e-4,0.768612 0.002,1.537223 0.004,2.329126 0.004,0.888689 0.008,1.777378 0.0116,2.692996 -8.6e-4,0.977314 -0.002,1.954629 -0.003,2.961558 0.003,1.037514 0.006,2.075034 0.009,3.143994 0.009,3.49367 0.0102,6.9873 0.0117,10.48097 0.005,2.49813 0.01,4.99625 0.015,7.49437 0.0131,6.7998 0.0196,13.59958 0.024,20.39939 0.003,4.24696 0.007,8.49392 0.0115,12.74088 0.0122,11.76103 0.0225,23.52206 0.0259,35.2831 3.3e-4,1.12931 3.3e-4,1.12931 6.7e-4,2.28143 2.2e-4,0.75467 4.3e-4,1.50934 6.6e-4,2.28687 4.4e-4,1.52923 8.9e-4,3.05846 10e-4,4.58769 3.3e-4,1.13782 3.3e-4,1.13782 6.7e-4,2.29864 0.004,12.28339 0.0214,24.56672 0.0447,36.85008 0.0237,12.61447 0.0362,25.22891 0.0373,37.8434 9.2e-4,7.08115 0.007,14.16223 0.0248,21.24336 0.017,6.66317 0.0186,13.32618 0.01,19.98938 -7.7e-4,2.44408 0.004,4.88818 0.0135,7.33225 0.0127,3.34028 0.007,6.68004 -0.004,10.02031 0.0121,1.4459 0.0121,1.4459 0.0244,2.921 -0.0589,8.08023 -1.46104,15.47264 -7.01691,21.63439 -0.61101,0.7077 -1.22203,1.41539 -1.85156,2.14453 -7.83543,6.34355 -15.76127,6.62186 -25.54516,6.56055 -1.39721,0.005 -2.79441,0.0126 -4.19159,0.0212 -3.77069,0.0181 -7.54094,0.0112 -11.31164,-0.002 -3.95873,-0.0102 -7.91742,-7.2e-4 -11.87615,0.006 -6.64493,0.007 -13.28968,-0.002 -19.93459,-0.0214 -7.66811,-0.0218 -15.33579,-0.0147 -23.00389,0.007 -6.60071,0.0182 -13.2013,0.0207 -19.80203,0.0102 -3.93494,-0.006 -7.86968,-0.007 -11.80461,0.006 -3.69959,0.0116 -7.39862,0.003 -11.09815,-0.0196 -1.99508,-0.008 -3.99021,0.004 -5.98527,0.0165 -8.05069,-0.0756 -13.63642,-0.88935 -19.95864,-6.2179 -0.43699,-0.54012 -0.87398,-1.08023 -1.32421,-1.63672 -0.44989,-0.53238 -0.89977,-1.06476 -1.36329,-1.61328 -3.90472,-6.11625 -4.8264,-11.1284 -4.76171,-18.26172 -0.03,-1.19012 -0.03,-1.19012 -0.0605,-2.40429 0.003,-3.80147 0.065,-5.79518 2.30273,-8.96289 2.19531,-1.44532 2.19531,-1.44532 5.75781,-1.38282 4.54499,1.23954 4.54499,1.23954 6.4375,3.9375 0.41221,3.53197 0.4395,7.00057 0.4961,10.55469 0.59902,4.09566 1.59581,5.54555 4.5039,8.44531 2.73045,0.74996 2.73045,0.74996 5.80701,0.64165 1.77917,0.0233 1.77917,0.0233 3.59428,0.0471 1.29779,-0.009 2.59558,-0.0171 3.9327,-0.0259 1.38326,0.008 2.7665,0.0189 4.14973,0.0314 3.75425,0.0271 7.50783,0.0223 11.26213,0.0103 3.13387,-0.007 6.26761,10e-4 9.40147,0.01 7.39225,0.0199 14.78418,0.0144 22.17641,-0.008 7.62792,-0.0224 15.25499,-0.005 22.88283,0.0331 6.54877,0.0312 13.09728,0.0392 19.64613,0.0281 3.91152,-0.007 7.82256,-0.004 11.73403,0.0193 3.67756,0.0212 7.35393,0.0133 11.03142,-0.0171 1.99353,-0.009 3.98713,0.0109 5.98057,0.0319 1.18612,-0.0155 2.37223,-0.0309 3.59429,-0.0469 1.0309,-9.7e-4 2.0618,-0.002 3.12394,-0.003 2.89801,-0.56936 2.89801,-0.56936 5.01426,-3.1609 2.20857,-4.75296 2.2251,-8.62869 2.17674,-13.80817 0.006,-1.02657 0.0125,-2.05314 0.0189,-3.11082 0.016,-3.43863 0.003,-6.87655 -0.009,-10.31519 0.005,-2.46565 0.0125,-4.9313 0.0212,-7.39694 0.0164,-6.00078 0.014,-12.00128 0.002,-18.00204 -0.009,-4.87684 -0.0102,-9.75361 -0.006,-14.63045 9.2e-4,-1.04154 9.2e-4,-1.04154 0.002,-2.10412 10e-4,-1.41061 0.003,-2.82122 0.004,-4.23183 0.0114,-13.22303 -0.002,-26.44595 -0.0232,-39.66897 -0.0179,-11.34554 -0.0148,-22.69091 0.004,-34.03645 0.0214,-13.17759 0.0298,-26.35508 0.0175,-39.53268 -10e-4,-1.40509 -0.003,-2.81017 -0.004,-4.21526 -6.2e-4,-0.69132 -10e-4,-1.38263 -0.002,-2.0949 -0.003,-4.87139 0.002,-9.74272 0.0118,-14.6141 0.0124,-6.55573 0.004,-13.11119 -0.0196,-19.6669 -0.005,-2.40867 -0.004,-4.81736 0.005,-7.22603 0.0109,-3.28258 -0.003,-6.56416 -0.0227,-9.84668 0.009,-0.95797 0.0178,-1.91594 0.027,-2.902935 -0.0496,-4.191707 -0.19124,-6.593949 -2.32826,-10.280254 -3.27652,-2.83096 -6.50535,-2.559554 -10.62859,-2.473038 -0.81882,-0.0056 -1.63763,-0.01127 -2.48126,-0.01708 -2.61621,-0.01645 -5.23072,-9.33e-4 -7.84687,0.02098 -2.60171,0.01666 -5.20228,0.02558 -7.80401,0.01027 -1.61618,-0.0092 -3.23259,-4.19e-4 -4.84851,0.02963 -6.71084,-0.0312 -12.02505,-1.971177 -16.87382,-6.695194 -0.54785,-0.752813 -1.0957,-1.505625 -1.66015,-2.28125 -0.5659,-0.752813 -1.1318,-1.505625 -1.71485,-2.28125 -2.72384,-4.484463 -2.54897,-9.135641 -2.66406,-14.265625 -0.0208,-0.771202 -0.0416,-1.542404 -0.063,-2.336975 -0.0652,-2.455296 -0.12425,-4.910695 -0.18312,-7.36615 -0.0432,-1.667979 -0.0868,-3.335948 -0.13086,-5.003906 -0.10688,-4.081926 -0.20823,-8.163956 -0.30664,-12.246094 -10.86581,-0.09269 -21.73153,-0.163761 -32.59766,-0.207249 -5.04563,-0.02087 -10.091,-0.04918 -15.13647,-0.09451 -4.86943,-0.04347 -9.73859,-0.06738 -14.6082,-0.07775 -1.85756,-0.0074 -3.71511,-0.02182 -5.57256,-0.04341 -2.6025,-0.02905 -5.20392,-0.03304 -7.80655,-0.03118 -0.76748,-0.01438 -1.53497,-0.02876 -2.32571,-0.04358 -3.55652,0.0274 -5.81164,0.418495 -8.93301,2.168885 -2.50857,2.892288 -2.63609,4.250847 -2.61579,8.04364 -0.007,1.14799 -0.0135,2.295981 -0.0204,3.478759 0.0165,1.235486 0.033,2.470972 0.0499,3.743897 -0.006,1.272224 -0.0113,2.544448 -0.0171,3.855225 -0.0165,4.069494 -0.001,8.137869 0.021,12.207275 0.0182,4.069298 0.0257,8.137934 0.0103,12.207275 -0.009,2.533043 -1e-5,5.066235 0.0296,7.599121 -0.004,1.147991 -0.007,2.295982 -0.0109,3.47876 0.009,1.514125 0.009,1.514125 0.0188,3.058838 -0.61611,3.37162 -1.83909,4.54979 -4.48534,6.656005 -2.86301,0.63742 -5.01775,0.2886 -8,0 -2.71767,-2.717667 -2.26444,-4.18721 -2.29053,-7.990966 -0.0128,-1.258583 -0.0255,-2.517166 -0.0387,-3.813888 -0.003,-1.381453 -0.005,-2.762908 -0.007,-4.144364 -0.006,-1.415269 -0.0131,-2.830537 -0.0202,-4.245804 -0.012,-2.971726 -0.0157,-5.943336 -0.0145,-8.915085 2e-4,-3.795279 -0.027,-7.589804 -0.0615,-11.384905 -0.0223,-2.926393 -0.0263,-5.852606 -0.0252,-8.779075 -0.002,-1.398157 -0.0111,-2.79632 -0.0267,-4.194393 -0.0896,-8.908416 0.0562,-14.744348 6.2653,-21.457301 0.56719,-0.457617 1.13438,-0.915234 1.71875,-1.386719 0.56719,-0.470507 1.13438,-0.941015 1.71875,-1.425781 3.32557,-2.355646 5.94356,-3.508674 10.04274,-3.549333 z"
     fill="#0aa3ad"
     id="path3" />
  <path
     d="m 304.90315,155.22719 c 3.375,1.6875 3.375,1.6875 6,4 0.66406,2.64453 0.66406,2.64453 1,5 0.82178,-0.0392 1.64356,-0.0783 2.49024,-0.11865 11.91553,-0.30515 23.28275,1.54011 35.00976,3.49365 1.97247,0.32144 3.94513,0.64176 5.91797,0.96094 0.96278,0.15582 1.92556,0.31164 2.91751,0.47218 3.73138,0.60219 7.46316,1.20173 11.19571,1.79659 1.52975,0.24493 3.05902,0.49283 4.58752,0.74542 10.09059,1.65398 19.97353,1.92995 30.16889,1.85568 2.57741,-0.0182 5.15446,-0.0205 7.73193,-0.0203 10.69153,-0.0233 21.31595,-0.43417 31.98047,-1.18555 0.12117,-0.76828 0.24234,-1.53656 0.36719,-2.32812 0.90371,-3.81568 2.57295,-5.2772 5.63281,-7.67188 3.4375,-1.0625 3.4375,-1.0625 7,-1 3.74669,1.97939 5.64677,3.47016 8,7 2.88596,0.58481 2.88596,0.58481 6.125,0.6875 1.0957,0.0657 2.19141,0.13149 3.32031,0.19922 0.84305,0.0374 1.6861,0.0748 2.55469,0.11328 -0.33,1.65 -0.66,3.3 -1,5 -3.63,0 -7.26,0 -11,0 -0.66,1.65 -1.32,3.3 -2,5 -1.625,2.3125 -1.625,2.3125 -4,4 -3.16082,0.45883 -4.99589,0.72146 -8,0 -1.34807,-1.31598 -2.69609,-2.63202 -4.04297,-3.94922 -5.3729,-2.88485 -13.46913,-0.43572 -19.24853,0.4585 -6.36154,0.84178 -12.73807,0.92163 -19.146,0.99072 -1.13729,0.0127 -1.13729,0.0127 -2.29755,0.0256 -20.95667,0.11734 -41.57909,-3.35541 -62.20294,-6.76949 -0.73969,-0.12214 -1.47938,-0.24427 -2.24148,-0.37011 -1.82053,-0.386 -1.82053,-0.386 -3.82053,-1.386 -1.95544,-0.29096 -3.91804,-0.53454 -5.88281,-0.7539 -1.1666,-0.13213 -2.3332,-0.26426 -3.53516,-0.4004 -1.22332,-0.1347 -2.44664,-0.26941 -3.70703,-0.4082 -1.23105,-0.13857 -2.46211,-0.27715 -3.73047,-0.41992 -3.04781,-0.34258 -6.09598,-0.68162 -9.14453,-1.01758 -0.44666,0.93586 -0.44666,0.93586 -0.90234,1.89063 -1.41936,2.72759 -2.33865,3.6945 -5.09766,5.10937 -4.1742,0.56886 -7.7284,0.66759 -11.5,-1.3125 -1.5,-1.6875 -1.5,-1.6875 -2.5,-4.6875 -8.65444,0.75914 -8.65444,0.75914 -17,3 -1.8168,2.8835 -1.8168,2.8835 -3,6 -2.5999,2.88878 -3.99054,2.99895 -7.9375,3.4375 -4.08778,-0.1449 -6.1865,-1.47434 -9.0625,-4.4375 -1.7287,-3.45739 -1.48967,-7.21975 -1,-11 1.79394,-2.8703 2.98263,-4.49131 6,-6 5.58333,-0.55833 5.58333,-0.55833 8,0 0.8843,0.84692 1.7686,1.69383 2.67969,2.56641 1.92177,1.70918 2.90285,2.39049 5.48633,2.65722 2.4385,-0.17879 4.79864,-0.50172 7.20898,-0.91113 0.83145,-0.11795 1.66289,-0.2359 2.51953,-0.35742 2.03897,-0.29296 4.07291,-0.62058 6.10547,-0.95508 0.12117,-0.7773 0.24235,-1.55461 0.36719,-2.35547 0.63281,-2.64453 0.63281,-2.64453 2.75781,-4.95703 3.66994,-2.15409 5.67411,-2.2771 9.875,-1.6875 z"
     fill="#0ca2ac"
     id="path14" />
  <path
     d="m 115.49348,248.64369 c 0.84348,-0.002 1.68695,-0.005 2.55599,-0.007 2.7878,-0.002 5.57393,0.0325 8.36149,0.0671 1.96459,0.007 3.92918,0.0115 5.89377,0.0143 5.1878,0.0134 10.37492,0.0576 15.56247,0.10758 5.17337,0.0436 10.3468,0.0544 15.52032,0.0696 10.65691,0.0385 21.31204,0.1456 31.96792,0.29707 2.41915,0.0332 4.83831,0.0613 7.25755,0.0881 3.99064,0.0468 7.97995,0.12892 11.96985,0.22034 1.12197,0.0126 2.24395,0.0252 3.39993,0.0382 1.00739,0.0304 2.01478,0.0608 3.0527,0.0921 1.28063,0.0278 1.28063,0.0278 2.58713,0.0562 3.0803,0.7293 4.31942,2.10375 6.28055,4.53995 0.5625,3 0.5625,3 0,6 -2.91711,3.14298 -4.62444,3.95018 -8.91226,4.51898 -1.55716,0.0292 -3.11482,0.0367 -4.67221,0.0269 -0.85469,0.0103 -1.70938,0.0207 -2.58997,0.0313 -2.83006,0.0295 -5.65941,0.0309 -8.48962,0.0322 -1.99085,0.015 -3.98169,0.0317 -5.97251,0.0501 -5.26023,0.0438 -10.52029,0.0637 -15.78067,0.0787 -5.25035,0.0193 -10.50051,0.0614 -15.75073,0.10162 -8.96724,0.0668 -17.93416,0.0986 -26.90161,0.11717 -5.58173,0.0174 -11.15801,0.0988 -16.73803,0.23244 -1.26662,0.0233 -2.53323,0.0466 -3.83823,0.0706 -2.24286,0.0436 -4.48549,0.10592 -6.72711,0.19226 -6.87651,0.10616 -6.87651,0.10616 -10.7623,-2.78534 -1.86475,-2.66699 -1.86475,-2.66699 -2.55225,-5.66699 0.79159,-3.45419 2.09651,-4.78751 4.84793,-6.9532 3.34679,-1.90447 6.66269,-1.70899 10.4299,-1.6303 z"
     fill="#d5e9ec"
     id="path15" />
  <path
     d="m 117.31526,203.69374 c 1.73006,-0.0129 1.73006,-0.0129 3.49508,-0.0261 3.81241,-0.0227 7.6241,-0.0159 11.43657,-0.007 1.97942,-0.004 3.95884,-0.008 5.93826,-0.0133 6.22102,-0.017 12.44179,-0.0134 18.66281,0.003 6.41283,0.0169 12.82497,0.001 19.23773,-0.0312 5.51186,-0.0267 11.02351,-0.034 16.53543,-0.0255 3.28947,0.005 6.57844,6.4e-4 9.86787,-0.0178 3.66785,-0.0174 7.33424,-0.003 11.00203,0.0198 1.08691,-0.0117 2.17382,-0.0234 3.29366,-0.0354 7.35453,0.093 7.35453,0.093 11.29264,3.04973 1.82581,2.61681 1.82581,2.61681 2.45081,5.11681 -0.96263,3.85054 -2.43926,5.11319 -5.625,7.5 -3.83452,0.75064 -7.62295,0.6726 -11.51977,0.6311 -1.16474,0.007 -2.32947,0.0143 -3.5295,0.0217 -3.84986,0.0169 -7.69856,-0.002 -11.54838,-0.0239 -2.67372,8.3e-4 -5.3474,0.003 -8.02111,0.007 -5.60288,0.005 -11.20543,-0.0113 -16.80824,-0.0393 -6.47527,-0.0321 -12.94993,-0.032 -19.42524,-0.0148 -6.23378,0.0159 -12.46733,0.009 -18.7011,-0.008 -2.65101,-0.005 -5.30204,-0.005 -7.95305,0.001 -3.70146,0.005 -7.40188,-0.0149 -11.10322,-0.0423 -1.64978,0.01 -1.64978,0.01 -3.33289,0.0198 -1.00797,-0.0127 -2.01594,-0.0255 -3.05446,-0.0386 -0.87474,-0.003 -1.74948,-0.006 -2.65073,-0.008 -3.16694,-0.68145 -4.37066,-1.99056 -6.3523,-4.50616 -0.5625,-3.5 -0.5625,-3.5 0,-7 4.44504,-5.33192 10.01274,-4.57186 16.4121,-4.53344 z"
     fill="#d6eaed"
     id="path16" />
  <path
     d="m 302.93831,199.735 c 3.32155,0.83204 5.44163,2.21514 7.96485,4.49219 0.66015,2.64453 0.66015,2.64453 1,5 0.76183,0.0606 1.52367,0.12117 2.30859,0.18359 3.23136,0.26222 6.46128,0.53943 9.69141,0.81641 0.81984,0.0606 1.63968,0.12117 2.48437,0.18359 4.68191,0.40676 8.65221,1.46647 13.0625,3.0625 3.72184,1.14382 7.50981,1.62146 11.36328,2.12891 3.1311,0.63334 5.91978,1.70136 8.89038,2.854 14.21241,4.982 29.86631,5.1694 44.76196,5.2085 1.13279,0.009 1.13279,0.009 2.28846,0.0182 9.2216,0.0488 17.79723,-0.66622 26.79724,-2.71713 3.4383,-0.75759 6.86227,-1.27956 10.3518,-1.73853 0.0825,-0.88687 0.165,-1.77375 0.25,-2.6875 0.85121,-3.75951 2.12966,-5.53334 4.75,-8.3125 3.14912,-1.57456 5.52009,-1.34799 9,-1 2.97673,1.77281 5.42804,3.85608 7,7 0.37767,5.00405 0.11201,7.99885 -3,12 -2.54835,2.63937 -3.78895,2.97739 -7.5,3.375 -3.80272,-0.40743 -4.57352,-1.18014 -7.5,-3.375 -5.46358,-0.68295 -10.1902,0.67562 -15.44922,2.14844 -28.61552,6.86269 -64.77548,3.221 -91.98437,-8.16699 -2.92002,-1.11668 -5.65054,-1.59487 -8.74219,-2.05176 -1.15693,-0.17402 -2.31386,-0.34805 -3.50586,-0.52735 -1.19818,-0.17402 -2.39636,-0.34804 -3.63085,-0.52734 -1.21752,-0.18176 -2.43504,-0.36351 -3.68946,-0.55078 -2.99858,-0.44685 -5.99789,-0.88805 -8.99804,-1.32422 -0.26813,0.61875 -0.53625,1.2375 -0.8125,1.875 -1.1875,2.125 -1.1875,2.125 -4.1875,4.125 -3.11639,0.67077 -5.8852,0.68865 -9,0 -4.00418,-2.75084 -5.74288,-5.80008 -6.75,-10.5 1.47014,-6.86066 5.38955,-11.70194 12.78515,-10.99219 z"
     fill="#f4741c"
     id="path17" />
  <path
     d="m 304.90315,244.22719 c 2.6602,1.68462 4.99661,3.56392 7,6 0,0.99 0,1.98 0,3 1.1434,-0.0258 2.2868,-0.0516 3.46485,-0.0781 4.46373,0.004 8.70718,0.5628 13.09765,1.32812 0.7881,0.13568 1.5762,0.27135 2.38819,0.41113 9.4643,1.69163 18.61871,4.32243 27.82666,7.0459 1.0356,0.30519 2.0712,0.61037 3.13818,0.92481 2.02944,0.60017 4.05725,1.20588 6.08301,1.81836 12.67914,3.77206 24.55232,6.05658 37.76,5.94091 2.17423,-0.0161 4.34659,-5e-5 6.52076,0.019 8.5115,0.0108 16.35138,-0.8522 24.64868,-2.76709 3.07202,-0.64306 3.07202,-0.64306 7.07202,-0.64306 0.0412,-1.05187 0.0825,-2.10375 0.125,-3.1875 0.875,-3.8125 0.875,-3.8125 3.5,-6.75 3.94118,-2.4085 5.83681,-2.7226 10.375,-2.0625 3.5387,1.65139 4.8107,2.71605 7,6 0.4799,4.87896 0.49252,7.06591 -1.8125,11.4375 -2.33369,2.73375 -3.58758,3.39477 -7.125,3.76563 -2.06044,0.0468 -4.01702,0.0612 -6.0625,-0.20313 -0.495,-0.51562 -0.99,-1.03125 -1.5,-1.5625 -0.495,-0.47437 -0.99,-0.94875 -1.5,-1.4375 -3.99647,0.19982 -7.30233,0.7907 -11.125,1.9375 -24.96461,7.47814 -51.17122,1.54318 -75.4375,-5.4375 -1.74252,-0.49201 -3.48536,-0.9829 -5.22851,-1.47265 -5.84673,-1.6458 -11.68973,-3.30446 -17.52808,-4.97974 -5.75221,-1.62012 -11.46302,-2.8262 -17.36841,-3.73511 -1.21333,-0.19432 -1.21333,-0.19432 -2.45117,-0.39258 -1.95293,-0.312 -3.90701,-0.61677 -5.86133,-0.91992 -0.29648,0.78762 -0.59297,1.57524 -0.89844,2.38672 -1.31323,3.11544 -2.07963,4.10232 -5.10156,5.61328 -4.78782,0.53198 -6.86402,0.72509 -10.9375,-1.875 -3.56149,-3.66942 -3.45047,-6.6934 -3.42187,-11.64062 0.35937,-2.48438 0.35937,-2.48438 2.73437,-5.54688 3.81316,-2.81447 5.85156,-3.56795 10.625,-2.9375 z"
     fill="#0a3b7d"
     id="path21" />
  <path
     d="m 539.65315,111.69374 c 0.87052,-0.009 1.74104,-0.0172 2.63794,-0.0261 2.87099,-0.0227 5.74101,-0.0159 8.61206,-0.007 1.9987,-0.005 3.9974,-0.0115 5.9961,-0.0188 4.18631,-0.0104 8.37229,-0.006 12.55859,0.009 5.36376,0.0172 10.72645,-0.006 16.09009,-0.0415 4.12645,-0.022 8.25265,-0.0205 12.37915,-0.0122 1.97755,8.2e-4 3.95512,-0.006 5.93261,-0.0208 2.76516,-0.0174 5.52838,-0.003 8.29346,0.0198 0.81574,-0.0117 1.63147,-0.0234 2.47193,-0.0354 4.23567,0.0708 5.82908,0.31604 9.28588,3.01458 1.99219,2.65196 1.99219,2.65196 2.61719,5.71446 -0.625,2.9375 -0.625,2.9375 -2.61046,5.08775 -4.06739,2.49579 -7.18891,2.42017 -11.8722,2.3832 -0.88188,0.009 -1.76376,0.0172 -2.67237,0.0261 -2.90826,0.0227 -5.81555,0.0159 -8.72387,0.007 -2.02352,0.005 -4.04704,0.0115 -6.07055,0.0188 -4.23759,0.0104 -8.47484,0.006 -12.71241,-0.009 -5.43336,-0.0172 -10.86566,0.006 -16.29889,0.0415 -4.17703,0.0219 -8.3538,0.0205 -12.53087,0.0122 -2.0035,-8.2e-4 -4.00701,0.006 -6.01046,0.0208 -2.79888,0.0174 -5.59584,0.003 -8.39465,-0.0198 -1.24302,0.0175 -1.24302,0.0175 -2.51115,0.0354 -3.94646,-0.0654 -5.79556,-0.27226 -8.72748,-3.0146 -1.83316,-3.26353 -2.19478,-4.96954 -1.48964,-8.65196 4.22227,-4.56623 7.91085,-4.58016 13.75,-4.53345 z"
     fill="#07a2ac"
     id="path23" />
  <path
     d="m 540.44783,294.80727 c 0.86062,-0.008 1.72124,-0.0169 2.60794,-0.0257 2.84381,-0.0234 5.68708,-0.0244 8.53098,-0.0232 1.97771,-0.007 3.95541,-0.0148 5.93312,-0.0231 4.14515,-0.0134 8.29012,-0.015 12.43529,-0.009 5.31106,0.006 10.62122,-0.0247 15.93211,-0.0651 4.0844,-0.0259 8.16858,-0.0288 12.25305,-0.0251 1.95803,-0.002 3.91606,-0.0114 5.87401,-0.0291 2.73887,-0.0222 5.47588,-0.0125 8.21475,0.005 0.80796,-0.0133 1.61591,-0.0265 2.44835,-0.0402 4.21858,0.063 5.78526,0.31118 9.22879,3.00247 1.99693,2.65295 1.99693,2.65295 2.62193,5.71545 -0.625,2.9375 -0.625,2.9375 -2.61619,5.08776 -4.04238,2.48516 -7.11861,2.42037 -11.77468,2.38319 -0.87212,0.009 -1.74425,0.0172 -2.6428,0.0261 -2.8758,0.0227 -5.75062,0.0159 -8.62648,0.007 -2.0011,0.005 -4.00219,0.0115 -6.00328,0.0188 -4.19052,0.0104 -8.38069,0.006 -12.57119,-0.009 -5.37282,-0.0172 -10.74458,0.006 -16.11728,0.0415 -4.13071,0.022 -8.26115,0.0205 -12.3919,0.0122 -1.98117,-8.2e-4 -3.96235,0.006 -5.94347,0.0208 -2.76775,0.0174 -5.53357,0.003 -8.30125,-0.0198 -0.81933,0.0117 -1.63866,0.0234 -2.48282,0.0354 -3.91022,-0.0655 -5.75612,-0.30451 -8.69344,-2.97942 -1.46022,-2.68711 -1.46022,-2.68711 -1.46022,-6.31211 1,-3.375 1,-3.375 2.52846,-5.0597 3.58533,-1.90806 7.05152,-1.74959 11.01622,-1.73525 z"
     fill="#0aa2ad"
     id="path24" />
  <path
     d="m 113.56135,111.58022 c 1.29115,-0.0131 1.29115,-0.0131 2.60839,-0.0266 2.83874,-0.022 5.67591,-0.007 8.51466,0.01 1.97628,-0.003 3.95256,-0.008 5.92883,-0.0145 4.13932,-0.007 8.27811,0.003 12.41736,0.0267 5.30326,0.0285 10.60526,0.0121 15.90848,-0.0179 4.08016,-0.0181 8.16002,-0.0123 12.24019,6.4e-4 1.95521,0.003 3.91045,-7.5e-4 5.86563,-0.0124 2.73408,-0.0127 5.46612,0.007 8.20006,0.0345 0.80638,-0.0101 1.61276,-0.0202 2.44358,-0.0307 4.04182,0.0761 6.00014,0.51425 9.25185,2.99152 1.96277,2.68613 1.96277,2.68613 2.02527,6.31112 -1.20474,3.82681 -1.59692,4.53418 -5.0625,6.375 -2.95471,0.29593 -5.69789,0.42026 -8.65235,0.40406 -1.30797,0.0103 -1.30797,0.0103 -2.64236,0.0208 -2.8811,0.0183 -5.76165,0.0144 -8.64279,0.009 -2.00253,0.005 -4.00505,0.01 -6.00757,0.0159 -4.19644,0.009 -8.39268,0.007 -12.58911,-0.003 -5.38055,-0.0115 -10.76045,0.009 -16.14091,0.0379 -4.13497,0.0183 -8.26978,0.0181 -12.40477,0.0124 -1.98396,-1.6e-4 -3.96793,0.006 -5.95185,0.0183 -2.7724,0.0149 -5.54358,0.004 -8.31595,-0.0129 -0.8209,0.01 -1.6418,0.0193 -2.48757,0.0293 -3.60008,-0.0468 -5.73186,-0.21176 -8.67038,-2.37877 -1.494388,-2.15224 -1.494388,-2.15224 -2.056888,-5.08974 1.435878,-7.81755 7.267798,-8.79672 14.220698,-8.70946 z"
     fill="#023474"
     id="path25" />
  <path
     d="m 540.44783,203.69374 c 0.86062,-0.009 1.72124,-0.0172 2.60794,-0.0261 2.84397,-0.0227 5.68695,-0.0159 8.53098,-0.007 1.97771,-0.005 3.95541,-0.0115 5.93312,-0.0188 4.14521,-0.0104 8.29009,-0.006 12.43529,0.009 5.3111,0.0172 10.62112,-0.006 15.93211,-0.0415 4.08442,-0.022 8.16859,-0.0205 12.25305,-0.0122 1.95802,8.2e-4 3.91605,-0.006 5.87401,-0.0208 2.73892,-0.0174 5.4759,-0.003 8.21475,0.0198 0.80796,-0.0117 1.61591,-0.0234 2.44835,-0.0354 4.20217,0.0709 5.80566,0.34717 9.26785,2.97942 1.95787,2.68712 1.95787,2.68712 1.95787,6.31212 -0.98387,3.32058 -1.38259,4.31968 -4,6.375 -2.91711,0.29629 -5.62072,0.40968 -8.53881,0.38818 -0.87184,0.005 -1.74367,0.0105 -2.64193,0.0159 -2.88655,0.0132 -5.77255,0.005 -8.6591,-0.006 -2.00395,0.002 -4.00791,0.005 -6.01186,0.009 -4.20241,0.004 -8.40464,-0.002 -12.60704,-0.016 -5.38833,-0.0171 -10.77622,-0.007 -16.16454,0.0107 -4.13925,0.0108 -8.27839,0.007 -12.41764,-3.8e-4 -1.98674,-0.002 -3.97349,4.6e-4 -5.96022,0.007 -2.77714,0.008 -5.55356,-0.004 -8.33064,-0.0207 -1.23371,0.009 -1.23371,0.009 -2.49234,0.0184 -3.26619,-0.0364 -5.75017,-0.18985 -8.68639,-1.68475 -2.05583,-2.37652 -1.97361,-4.62908 -2.02074,-7.68668 1.73565,-6.64899 7.21833,-6.61574 13.07593,-6.56855 z"
     fill="#d5e9ec"
     id="path26" />
  <path
     d="m 113.08674,294.72548 c 0.71593,-0.005 1.43185,-0.0108 2.16947,-0.0164 2.3619,-0.0125 4.72259,0.004 7.08444,0.022 1.6438,-1.6e-4 3.2876,-0.002 4.9314,-0.004 3.44328,-10e-4 6.88614,0.0112 10.32934,0.034 4.41197,0.0284 8.82325,0.0256 13.23527,0.0129 3.39382,-0.007 6.78747,8.3e-4 10.18126,0.0133 1.62669,0.005 3.25339,0.005 4.88007,9.4e-4 2.27421,-0.003 4.54747,0.0136 6.82156,0.0354 1.29366,0.005 2.58731,0.0108 3.92017,0.0164 3.4384,0.40847 4.85971,0.94221 7.26343,3.38768 0.49609,2.15625 0.49609,2.15625 0.4375,4.5 -0.001,0.77344 -0.003,1.54688 -0.004,2.34375 -0.55869,2.77833 -1.13394,3.49126 -3.4336,5.15625 -3.18113,0.38768 -3.18113,0.38768 -7.16186,0.40405 -1.0883,0.0103 -1.0883,0.0103 -2.19858,0.0208 -2.39958,0.0183 -4.79851,0.0144 -7.19815,0.009 -1.66765,0.005 -3.3353,0.01 -5.00295,0.0159 -3.49624,0.009 -6.99226,0.007 -10.48851,-0.003 -4.48046,-0.0115 -8.96014,0.009 -13.4405,0.0379 -3.44442,0.0183 -6.88864,0.0181 -10.3331,0.0124 -1.65182,-1.5e-4 -3.30365,0.006 -4.95542,0.0183 -2.31039,0.0149 -4.61932,0.004 -6.92966,-0.0129 -1.97166,-2.3e-4 -1.97166,-2.3e-4 -3.98315,-4.8e-4 -3.30812,-0.50121 -3.30812,-0.50121 -5.73257,-2.31382 -2.30348,-3.198 -2.12423,-5.34664 -1.57555,-9.18739 3.19374,-4.41513 5.91255,-4.50103 11.18359,-4.50171 z"
     fill="#07397a"
     id="path27" />
  <path
     d="m 110.5301,158.83901 c 0.66862,-0.005 1.33724,-0.0105 2.02611,-0.0159 2.20964,-0.0132 4.41855,-0.004 6.62819,0.006 1.53553,-0.002 3.07105,-0.005 4.60657,-0.009 3.21799,-0.004 6.43573,0.002 9.65369,0.016 4.12623,0.0171 8.25187,0.007 12.37808,-0.0107 3.17072,-0.0108 6.34131,-0.007 9.51203,3.9e-4 1.52146,0.002 3.04292,-4.6e-4 4.56436,-0.007 2.12603,-0.008 4.25111,0.004 6.37707,0.0207 1.8151,0.004 1.8151,0.004 3.66687,0.007 2.96008,0.38096 2.96008,0.38096 4.84936,1.78412 1.38465,1.99066 1.51312,3.18564 1.48572,5.59684 0.0116,1.02093 0.0116,1.02093 0.0234,2.0625 -0.53743,2.61336 -1.25275,3.34277 -3.39844,4.9375 -2.96008,0.38768 -2.96008,0.38768 -6.62695,0.40405 -0.66862,0.007 -1.33723,0.0137 -2.02611,0.0208 -2.20961,0.0183 -4.41852,0.0144 -6.62819,0.009 -1.53552,0.005 -3.07105,0.01 -4.60657,0.0159 -3.21798,0.009 -6.43571,0.006 -9.65368,-0.003 -4.12635,-0.0115 -8.25185,0.009 -12.37809,0.0379 -3.17073,0.0183 -6.34126,0.0181 -9.51203,0.0124 -1.52147,-1.6e-4 -3.04295,0.006 -4.56436,0.0183 -2.12624,0.0149 -4.25088,0.004 -6.37707,-0.0129 -1.8151,-2.5e-4 -1.8151,-2.5e-4 -3.66687,-5e-4 -2.96008,-0.5012 -2.96008,-0.5012 -4.85083,-2.30991 -1.62055,-3.20136 -1.49414,-5.66312 -1.10925,-9.19129 2.46807,-3.76153 5.39154,-3.37983 9.62695,-3.38819 z"
     fill="#039faa"
     id="path28" />
  <path
     d="m 572.23494,157.80727 c 1.06468,-0.0159 2.12936,-0.0318 3.2263,-0.0482 1.14486,-2e-4 2.28971,-4e-4 3.46926,-6.1e-4 1.18107,-0.008 2.36214,-0.0152 3.57899,-0.0231 2.49733,-0.0108 4.99471,-0.0137 7.49205,-0.009 3.82149,9.7e-4 7.64097,-0.0406 11.46216,-0.085 2.42643,-0.005 4.85286,-0.008 7.2793,-0.008 1.71424,-0.0246 1.71424,-0.0246 3.46312,-0.0497 7.90718,0.0689 7.90718,0.0689 11.92189,2.98914 2.17641,3.25428 2.51015,4.81591 1.77514,8.65429 -2.06672,2.63043 -3.26204,3.8528 -6.58007,4.51467 -0.97389,0.006 -1.94778,0.0124 -2.95118,0.0188 -1.10794,0.0158 -2.21589,0.0317 -3.35742,0.048 -1.19174,-0.005 -2.38347,-0.01 -3.61133,-0.015 -1.22783,0.006 -2.45566,0.0124 -3.7207,0.0188 -2.59569,0.007 -5.19143,0.004 -7.78711,-0.009 -3.97741,-0.0139 -7.95247,0.0202 -11.92969,0.0583 -2.52083,9.5e-4 -5.04167,-9.1e-4 -7.5625,-0.006 -1.19173,0.0133 -2.38347,0.0265 -3.61132,0.0402 -8.19554,-0.0927 -8.19554,-0.0927 -11.66993,-2.98183 -1.6757,-3.69473 -1.36127,-5.83115 -0.21875,-9.68719 3.00437,-2.92692 5.20437,-3.38277 9.33179,-3.41992 z"
     fill="#0ca2ac"
     id="path29" />
  <path
     d="m 172.90315,159.22719 c 7.31393,-0.10145 14.62767,-0.17149 21.94214,-0.21973 2.48802,-0.0201 4.976,-0.0474 7.46387,-0.082 3.57702,-0.0485 7.15342,-0.0712 10.73071,-0.0889 1.66745,-0.031 1.66745,-0.031 3.36858,-0.0626 7.67637,-0.002 7.67637,-0.002 11.73225,2.25494 1.76245,2.19824 1.76245,2.19824 1.82495,5.76074 -1.17642,3.80608 -1.719,4.50499 -5.0625,6.4375 -2.45514,0.36077 -2.45514,0.36077 -5.22754,0.34058 -1.04077,-2.3e-4 -2.08155,-4.6e-4 -3.15387,-6.9e-4 -1.11679,-0.0155 -2.23358,-0.031 -3.38421,-0.0469 -1.14854,-0.004 -2.29707,-0.008 -3.48041,-0.0129 -3.66823,-0.0168 -7.33591,-0.0545 -11.00397,-0.0926 -2.48697,-0.015 -4.97395,-0.0287 -7.46094,-0.041 -6.09654,-0.0331 -12.19276,-0.0833 -18.28906,-0.14649 0.66,-0.99 1.32,-1.98 2,-3 0.31479,-1.95214 0.31479,-1.95214 0.25,-4 0.008,-1.02094 0.008,-1.02094 0.0156,-2.0625 -0.16645,-2.26166 -0.16645,-2.26166 -2.26563,-4.9375 z"
     fill="#d2e8eb"
     id="path30" />
  <path
     d="m 115.1844,203.66078 c 0.89111,-0.006 1.78221,-0.0124 2.70032,-0.0188 1.87934,-0.007 3.75875,-0.004 5.63806,0.009 2.87146,0.0139 5.73966,-0.0202 8.61084,-0.0583 1.82943,-9.5e-4 3.65886,9.1e-4 5.48828,0.006 0.85534,-0.0133 1.71067,-0.0265 2.59192,-0.0402 4.37396,0.0682 6.16232,0.26271 9.73425,3.01698 1.95508,2.6521 1.95508,2.6521 2.51758,5.7146 -0.72032,3.76167 -1.45094,4.6967 -4.5625,6.9375 -3.21624,0.60157 -6.39196,0.56038 -9.65625,0.53125 -1.40892,0.006 -1.40892,0.006 -2.84631,0.0116 -1.98369,0.003 -3.96742,-0.005 -5.95105,-0.0214 -3.03581,-0.0214 -6.06925,-2e-4 -9.10498,0.0254 -1.92839,-0.003 -3.85678,-0.008 -5.78516,-0.0156 -1.36106,0.0121 -1.36106,0.0121 -2.74963,0.0245 -6.25152,-0.093 -6.25152,-0.093 -9.47497,-2.37024 -2.13003,-3.25171 -2.0412,-5.39276 -1.43165,-9.18555 4.23625,-4.73087 8.33858,-4.60087 14.28125,-4.56641 z"
     fill="#0ca3ae"
     id="path31" />
  <path
     d="m 580.40291,249.82314 c 1.36173,-0.019 1.36173,-0.019 2.75096,-0.0384 1.46725,0.004 1.46725,0.004 2.96413,0.009 1.51093,-0.008 1.51093,-0.008 3.05238,-0.0159 2.13089,-0.006 4.26181,-0.005 6.39269,0.003 3.26179,0.008 6.52183,-0.0202 9.78345,-0.052 2.06966,-0.002 4.13932,-0.001 6.20898,0.002 1.46421,-0.0168 1.46421,-0.0168 2.95799,-0.034 6.73595,0.0694 6.73595,0.0694 10.00514,2.37364 1.90349,2.96482 1.9607,4.69947 1.38453,8.15649 -1.38453,2.1565 -1.38453,2.1565 -4,4 -3.44695,0.5956 -6.85726,0.53627 -10.34766,0.4961 -1.00824,10e-4 -2.01649,0.003 -3.05528,0.004 -2.12915,-0.002 -4.2583,-0.0132 -6.38735,-0.0339 -3.26378,-0.029 -6.52594,-0.0206 -9.78979,-0.008 -2.06837,-0.006 -4.13673,-0.0146 -6.20508,-0.0254 -1.46724,0.004 -1.46724,0.004 -2.96413,0.009 -0.90781,-0.0127 -1.81563,-0.0253 -2.75096,-0.0384 -1.19769,-0.008 -1.19769,-0.008 -2.41957,-0.0164 -2.58863,-0.48244 -3.48008,-1.33447 -5.08018,-3.38768 -0.39844,-1.9375 -0.39844,-1.9375 -0.375,-4 -0.008,-0.68063 -0.0155,-1.36125 -0.0234,-2.0625 0.90438,-4.39777 3.7705,-5.31363 7.89819,-5.34156 z"
     fill="#06a1ac"
     id="path32" />
  <path
     d="m 179.90315,295.22719 c 6.33537,-0.0761 12.67063,-0.1286 19.00635,-0.16479 2.15532,-0.0151 4.3106,-0.0356 6.46582,-0.0615 3.0979,-0.0364 6.19539,-0.0534 9.29346,-0.0667 0.96367,-0.0155 1.92735,-0.031 2.92022,-0.0469 0.90064,-2.2e-4 1.80127,-4.5e-4 2.72919,-6.8e-4 0.79054,-0.007 1.58108,-0.0133 2.39557,-0.0202 2.76645,0.45585 4.146,1.47316 6.18939,3.36076 0.53125,2.15625 0.53125,2.15625 0.5,4.5 0.0103,0.77344 0.0206,1.54688 0.0312,2.34375 -0.72869,2.95763 -1.97507,3.57939 -4.53125,5.15625 -2.15143,0.36077 -2.15143,0.36077 -4.49316,0.34058 -1.32092,-3.4e-4 -1.32092,-3.4e-4 -2.66852,-6.9e-4 -0.9418,-0.0155 -1.8836,-0.031 -2.85394,-0.0469 -0.97097,-0.004 -1.94194,-0.009 -2.94233,-0.0129 -3.09763,-0.0168 -6.19461,-0.0544 -9.29205,-0.0926 -2.10155,-0.015 -4.20311,-0.0287 -6.30469,-0.041 -5.14868,-0.0331 -10.29689,-0.0848 -15.44531,-0.14649 0.66,-0.99 1.32,-1.98 2,-3 0.35294,-2.18028 0.35294,-2.18028 0.3125,-4.5 0.0168,-0.77344 0.0335,-1.54687 0.0508,-2.34375 -0.44644,-2.64983 -1.43354,-3.37289 -3.36328,-5.15625 z"
     fill="#dae3e9"
     id="path33" />
  <path
     d="m 535.37459,249.88661 c 0.90071,2.3e-4 1.80142,4.5e-4 2.72942,6.9e-4 1.45325,0.0232 1.45325,0.0232 2.93587,0.0469 1.49186,0.006 1.49186,0.006 3.01387,0.0129 3.17924,0.0168 6.35785,0.0545 9.53691,0.0926 2.15428,0.015 4.30858,0.0287 6.46289,0.041 5.28342,0.0331 10.56647,0.0833 15.84961,0.14649 -0.66,0.99 -1.32,1.98 -2,3 -0.31479,1.95214 -0.31479,1.95214 -0.25,4 -0.005,0.68062 -0.0103,1.36125 -0.0156,2.0625 0.16644,2.26166 0.16644,2.26166 2.26562,4.9375 -6.35368,0.076 -12.70725,0.12857 -19.06128,0.16479 -2.16215,0.0151 -4.32428,0.0356 -6.48633,0.0615 -3.1053,0.0363 -6.21019,0.0534 -9.31567,0.0666 -0.96884,0.0155 -1.93767,0.031 -2.93587,0.0469 -1.35105,3.5e-4 -1.35105,3.5e-4 -2.72941,6.9e-4 -0.79276,0.007 -1.58551,0.0133 -2.4023,0.0202 -2.59496,-0.45244 -3.47052,-1.30728 -5.06913,-3.36076 -0.39844,-1.9375 -0.39844,-1.9375 -0.375,-4 -0.008,-0.68063 -0.0155,-1.36125 -0.0234,-2.0625 0.90383,-4.39512 3.74118,-5.31277 7.86987,-5.27808 z"
     fill="#d4e9ec"
     id="path34" />
  <path
     d="m 304.90315,244.22719 c 2.6602,1.68462 4.99661,3.56392 7,6 0,0.99 0,1.98 0,3 1.13309,-0.0271 2.26617,-0.0541 3.4336,-0.082 4.63864,0.003 9.06412,0.61631 13.6289,1.39453 0.76377,0.11795 1.52754,0.2359 2.31445,0.35742 4.94337,0.8246 9.09304,2.18239 13.62305,4.33008 -0.33,1.32 -0.66,2.64 -1,4 -7.08884,-0.70223 -14.05145,-1.81068 -21.0625,-3.0625 -1.05639,-0.18627 -2.11277,-0.37254 -3.20117,-0.56445 -2.57923,-0.45516 -5.15798,-0.91289 -7.73633,-1.37305 -0.29648,0.78762 -0.59297,1.57524 -0.89844,2.38672 -1.31323,3.11544 -2.07963,4.10232 -5.10156,5.61328 -4.78782,0.53198 -6.86402,0.72509 -10.9375,-1.875 -3.56149,-3.66942 -3.45047,-6.6934 -3.42187,-11.64062 0.35937,-2.48438 0.35937,-2.48438 2.73437,-5.54688 3.81316,-2.81447 5.85156,-3.56795 10.625,-2.9375 z"
     fill="#0b3977"
     id="path35" />
  <path
     d="m 302.93831,199.735 c 3.32155,0.83204 5.44163,2.21514 7.96485,4.49219 0.66015,2.64453 0.66015,2.64453 1,5 0.76183,0.0606 1.52367,0.12117 2.30859,0.18359 3.23138,0.26222 6.46142,0.53756 9.69141,0.81641 1.33417,0.10828 1.33417,0.10828 2.69531,0.21875 3.81041,0.35212 6.0672,0.62293 9.30469,2.78125 -0.33,1.32 -0.66,2.64 -1,4 -8.16241,0.33853 -15.95072,-0.70098 -24,-2 -0.26813,0.61875 -0.53625,1.2375 -0.8125,1.875 -1.1875,2.125 -1.1875,2.125 -4.1875,4.125 -3.11639,0.67076 -5.8852,0.68865 -9,0 -4.00418,-2.75084 -5.74288,-5.80008 -6.75,-10.5 1.47014,-6.86066 5.38955,-11.70194 12.78515,-10.99219 z"
     fill="#f3731c"
     id="path36" />
  <path
     d="m 538.73127,158.83656 c 1.12351,0.008 1.12351,0.008 2.26972,0.0171 2.38471,0.0223 4.7679,0.0725 7.15216,0.12348 1.61977,0.0201 3.23956,0.0383 4.85937,0.0547 3.96413,0.044 7.92712,0.11303 11.89063,0.19532 -0.33774,0.58652 -0.67547,1.17304 -1.02344,1.77734 -1.42873,3.25179 -0.60025,5.79239 0.0234,9.22266 0,0.99 0,1.98 0,3 -4.6264,0.099 -9.25219,0.17153 -13.8794,0.21972 -1.57335,0.0201 -3.14662,0.0474 -4.71972,0.082 -2.26402,0.0486 -4.52706,0.0712 -6.79151,0.0889 -0.70119,0.0206 -1.40238,0.0413 -2.12481,0.0626 -3.39639,0.002 -5.18028,-0.22451 -7.9289,-2.2901 -1.55566,-2.16308 -1.55566,-2.16308 -2.05566,-5.16308 1.18325,-7.09953 6.03058,-7.57044 12.32812,-7.39063 z"
     fill="#d3e8eb"
     id="path38" />
  <path
     d="m 111.31331,249.7311 c 1.85529,-9.7e-4 1.85529,-9.7e-4 3.74805,-0.002 1.28842,0.02 2.57684,0.04 3.9043,0.0606 1.29228,-0.007 2.58457,-0.0142 3.91601,-0.0215 9.49804,0.0644 9.49804,0.0644 11.88672,1.86499 1.40959,1.98003 1.56769,3.17641 1.57227,5.594 0.0193,0.68062 0.0387,1.36125 0.0586,2.0625 -0.72423,2.82846 -2.01652,3.45634 -4.49609,4.9375 -4.47667,0.63043 -8.98376,0.4634 -13.5,0.4375 -1.85432,0.03 -1.85432,0.03 -3.7461,0.0606 -1.18723,-6.5e-4 -2.37445,-10e-4 -3.59765,-0.002 -1.08475,0.002 -2.1695,0.004 -3.28711,0.006 -3.53755,-0.61859 -4.71321,-1.67796 -6.86914,-4.50171 -0.5,-3 -0.5,-3 0,-6 3.09959,-4.09916 5.38294,-4.50426 10.41015,-4.49604 z"
     fill="#08a0ab"
     id="path39" />
  <path
     d="m 343.90315,258.22719 c 8.0386,1.67436 15.82486,3.96061 23.67774,6.3457 12.95417,3.8603 24.92111,6.12619 38.4104,5.93555 2.23967,-0.0315 4.47863,-0.041 6.7185,-0.0469 7.11999,-0.039 14.13077,-0.24482 21.19336,-1.23438 -0.66,0.33 -1.32,0.66 -2,1 0,0.66 0,1.32 0,2 -0.99,0 -1.98,0 -3,0 0,0.66 0,1.32 0,2 -0.96035,-0.16371 -1.9207,-0.32742 -2.91015,-0.49609 -4.51399,-0.64486 -8.97606,-0.61409 -13.52735,-0.56641 -1.2404,0.007 -1.2404,0.007 -2.50586,0.0137 -2.01891,0.0117 -4.03778,0.0296 -6.05664,0.0488 2.64,0.66 5.28,1.32 8,2 0,0.33 0,0.66 0,1 1.98,0.33 3.96,0.66 6,1 0,0.33 0,0.66 0,1 -8.85631,0.30974 -17.50637,0.1735 -26.28125,-1.15625 -1.28134,-0.19388 -1.28134,-0.19388 -2.58856,-0.39168 -9.99778,-1.61698 -19.65872,-4.34755 -29.38019,-7.13957 -1.83562,-0.51738 -3.67156,-1.03367 -5.50781,-1.54883 -4.41774,-1.24192 -8.83107,-2.49844 -13.24219,-3.76367 0.33,-0.99 0.66,-1.98 1,-3 0.99,0 1.98,0 3,0 -0.33,-0.99 -0.66,-1.98 -1,-3 z"
     fill="#1c4684"
     id="path42" />
  <path
     d="m 268.90315,115.22719 c 3.0747,1.70252 5.40613,3.81227 7,7 0.53,3.78567 0.83021,7.44856 -1.01172,10.89063 -2.14691,2.65624 -3.7295,4.02311 -6.98828,5.10937 -7.06409,0.56969 -7.06409,0.56969 -10.875,-1.75 -3.68188,-3.89846 -4.63271,-6.71023 -4.51953,-12.21484 0.70805,-3.65243 2.76988,-5.473 5.39453,-8.03516 3.48444,-1.74221 7.19887,-1.58675 11,-1 z"
     fill="#093877"
     id="path43" />
  <path
     d="m 610.84065,203.66469 c 1.34095,-0.0358 1.34095,-0.0358 2.70899,-0.0723 4.56662,0.0102 6.71753,0.16552 10.48242,2.94336 1.87109,2.6914 1.87109,2.6914 1.87109,6.3164 -0.98719,3.33176 -1.33457,4.352 -4,6.375 -3.44844,0.63195 -6.93762,0.46339 -10.4375,0.4375 -1.43182,0.03 -1.43182,0.03 -2.89258,0.0606 -6.95305,-0.005 -6.95305,-0.005 -10.29882,-2.30664 -2.02586,-3.23791 -1.90473,-5.45602 -1.3711,-9.19141 3.41818,-5.29297 8.23563,-4.63208 13.9375,-4.5625 z"
     fill="#0ea4ae"
     id="path45" />
  <path
     d="m 335.90315,213.22719 c 2.83525,0.42711 5.66774,0.86635 8.5,1.3125 1.18723,0.17693 1.18723,0.17693 2.39844,0.35742 3.85373,0.61597 7.40315,1.34634 11.03125,2.80274 4.77954,1.90459 9.6344,2.80093 14.69531,3.65234 1.01385,0.17177 2.0277,0.34354 3.07227,0.52051 13.34529,2.06639 26.82342,2.19363 40.30273,2.35449 0,0.33 0,0.66 0,1 -12.375,0.495 -12.375,0.495 -25,1 0.495,1.485 0.495,1.485 1,3 7.92,0.33 15.84,0.66 24,1 0,0.33 0,0.66 0,1 -26.27187,0.87126 -54.40624,-2.03207 -79,-12 -2.66572,-0.49313 -5.29816,-0.72523 -8,-1 0,-0.33 0,-0.66 0,-1 1.98,0 3.96,0 6,0 0.33,-1.32 0.66,-2.64 1,-4 z"
     fill="#f57c27"
     id="path46" />
  <path
     d="m 491.52815,117.78969 c 4.37136,0.0868 6.95404,1.43083 10.07031,4.46094 2.0827,3.15522 2.26343,5.84517 1.98829,9.5625 -1.00878,3.5624 -2.69896,5.29804 -5.6836,7.41016 -3.28984,1.65134 -5.40932,1.72204 -9,1.0039 -2.96079,-1.8164 -5.42044,-3.84088 -7,-7 -0.42069,-3.05901 -0.49028,-5.94758 0,-9 2.4375,-3 2.4375,-3 5,-5 1,-1 1,-1 4.625,-1.4375 z"
     fill="#0c9aa6"
     id="path47" />
  <path
     d="m 496.90315,161.22719 c 3,2.4375 3,2.4375 5,5 0.33,0.33 0.66,0.66 1,1 0.40849,5.20827 -0.13295,8.59703 -3,13 -2.95119,2.40467 -6.29108,2.41186 -10.03125,2.32813 -3.11191,-0.51866 -4.81943,-2.11368 -6.96875,-4.32813 -1.7287,-3.45739 -1.48967,-7.21975 -1,-11 3.83016,-6.12825 8.06944,-7.1132 15,-6 z"
     fill="#0ba1ab"
     id="path49" />
  <path
     d="m 458.90315,113.22719 c 2.81004,1.79364 4.50941,3.01881 6,6 0.55113,4.59877 0.61753,7.97788 -1.8125,12 -3.39058,3.09996 -6.65746,3.39272 -11.18359,3.35938 -3.39521,-0.60889 -4.95068,-2.74618 -7.00391,-5.35938 -1.57456,-3.14911 -1.34799,-5.52009 -1,-9 3.68534,-6.18806 7.92326,-8.01677 15,-7 z"
     fill="#083978"
     id="path50" />
  <path
     d="m 267.90315,247.22719 c 3.02508,1.73602 5.4179,3.8358 7,7 0.44409,3.90797 0.13705,5.74548 -1.75,9.25 -3.1885,3.89705 -4.71231,4.58225 -9.6875,5.125 -4.19001,-0.44105 -5.65639,-1.38586 -8.5625,-4.375 -2.05124,-2.70391 -2.00081,-3.97766 -1.875,-7.4375 0.94855,-3.86193 2.12913,-5.73342 4.875,-8.5625 3.2286,-1.6143 6.50994,-1.59571 10,-1 z"
     fill="#073776"
     id="path51" />
  <path
     d="m 494.52424,203.75844 c 3.31116,0.65245 5.12559,1.99737 7.37891,4.46875 1.6143,3.2286 1.5957,6.50994 1,10 -1.73602,3.02508 -3.8358,5.4179 -7,7 -4.51825,0.62015 -7.30133,0.23789 -10.9375,-2.4375 -2.67283,-2.55215 -3.59365,-4.36707 -3.8125,-8.0625 0.28299,-3.09721 0.9118,-5.45572 2.625,-8.0625 3.82297,-2.98192 6.01066,-3.18854 10.74609,-2.90625 z"
     fill="#f3731d"
     id="path52" />
  <path
     d="m 268.90315,204.22719 c 3.0625,2.4375 3.0625,2.4375 5,5 0.33,0.33 0.66,0.66 1,1 0.58883,7.06599 0.58883,7.06599 -1.8125,10.875 -3.11085,3.02198 -4.68477,4.06824 -9.0625,4.5625 -3.60014,-0.0663 -4.08261,-0.40233 -7.0625,-2.875 -0.68062,-0.84562 -1.36125,-1.69125 -2.0625,-2.5625 -0.33,-0.33 -0.66,-0.66 -1,-1 -0.64126,-4.94688 -0.72463,-8.79228 1.875,-13.125 4.38072,-2.62843 8.13801,-2.93136 13.125,-1.875 z"
     fill="#f3721b"
     id="path53" />
  <path
     d="m 495.90315,290.22719 c 3.58553,1.63687 4.79315,2.68973 7,6 0.7658,6.67338 0.7658,6.67338 -1.05078,9.82031 -1.7767,2.16978 -3.42431,3.91724 -5.94922,5.17969 -5.15434,0.50699 -5.15434,0.50699 -8,0 -2.9375,-2.4375 -2.9375,-2.4375 -5,-5 -0.33,-0.33 -0.66,-0.66 -1,-1 -0.5817,-4.61544 -0.62417,-8.00133 1.875,-12 3.70453,-3.48661 7.20876,-3.53786 12.125,-3 z"
     fill="#0ba1ab"
     id="path54" />
  <path
     d="m 491.52815,246.78969 c 4.42813,0.0719 6.93503,1.54684 10.08594,4.58985 2.38413,3.41724 1.93517,5.77714 1.28906,9.84765 -1.23532,2.84125 -2.25554,4.42098 -4.6875,6.3125 -3.47955,1.03446 -6.76052,1.40635 -10.3125,0.6875 -2.9375,-2.4375 -2.9375,-2.4375 -5,-5 -0.33,-0.33 -0.66,-0.66 -1,-1 -0.44167,-3.05381 -0.48223,-5.95105 0,-9 2.4375,-3 2.4375,-3 5,-5 1,-1 1,-1 4.625,-1.4375 z"
     fill="#0b3877"
     id="path55" />
  <path
     d="m 304.90315,115.22719 c 2.60848,1.49746 4.87029,2.87029 7,5 0.5542,4.90599 0.7412,8.78938 -1.875,13.0625 -3.73157,3.40232 -6.79409,3.35394 -11.70312,3.26172 -2.42188,-0.32422 -2.42188,-0.32422 -5.04688,-2.13672 -2.05342,-4.76019 -2.37501,-9.09585 -1.375,-14.1875 2.98754,-4.92996 7.55445,-5.87517 13,-5 z"
     fill="#063575"
     id="path56" />
  <path
     d="m 268.90315,290.22719 c 3.0625,1.875 3.0625,1.875 5,5 0.90791,4.94484 0.76651,8.70486 -1.8125,13.0625 -2.85711,2.53059 -4.77874,2.89965 -8.5625,3.25 -4.21834,-0.36365 -5.67385,-1.36135 -8.625,-4.3125 -1.7287,-3.45739 -1.48967,-7.21975 -1,-11 3.8744,-6.19903 8.0294,-7.00953 15,-6 z"
     fill="#083779"
     id="path57" />
  <path
     d="m 445.90315,172.22719 c -0.47265,2.38672 -0.47265,2.38672 -2,5 -2.95485,0.93395 -5.39708,1.44321 -8.4375,1.8125 -0.86077,0.11835 -1.72154,0.23671 -2.6084,0.35864 -11.92076,1.44453 -23.97175,1.09282 -35.9541,0.82886 1,-2 1,-2 4.0625,-3.125 1.45406,-0.43312 1.45406,-0.43312 2.9375,-0.875 0,-0.33 0,-0.66 0,-1 0.60771,-0.0501 1.21543,-0.10022 1.84155,-0.15185 2.86558,-0.23806 5.73081,-0.47988 8.59595,-0.72315 1.03794,-0.0881 2.07588,-0.17612 3.14527,-0.26684 7.14315,-0.62122 14.25751,-1.36827 21.3623,-2.33619 4.84428,-0.62729 4.84428,-0.62729 7.05493,0.47803 z"
     fill="#0b9fa9"
     id="path63" />
  <path
     d="m 381.90315,269.22719 c 1.13438,0.16242 2.26875,0.32485 3.4375,0.49219 6.73984,0.74623 13.50203,0.65709 20.27344,0.63818 2.28392,-0.005 4.56765,-3e-5 6.85156,0.006 7.20708,0.003 14.28832,-0.11309 21.4375,-1.13672 -0.66,0.33 -1.32,0.66 -2,1 0,0.66 0,1.32 0,2 -0.99,0 -1.98,0 -3,0 0,0.66 0,1.32 0,2 -0.96035,-0.16371 -1.9207,-0.32742 -2.91015,-0.49609 -4.51399,-0.64486 -8.97606,-0.61409 -13.52735,-0.56641 -1.2404,0.007 -1.2404,0.007 -2.50586,0.0137 -2.01891,0.0117 -4.03778,0.0296 -6.05664,0.0488 2.64,0.66 5.28,1.32 8,2 0,0.33 0,0.66 0,1 1.98,0.33 3.96,0.66 6,1 0,0.33 0,0.66 0,1 -12.64318,0.44219 -24.54611,-0.83634 -37,-3 0,-0.66 0,-1.32 0,-2 0.66,0 1.32,0 2,0 -0.33,-1.32 -0.66,-2.64 -1,-4 z"
     fill="#123e7f"
     id="path68" />
  <path
     d="m 113.30012,112.11366 c 0.86836,-1.4e-4 1.73672,-2.9e-4 2.6314,-4.4e-4 2.87859,7e-4 5.75711,0.008 8.63569,0.0163 1.99255,0.002 3.98509,0.003 5.97763,0.004 5.2509,0.004 10.50177,0.0136 15.75266,0.0247 5.35552,0.0102 10.71105,0.0148 16.06659,0.0198 10.51303,0.0107 21.02604,0.0278 31.53906,0.0488 -0.33,0.99 -0.66,1.98 -1,3 -1.07884,0.0103 -2.15768,0.0206 -3.26921,0.0312 -10.16736,0.0978 -20.33465,0.2005 -30.50191,0.30811 -5.22707,0.0552 -10.45414,0.10857 -15.68127,0.15797 -5.04451,0.0477 -10.08896,0.10009 -15.13339,0.15563 -1.92449,0.0204 -3.849,0.0391 -5.77352,0.0561 -2.69565,0.0241 -5.39117,0.0542 -8.08674,0.0856 -1.19331,0.009 -1.19331,0.009 -2.41072,0.0174 -3.83079,0.0507 -7.41782,0.26444 -11.14324,1.18788 2.71773,-6.01782 6.32656,-5.13998 12.39697,-5.11353 z"
     fill="#17417b"
     id="path69" />
  <path
     d="m 380.90315,173.22719 c 18.81,0.495 18.81,0.495 38,1 0,0.33 0,0.66 0,1 -4.62,0.33 -9.24,0.66 -14,1 0,0.33 0,0.66 0,1 -1.13437,0.30938 -2.26875,0.61875 -3.4375,0.9375 -3.35025,0.69175 -3.35025,0.69175 -4.5625,2.0625 -5.07454,0.36323 -10.01657,0.0222 -15,-1 0,-0.66 0,-1.32 0,-2 -1.32,-0.33 -2.64,-0.66 -4,-1 1.32,0 2.64,0 4,0 -0.33,-0.99 -0.66,-1.98 -1,-3 z"
     fill="#21aeb7"
     id="path85" />
  <path
     d="m 380.90315,173.22719 c 0.33,1.65 0.66,3.3 1,5 -6.82586,0.22221 -12.90194,-0.55354 -19.5625,-2 -1.36995,-0.28617 -1.36995,-0.28617 -2.76758,-0.57812 -2.22512,-0.466 -4.44818,-0.94005 -6.66992,-1.42188 0,-0.33 0,-0.66 0,-1 9.2239,-3.48489 18.63582,-2.53944 28,0 z"
     fill="#0aa2a9"
     id="path88" />
  <path
     d="m 618.90315,124.22719 c 0.99,0.33 1.98,0.66 3,1 -0.33,0.66 -0.66,1.32 -1,2 -26.4,0 -52.8,0 -80,0 0,-0.33 0,-0.66 0,-1 0.96244,-0.0103 1.92488,-0.0206 2.91649,-0.0312 9.05018,-0.0976 18.10029,-0.20029 27.15036,-0.30811 4.65323,-0.0553 9.30647,-0.1087 13.95976,-0.15797 4.48689,-0.0476 8.9737,-0.0999 13.4605,-0.15563 1.71567,-0.0204 3.43137,-0.0392 5.14708,-0.0561 2.39472,-0.024 4.78929,-0.0541 7.18393,-0.0856 0.71641,-0.006 1.43282,-0.0115 2.17094,-0.0174 3.28851,0.22974 3.28851,0.22974 6.01094,-1.18788 z"
     fill="#019ca5"
     id="path106" />
  <path
     d="m 366.90315,266.22719 c 11.48832,0.84768 11.48832,0.84768 15,3 0.8125,2.125 0.8125,2.125 1,4 -5.92289,1.76086 -11.38103,0.17292 -17,-2 -0.33,-0.66 -0.66,-1.32 -1,-2 0.66,-0.99 1.32,-1.98 2,-3 z"
     fill="#124385"
     id="path108" />
  <path
     d="m 105.90315,216.22719 c 13.86,0.33 27.72,0.66 42,1 0,0.66 0,1.32 0,2 -14.19,0 -28.38,0 -43,0 0.33,-0.99 0.66,-1.98 1,-3 z"
     fill="#16a0a9"
     id="path114" />
  <path
     d="m 394.22346,224.12953 c 1.25684,0.003 2.51367,0.006 3.8086,0.01 1.31871,0.008 2.63742,0.0167 3.99609,0.0254 1.33984,0.005 2.67969,0.01 4.01953,0.0137 3.2852,0.0118 6.57031,0.0283 9.85547,0.0488 0,0.33 0,0.66 0,1 -12.375,0.495 -12.375,0.495 -25,1 0.33,0.99 0.66,1.98 1,3 7.92,0.33 15.84,0.66 24,1 0,0.33 0,0.66 0,1 -26.95765,0.41278 -26.95765,0.41278 -39,-2 0,-0.33 0,-0.66 0,-1 2.97,0 5.94,0 9,0 0,-0.99 0,-1.98 0,-3 2.81824,-1.40912 5.17251,-1.11184 8.32031,-1.09766 z"
     fill="#f6a96f"
     id="path115" />
  <path
     d="m 335.90315,213.22719 c 2.96014,0.44851 5.91773,0.9083 8.875,1.375 1.26264,0.18949 1.26264,0.18949 2.55078,0.38281 1.2085,0.19336 1.2085,0.19336 2.44141,0.39063 0.74363,0.11521 1.48725,0.23042 2.25342,0.34912 1.87939,0.50244 1.87939,0.50244 3.87939,2.50244 -0.99,0.33 -1.98,0.66 -3,1 0,-0.66 0,-1.32 0,-2 -1.60875,0.71156 -1.60875,0.71156 -3.25,1.4375 -6.87954,2.90101 -6.87954,2.90101 -10,1.6875 -0.9075,-0.37125 -1.815,-0.7425 -2.75,-1.125 -2.66388,-0.45638 -5.30831,-0.72627 -8,-1 0,-0.33 0,-0.66 0,-1 1.98,0 3.96,0 6,0 0.33,-1.32 0.66,-2.64 1,-4 z"
     fill="#f58133"
     id="path118" />
  <path
     d="m 395.90315,272.22719 c 8.58,0 17.16,0 26,0 0,0.33 0,0.66 0,1 -1.65,0.33 -3.3,0.66 -5,1 2.64,0.33 5.28,0.66 8,1 -2,2 -2,2 -3.87939,2.22705 -0.74363,-0.0105 -1.48726,-0.0209 -2.25342,-0.0317 -0.80567,-0.006 -1.61133,-0.0129 -2.44141,-0.0195 -0.84176,-0.0168 -1.68351,-0.0335 -2.55078,-0.0508 -1.27424,-0.0135 -1.27424,-0.0135 -2.57422,-0.0273 -2.10038,-0.0236 -4.20061,-0.0595 -6.30078,-0.0977 0.99,-0.66 1.98,-1.32 3,-2 -5.94,-0.99 -5.94,-0.99 -12,-2 0,-0.33 0,-0.66 0,-1 z"
     fill="#063377"
     id="path121" />
  <path
     d="m 343.90315,258.22719 c 1.46015,0.28242 2.9181,0.57627 4.375,0.875 0.81211,0.16242 1.62422,0.32485 2.46094,0.49219 2.16406,0.63281 2.16406,0.63281 4.16406,2.63281 0,1.66667 0,3.33333 0,5 -1.58468,-0.28427 -3.1677,-0.57775 -4.75,-0.875 -0.88172,-0.16242 -1.76344,-0.32484 -2.67187,-0.49219 -2.44761,-0.60077 -4.38413,-1.41278 -6.57813,-2.63281 0.33,-0.66 0.66,-1.32 1,-2 0.99,0 1.98,0 3,0 -0.33,-0.99 -0.66,-1.98 -1,-3 z"
     fill="#234d89"
     id="path132" />
  <path
     d="m 442.90315,221.22719 c 0,0.66 0,1.32 0,2 1.32,0.66 2.64,1.32 4,2 -1.5823,0.3382 -3.16589,0.67036 -4.75,1 -1.32258,0.27844 -1.32258,0.27844 -2.67187,0.5625 -2.57813,0.4375 -2.57813,0.4375 -6.57813,0.4375 0,-0.66 0,-1.32 0,-2 -1.65,0 -3.3,0 -5,0 0.33,-0.99 0.66,-1.98 1,-3 5.12009,-1.73562 8.66119,-2.3347 14,-1 z"
     fill="#f67e2a"
     id="path135" />
  <path
     d="m 283.90315,297.22719 c 0.625,1.875 0.625,1.875 1,4 -2,2 -2,2 -4.16406,2.19531 -1.21816,-0.0348 -1.21816,-0.0348 -2.46094,-0.0703 -0.81726,-0.0181 -1.63453,-0.0361 -2.47656,-0.0547 -0.62649,-0.0232 -1.25297,-0.0464 -1.89844,-0.0703 0,-1.98 0,-3.96 0,-6 3.69542,-0.95025 6.30459,-0.95025 10,0 z"
     fill="#8db0c1"
     id="path136" />
  <path
     d="m 418.90315,228.22719 c -2.64106,2.64107 -3.87782,2.25747 -7.55859,2.26563 -1.10795,0.003 -2.2159,0.005 -3.35742,0.008 -1.16209,-0.008 -2.32418,-0.0155 -3.52149,-0.0234 -1.15822,0.008 -2.31644,0.0155 -3.50976,0.0234 -1.10924,-0.003 -2.21848,-0.005 -3.36133,-0.008 -1.52839,-0.003 -1.52839,-0.003 -3.08765,-0.007 -2.60376,-0.25879 -2.60376,-0.25879 -5.60376,-2.25879 10.16729,-1.21142 19.83271,-1.21142 30,0 z"
     fill="#f36e12"
     id="path139" />
  <path
     d="m 463.90315,168.22719 c 4.29,0.33 8.58,0.66 13,1 -0.33,1.65 -0.66,3.3 -1,5 -3.63,0 -7.26,0 -11,0 -0.33,-1.98 -0.66,-3.96 -1,-6 z"
     fill="#4bafb8"
     id="path143" />
  <path
     d="m 290.90315,124.1671 0.63627,0.24248 0.36373,5.81761 -2,-1 c -1.54024,-0.0695 -3.08335,-0.0845 -4.625,-0.0625 l -2.47656,0.0273 -1.89844,0.0352 c -0.5625,-1.9375 -0.5625,-1.9375 -1,-4 1,-1 1,-1 3.28516,-1.09765 l 2.77734,0.0352 2.78516,0.0273 2.15234,0.0352 z"
     fill="#91b1c3"
     id="path146"
     sodipodi:nodetypes="ccccccccccccc" />
  <path
     d="m 321.90315,254.22719 c 1.72946,0.14236 3.45856,0.28905 5.1875,0.4375 1.4444,0.12182 1.4444,0.12182 2.91797,0.2461 2.68103,0.29306 5.26083,0.74344 7.89453,1.3164 0,0.33 0,0.66 0,1 -2.31,0 -4.62,0 -7,0 0,0.66 0,1.32 0,2 -7.625,1.25 -7.625,1.25 -11,-1 0.66,-1.32 1.32,-2.64 2,-4 z"
     fill="#0b3c7e"
     id="path147" />
  <path
     d="m 285.90315,253.22719 c 0.33,1.65 0.66,3.3 1,5 -4.33274,0.92845 -7.66726,0.92845 -12,0 0,-1.32 0,-2.64 0,-4 3.73438,-0.87868 7.16775,-1.08912 11,-1 z"
     fill="#9abcca"
     id="path148" />
  <path
     d="m 372.90315,221.22719 c 0.66,0.66 1.32,1.32 2,2 -0.33,0.99 -0.66,1.98 -1,3 -3.3,0 -6.6,0 -10,0 0,-0.66 0,-1.32 0,-2 -0.99,0 -1.98,0 -3,0 0,-0.66 0,-1.32 0,-2 4.05608,-0.98329 7.83062,-1.236 12,-1 z"
     fill="#f26d13"
     id="path160" />
  <path
     d="m 288.90315,166.22719 c -0.33,1.32 -0.66,2.64 -1,4 -4.455,0.495 -4.455,0.495 -9,1 0,-1.32 0,-2.64 0,-4 -0.99,-0.33 -1.98,-0.66 -3,-1 4.62922,-1.01617 8.34463,-0.83797 13,0 z"
     fill="#18adb5"
     id="path163" />
  <path
     d="m 462.90315,300.22719 c 2.625,0.375 2.625,0.375 5,1 0.6875,1.8125 0.6875,1.8125 1,4 -1.1875,1.8125 -1.1875,1.8125 -3,3 -2.1875,-0.3125 -2.1875,-0.3125 -4,-1 -0.625,-2.375 -0.625,-2.375 -1,-5 0.66,-0.66 1.32,-1.32 2,-2 z"
     fill="#89b8c6"
     id="path164" />
  <path
     d="m 337.46565,109.16469 c 1.20656,0.0309 1.20656,0.0309 2.4375,0.0625 0.33,1.65 0.66,3.3 1,5 -3,2 -3,2 -5.6875,1.625 -0.76312,-0.20625 -1.52625,-0.4125 -2.3125,-0.625 1.07287,-5.97738 1.07287,-5.97738 4.5625,-6.0625 z"
     fill="#a4c1cd"
     id="path172" />
  <path
     d="m 487.90315,328.22719 c 0.66,0 1.32,0 2,0 -0.66,6.6 -1.32,13.2 -2,20 -0.66,0 -1.32,0 -2,0 -0.0538,-2.95857 -0.0936,-5.91618 -0.125,-8.875 -0.0168,-0.84176 -0.0335,-1.68351 -0.0508,-2.55078 -0.006,-0.80566 -0.0129,-1.61133 -0.0195,-2.44141 -0.0157,-1.11544 -0.0157,-1.11544 -0.0317,-2.25341 0.22705,-1.8794 0.22705,-1.8794 2.22705,-3.8794 z"
     fill="#109fa8"
     id="path173" />
  <path
     d="m 367.90315,318.22719 c 2.625,0.375 2.625,0.375 5,1 0.625,1.875 0.625,1.875 1,4 -0.66,0.66 -1.32,1.32 -2,2 -2.625,-0.375 -2.625,-0.375 -5,-1 -0.625,-1.875 -0.625,-1.875 -1,-4 0.66,-0.66 1.32,-1.32 2,-2 z"
     fill="#99b8c7"
     id="path177" />
  <path
     d="m 413.90315,315.22719 c 2.625,0.375 2.625,0.375 5,1 0.625,1.875 0.625,1.875 1,4 -0.66,0.66 -1.32,1.32 -2,2 -2.625,-0.375 -2.625,-0.375 -5,-1 -0.625,-1.875 -0.625,-1.875 -1,-4 0.66,-0.66 1.32,-1.32 2,-2 z"
     fill="#a2bdca"
     id="path178" />
  <path
     d="m 405.90315,103.22719 c 2.125,0.375 2.125,0.375 4,1 0.625,2.375 0.625,2.375 1,5 -0.66,0.66 -1.32,1.32 -2,2 -2.125,-0.375 -2.125,-0.375 -4,-1 -0.625,-2.375 -0.625,-2.375 -1,-5 0.66,-0.66 1.32,-1.32 2,-2 z"
     fill="#9cb8c5"
     id="path179" />
  <path
     d="m 337.90315,312.22719 c 1.66612,-0.0427 3.33383,-0.0406 5,0 1,1 1,1 1.0625,3.5625 -0.0206,0.80438 -0.0412,1.60875 -0.0625,2.4375 -2.375,0.625 -2.375,0.625 -5,1 -0.66,-0.66 -1.32,-1.32 -2,-2 0.375,-2.625 0.375,-2.625 1,-5 z"
     fill="#94b6c5"
     id="path180" />
  <path
     d="m 294.90315,297.22719 c 2.625,0.375 2.625,0.375 5,1 0.0427,1.66612 0.0406,3.33383 0,5 -1,1 -1,1 -3.5625,1.0625 -1.20656,-0.0309 -1.20656,-0.0309 -2.4375,-0.0625 -0.625,-2.375 -0.625,-2.375 -1,-5 0.66,-0.66 1.32,-1.32 2,-2 z"
     fill="#93b6c4"
     id="path181" />
  <path
     d="m 397.90315,318.22719 c 2.00721,0.28675 4.0086,0.61867 6,1 -0.33,1.65 -0.66,3.3 -1,5 -1.65614,0.38219 -3.32457,0.71395 -5,1 -1,-1 -1,-1 -1.125,-3.5 0.125,-2.5 0.125,-2.5 1.125,-3.5 z"
     fill="#95b6c6"
     id="path184" />
  <path
     d="m 314.90315,302.22719 c 0.38219,1.65615 0.71395,3.32457 1,5 -1,1 -1,1 -3.5,1.125 -2.5,-0.125 -2.5,-0.125 -3.5,-1.125 -0.0406,-1.66617 -0.0427,-3.33388 0,-5 2.49093,-1.24546 3.41081,-0.77676 6,0 z"
     fill="#a0becb"
     id="path185" />
  <path
     d="m 382.90315,319.22719 c 1.67543,0.28605 3.34386,0.61781 5,1 0,1.65 0,3.3 0,5 -2.375,0.625 -2.375,0.625 -5,1 -0.66,-0.66 -1.32,-1.32 -2,-2 0.53572,-3.53571 0.53572,-3.53571 2,-5 z"
     fill="#9fbdca"
     id="path189" />
  <path
     d="m 448.46565,305.16469 c 1.20656,0.0309 1.20656,0.0309 2.4375,0.0625 0.625,2.375 0.625,2.375 1,5 -0.66,0.66 -1.32,1.32 -2,2 -2.125,-0.375 -2.125,-0.375 -4,-1 -0.38219,-1.65615 -0.71395,-3.32457 -1,-5 1,-1 1,-1 3.5625,-1.0625 z"
     fill="#9abcc9"
     id="path190" />
  <path
     d="m 373.90315,268.22719 c 2.31,0 4.62,0 7,0 0.66,1.65 1.32,3.3 2,5 -3.66305,0.74926 -6.42355,1.238 -10,0 0,-0.66 0,-1.32 0,-2 1.32,0 2.64,0 4,0 0,-0.66 0,-1.32 0,-2 -0.99,-0.33 -1.98,-0.66 -3,-1 z"
     fill="#123c77"
     id="path193" />
  <path
     d="m 267.90315,247.22719 c 0,0.33 0,0.66 0,1 -2.31,0.66 -4.62,1.32 -7,2 0,0.66 0,1.32 0,2 -1.98,0.66 -3.96,1.32 -6,2 -0.33,1.98 -0.66,3.96 -1,6 -0.33,0 -0.66,0 -1,0 0.41365,-5.27405 1.28973,-8.1773 5,-12 3.21451,-1.60725 6.43613,-1.05748 10,-1 z"
     fill="#214b84"
     id="path194" />
  <path
     d="m 319.90315,115.22719 c 2.625,0.375 2.625,0.375 5,1 -0.33,1.65 -0.66,3.3 -1,5 -1.65,0.33 -3.3,0.66 -5,1 -0.625,-2.375 -0.625,-2.375 -1,-5 0.66,-0.66 1.32,-1.32 2,-2 z"
     fill="#92b7c4"
     id="path195" />
  <path
     d="m 435.46565,113.16469 c 1.20656,0.0309 1.20656,0.0309 2.4375,0.0625 0.625,2.375 0.625,2.375 1,5 -0.66,0.66 -1.32,1.32 -2,2 -2.125,-0.375 -2.125,-0.375 -4,-1 -0.38219,-1.65614 -0.71395,-3.32457 -1,-5 1,-1 1,-1 3.5625,-1.0625 z"
     fill="#99b8c7"
     id="path196" />
  <path
     d="m 351.46565,105.16469 c 1.20656,0.0309 1.20656,0.0309 2.4375,0.0625 0.625,2.375 0.625,2.375 1,5 -0.66,0.66 -1.32,1.32 -2,2 -2.125,-0.375 -2.125,-0.375 -4,-1 -0.38219,-1.65614 -0.71395,-3.32457 -1,-5 1,-1 1,-1 3.5625,-1.0625 z"
     fill="#a6c0cd"
     id="path197" />
  <path
     d="m 362.90315,102.22719 c 1.67543,0.28605 3.34386,0.61782 5,1 0.625,1.875 0.625,1.875 1,4 -0.66,0.66 -1.32,1.32 -2,2 -2.625,-0.375 -2.625,-0.375 -5,-1 -0.0427,-1.66612 -0.0406,-3.33383 0,-5 0.33,-0.33 0.66,-0.66 1,-1 z"
     fill="#9abac8"
     id="path198" />
  <path
     d="m 391.90315,101.22719 c 2.125,0.375 2.125,0.375 4,1 0.38219,1.65615 0.71395,3.32457 1,5 -1,1 -1,1 -3.5625,1.0625 -1.20656,-0.0309 -1.20656,-0.0309 -2.4375,-0.0625 -0.625,-2.375 -0.625,-2.375 -1,-5 0.66,-0.66 1.32,-1.32 2,-2 z"
     fill="#90b3c2"
     id="path199" />
  <path
     d="m 379.46565,101.16469 c 1.20656,0.0309 1.20656,0.0309 2.4375,0.0625 0.625,2.375 0.625,2.375 1,5 -0.66,0.66 -1.32,1.32 -2,2 -2.125,-0.375 -2.125,-0.375 -4,-1 -0.38219,-1.65614 -0.71395,-3.32457 -1,-5 1,-1 1,-1 3.5625,-1.0625 z"
     fill="#9dbcc9"
     id="path200" />
  <path
     d="m 432.52815,311.10219 c 0.78375,0.0412 1.5675,0.0825 2.375,0.125 0.38219,1.65615 0.71395,3.32457 1,5 -1,1 -1,1 -3.5625,1.0625 -1.20656,-0.0309 -1.20656,-0.0309 -2.4375,-0.0625 -0.66,-1.32 -1.32,-2.64 -2,-4 2,-2 2,-2 4.625,-2.125 z"
     fill="#95b6c6"
     id="path201" />
  <path
     d="m 352.90315,316.22719 c 1.67543,0.28605 3.34386,0.61781 5,1 0.625,1.875 0.625,1.875 1,4 -0.66,0.66 -1.32,1.32 -2,2 -2.125,-0.375 -2.125,-0.375 -4,-1 -0.38219,-1.65615 -0.71395,-3.32457 -1,-5 0.33,-0.33 0.66,-0.66 1,-1 z"
     fill="#a2becb"
     id="path205" />
  <path
     d="m 471.90315,212.22719 c 2.0625,0.4375 2.0625,0.4375 4,1 0.625,1.875 0.625,1.875 1,4 -0.66,0.66 -1.32,1.32 -2,2 -2.625,-0.375 -2.625,-0.375 -5,-1 0.875,-4.875 0.875,-4.875 2,-6 z"
     fill="#aec9d6"
     id="path209" />
  <path
     d="m 327.90315,212.22719 c 5.75,-0.125 5.75,-0.125 8,1 -0.33,1.32 -0.66,2.64 -1,4 -2.97,-0.33 -5.94,-0.66 -9,-1 0.66,-1.32 1.32,-2.64 2,-4 z"
     fill="#f3680d"
     id="path210" />
  <path
     d="m 326.46565,307.16469 c 1.20656,0.0309 1.20656,0.0309 2.4375,0.0625 0.38219,1.65615 0.71395,3.32457 1,5 -1,1 -1,1 -3.5625,1.0625 -1.20656,-0.0309 -1.20656,-0.0309 -2.4375,-0.0625 -0.38219,-1.65615 -0.71395,-3.32457 -1,-5 1,-1 1,-1 3.5625,-1.0625 z"
     fill="#9ebcc8"
     id="path211" />
  <path
     d="m 473.46565,124.16469 c 1.20656,0.0309 1.20656,0.0309 2.4375,0.0625 0.38219,1.65615 0.71395,3.32457 1,5 -1,1 -1,1 -3.5625,1.0625 -1.20656,-0.0309 -1.20656,-0.0309 -2.4375,-0.0625 -0.38219,-1.65615 -0.71395,-3.32457 -1,-5 1,-1 1,-1 3.5625,-1.0625 z"
     fill="#9ec1cd"
     id="path214" />
  <path
     d="m 470.90315,258.22719 c 1.65,0 3.3,0 5,0 0.625,1.875 0.625,1.875 1,4 -0.66,0.66 -1.32,1.32 -2,2 -2.625,-0.375 -2.625,-0.375 -5,-1 0.33,-1.65 0.66,-3.3 1,-5 z"
     fill="#9fc0cc"
     id="path219" />
  <path
     d="m 280.90315,209.22719 c 1.65,0 3.3,0 5,0 0.625,1.875 0.625,1.875 1,4 -0.66,0.66 -1.32,1.32 -2,2 -2.625,-0.375 -2.625,-0.375 -5,-1 0.33,-1.65 0.66,-3.3 1,-5 z"
     fill="#a7c5d0"
     id="path220" />
  <path
     d="m 419.90315,108.22719 c 1.65,0.33 3.3,0.66 5,1 0,1.65 0,3.3 0,5 -1.875,0.625 -1.875,0.625 -4,1 -0.66,-0.66 -1.32,-1.32 -2,-2 0.375,-2.625 0.375,-2.625 1,-5 z"
     fill="#9ab9c6"
     id="path221" />
  <path
     d="m 335.90315,213.22719 c 2.97,0.495 2.97,0.495 6,1 -0.66,1.65 -1.32,3.3 -2,5 -3.63,-0.33 -7.26,-0.66 -11,-1 0,-0.33 0,-0.66 0,-1 1.98,0 3.96,0 6,0 0.33,-1.32 0.66,-2.64 1,-4 z"
     fill="#f57823"
     id="path227" />
  <path
     d="m 253.90315,332.22719 c 2.60705,2.60705 2.23906,4.47338 2.26563,8.02735 -0.26563,1.97265 -0.26563,1.97265 -2.26563,4.97265 -0.66,0 -1.32,0 -2,0 0.14033,-1.97956 0.28741,-3.95865 0.4375,-5.9375 0.0812,-1.10215 0.16242,-2.2043 0.2461,-3.33984 0.3164,-2.72266 0.3164,-2.72266 1.3164,-3.72266 z"
     fill="#1d4989"
     id="path229" />
  <path
     d="m 356.90315,218.22719 c -0.33,0.99 -0.66,1.98 -1,3 -1.62464,0.054 -3.24978,0.0928 -4.875,0.125 -0.90492,0.0232 -1.80984,0.0464 -2.74219,0.0703 -2.38281,-0.19531 -2.38281,-0.19531 -4.38281,-2.19531 4.68494,-2.48887 7.94442,-1.85688 13,-1 z"
     fill="#f46d10"
     id="path233" />
  <path
     d="m 258.90315,204.22719 c 3.3,0 6.6,0 10,0 -0.33,0.99 -0.66,1.98 -1,3 -2.97,0 -5.94,0 -9,0 0,-0.99 0,-1.98 0,-3 z"
     fill="#f37b27"
     id="path254" />
  <path
     d="m 304.90315,115.22719 c 0,0.33 0,0.66 0,1 -0.92812,0.26813 -1.85625,0.53625 -2.8125,0.8125 -3.07631,1.14608 -4.02081,1.92232 -6.1875,4.1875 -2.1875,0.6875 -2.1875,0.6875 -4,1 2.69667,-6.51696 6.18178,-7.39336 13,-7 z"
     fill="#2b508a"
     id="path262" />
  <path
     d="m 101.90315,114.22719 c 6.6,0 13.2,0 20,0 0,0.33 0,0.66 0,1 -1.64548,0.0909 -1.64548,0.0909 -3.32421,0.1836 -1.45444,0.0844 -2.90887,0.16909 -4.36329,0.2539 -0.72123,0.0393 -1.44246,0.0786 -2.18554,0.11914 -3.79403,0.22522 -7.41347,0.57176 -11.12696,1.44336 0.33,-0.99 0.66,-1.98 1,-3 z"
     fill="#103f7c"
     id="path263" />
  <path
     d="m 440.09065,220.60219 c 0.92813,0.20625 1.85625,0.4125 2.8125,0.625 0,0.66 0,1.32 0,2 1.32,0.66 2.64,1.32 4,2 -2.64,0.33 -5.28,0.66 -8,1 0,-0.99 0,-1.98 0,-3 -1.65,-0.33 -3.3,-0.66 -5,-1 3,-2 3,-2 6.1875,-1.625 z"
     fill="#f4893e"
     id="path272" />
  <path
     d="m 99.903155,117.22719 c 0.329995,0 0.659995,0 0.999995,0 0,1.65 0,3.3 0,5 2.97,0.99 5.94,1.98 9,3 -3,2 -3,2 -5,1.8125 -2.40619,-0.97751 -3.51717,-1.66241 -4.999995,-3.8125 -0.1875,-3.1875 -0.1875,-3.1875 0,-6 z"
     fill="#2d5287"
     id="path273" />
  <path
     d="m 492.59065,161.10219 c 1.21237,0.0271 1.21237,0.0271 2.44922,0.0547 0.92232,0.0348 0.92232,0.0348 1.86328,0.0703 -2.66473,1.77649 -4.56541,2.61943 -7.5625,3.5625 -2.25199,0.71369 -4.32395,1.38073 -6.4375,2.4375 2.10253,-4.85199 4.44528,-6.27695 9.6875,-6.125 z"
     fill="#1fafb7"
     id="path281" />
  <path
     d="m 259.90315,115.22719 c 8.19256,-0.63019 8.19256,-0.63019 11.5625,2 0.47438,0.66 0.94875,1.32 1.4375,2 -0.99,0 -1.98,0 -3,0 -0.33,-0.33 -0.66,-0.66 -1,-1 -1.51469,-0.23193 -3.03754,-0.41215 -4.5625,-0.5625 -0.82629,-0.0838 -1.65258,-0.16758 -2.5039,-0.2539 -0.63809,-0.0606 -1.27618,-0.12118 -1.9336,-0.1836 0,-0.66 0,-1.32 0,-2 z"
     fill="#123d80"
     id="path282" />
  <path
     d="m 352.90315,262.22719 c 0.66,0 1.32,0 2,0 0,0.66 0,1.32 0,2 1.32,-0.33 2.64,-0.66 4,-1 0.66,1.65 1.32,3.3 2,5 -1.98,0 -3.96,0 -6,0 -0.66,-1.98 -1.32,-3.96 -2,-6 z"
     fill="#0c3671"
     id="path286" />
  <path
     d="m 343.90315,258.22719 c 4.455,0.99 4.455,0.99 9,2 -0.99,0.66 -1.98,1.32 -3,2 -0.66,-0.33 -1.32,-0.66 -2,-1 -0.33,0.33 -0.66,0.66 -1,1 -0.66,0.66 -1.32,1.32 -2,2 -2.125,-0.375 -2.125,-0.375 -4,-1 0.33,-0.66 0.66,-1.32 1,-2 0.99,0 1.98,0 3,0 -0.33,-0.99 -0.66,-1.98 -1,-3 z"
     fill="#2a5995"
     id="path287" />
  <path
     d="m 426.90315,173.22719 c 4.92127,-0.16682 8.50344,-0.24828 13,2 -0.99,1.485 -0.99,1.485 -2,3 -1.9375,-0.375 -1.9375,-0.375 -4,-1 -0.33,-0.66 -0.66,-1.32 -1,-2 -3.02934,-0.65772 -3.02934,-0.65772 -6,-1 0,-0.33 0,-0.66 0,-1 z"
     fill="#1eabb4"
     id="path288" />
  <path
     d="m 270.90315,135.22719 c 0,0.66 0,1.32 0,2 -2.75079,0.91693 -4.35949,1.10886 -7.1875,1.0625 -1.88719,-0.0309 -1.88719,-0.0309 -3.8125,-0.0625 0,-0.66 0,-1.32 0,-2 3.67411,-1.17571 7.16929,-1.07367 11,-1 z"
     fill="#173f7a"
     id="path289" />
  <path
     d="m 266.90315,290.22719 c 2.85092,1.278 5.22144,2.37897 7,5 -0.3125,3.1875 -0.3125,3.1875 -1,6 -0.2475,-0.5775 -0.495,-1.155 -0.75,-1.75 -1.18186,-2.38267 -1.18186,-2.38267 -3.375,-4.3125 -1.875,-1.9375 -1.875,-1.9375 -1.875,-4.9375 z"
     fill="#1d4682"
     id="path290" />
  <path
     d="m 490.90315,135.22719 c 0.33,0.99 0.66,1.98 1,3 2.00017,1.20882 2.00017,1.20882 4,2 -6.625,0.25 -6.625,0.25 -10,-2 0,-0.66 0,-1.32 0,-2 2,-1 2,-1 5,-1 z"
     fill="#2ea6ae"
     id="path297" />
  <path
     d="m 103.90315,159.22719 c 2.35695,0.0903 4.71154,0.24688 7.0625,0.4375 1.29036,0.10184 2.58071,0.20367 3.91016,0.3086 1.49854,0.12568 1.49854,0.12568 3.02734,0.2539 0,0.33 0,0.66 0,1 -0.89203,0.049 -1.78406,0.098 -2.70312,0.14844 -1.17047,0.0748 -2.34094,0.14953 -3.54688,0.22656 -1.74023,0.10442 -1.74023,0.10442 -3.51562,0.21094 -2.94132,0.37654 -4.73387,0.89147 -7.23438,2.41406 1.875,-3.875 1.875,-3.875 3,-5 z"
     fill="#11a8b4"
     id="path303" />
  <path
     d="m 80.903155,20.227193 c 0,0.66 0,1.32 0,2 -2.84778,2.610465 -5.130669,4.426766 -9,5 -0.33,-0.66 -0.66,-1.32 -1,-2 1.288134,-0.838784 2.580632,-1.670867 3.875,-2.5 0.719297,-0.464062 1.438594,-0.928125 2.179687,-1.40625 1.945313,-1.09375 1.945313,-1.09375 3.945313,-1.09375 z"
     fill="#154484"
     id="path304" />
  <path
     d="m 328.90315,255.22719 c 2.97,0.33 5.94,0.66 9,1 0,0.33 0,0.66 0,1 -2.31,0 -4.62,0 -7,0 0,0.66 0,1.32 0,2 -2.64,0.33 -5.28,0.66 -8,1 0.61875,-0.26812 1.2375,-0.53625 1.875,-0.8125 2.42453,-1.14307 2.42453,-1.14307 4.125,-4.1875 z"
     fill="#25508c"
     id="path309" />
  <path
     d="m 498.90315,266.22719 c -3.85031,2.56688 -5.5857,1.83289 -10,1 3.45634,-3.45634 5.88438,-3.49877 10,-1 z"
     fill="#09316d"
     id="path314" />
  <path
     d="m 298.84846,200.03188 c 2.01823,0.0651 4.03646,0.13021 6.05469,0.19531 -3.1255,2.64465 -6.08788,3.84415 -10,5 0,-3.37566 0.3675,-4.83609 3.94531,-5.19531 z"
     fill="#f2843d"
     id="path320" />
  <path
     d="m 255.90315,250.22719 c 0.66,0.99 1.32,1.98 2,3 -0.99,0.33 -1.98,0.66 -3,1 -0.33,1.98 -0.66,3.96 -1,6 -0.33,0 -0.66,0 -1,0 0.75,-6.625 0.75,-6.625 3,-10 z m 2,1 c 3,1 3,1 3,1 z"
     fill="#365e94"
     id="path325" />
  <path
     d="m 445.90315,128.22719 c 0.33,0.66 0.66,1.32 1,2 0.99,-0.33 1.98,-0.66 3,-1 0.33,0.66 0.66,1.32 1,2 0.99,0.66 1.98,1.32 3,2 -1.75,0.6875 -1.75,0.6875 -4,1 -2.25,-1.25 -2.25,-1.25 -4,-3 0,-0.99 0,-1.98 0,-3 z"
     fill="#174079"
     id="path328" />
  <path
     d="m 346.90315,260.22719 c 1.65,0.33 3.3,0.66 5,1 -0.33,1.32 -0.66,2.64 -1,4 -2.97,-0.495 -2.97,-0.495 -6,-1 0.66,-1.32 1.32,-2.64 2,-4 z"
     fill="#04367c"
     id="path339" />
  <path
     d="m 75.903155,360.22719 c 2.97,0.495 2.97,0.495 6,1 0,0.66 0,1.32 0,2 0.66,0.33 1.32,0.66 2,1 -1.65,0 -3.3,0 -5,0 -0.33,-0.99 -0.66,-1.98 -1,-3 -0.66,-0.33 -1.32,-0.66 -2,-1 z"
     fill="#052f66"
     id="path341" />
  <path
     d="m 492.09065,290.10219 c 1.88719,0.0619 1.88719,0.0619 3.8125,0.125 0,0.33 0,0.66 0,1 -1.45627,0.36257 -2.91511,0.7148 -4.375,1.0625 -1.21816,0.29584 -1.21816,0.29584 -2.46094,0.59766 -2.16406,0.33984 -2.16406,0.33984 -4.16406,-0.66016 3.08889,-2.05926 3.70936,-2.23904 7.1875,-2.125 z"
     fill="#22afb8"
     id="path342" />
  <path
     d="m 441.90315,269.22719 c 1.9375,0.375 1.9375,0.375 4,1 0.33,0.66 0.66,1.32 1,2 -2.31,0.33 -4.62,0.66 -7,1 0.66,-1.32 1.32,-2.64 2,-4 z"
     fill="#194989"
     id="path348" />
  <path
     d="m 486.90315,204.22719 c 2.625,0.375 2.625,0.375 5,1 -0.33,0.66 -0.66,1.32 -1,2 -0.99,0 -1.98,0 -3,0 -0.66,0.66 -1.32,1.32 -2,2 -0.33,-0.99 -0.66,-1.98 -1,-3 0.66,-0.66 1.32,-1.32 2,-2 z"
     fill="#f37e32"
     id="path351" />
  <path
     d="m 279.90315,125.22719 c 0.99,0.33 1.98,0.66 3,1 0,0.33 0,0.66 0,1 2.31,0.33 4.62,0.66 7,1 0,0.33 0,0.66 0,1 -2.97,0 -5.94,0 -9,0 -0.33,-1.32 -0.66,-2.64 -1,-4 z"
     fill="#adc8d4"
     id="path354" />
  <path
     d="m 317.90315,117.22719 c 0.66,0 1.32,0 2,0 0,0.99 0,1.98 0,3 1.32,-0.33 2.64,-0.66 4,-1 -0.33,0.99 -0.66,1.98 -1,3 -1.65,-0.33 -3.3,-0.66 -5,-1 0,-1.32 0,-2.64 0,-4 z"
     fill="#9cbcc9"
     id="path355" />
  <path
     d="m 528.90315,113.22719 c 0.66,0.33 1.32,0.66 2,1 -1.18582,3.37504 -2.27574,5.64723 -5,8 -0.36923,-5.53846 -0.36923,-5.53846 1.5,-7.875 0.495,-0.37125 0.99,-0.7425 1.5,-1.125 z"
     fill="#2eafb9"
     id="path356" />
  <text
     xml:space="preserve"
     style="font-style:normal;font-variant:normal;font-weight:normal;font-stretch:normal;font-size:27.4701px;font-family:Orbitron;-inkscape-font-specification:'Orbitron, @wght=700';font-variant-ligatures:normal;font-variant-caps:normal;font-variant-numeric:normal;font-variant-east-asian:normal;font-variation-settings:'wght' 700;writing-mode:lr-tb;direction:ltr;fill:#073979;fill-opacity:1;stroke:#1278d1;stroke-width:0.294102;stroke-opacity:0;paint-order:fill markers stroke"
     x="750.08093"
     y="267.10721"
     id="text356"><tspan
       sodipodi:role="line"
       id="tspan356"
       x="750.08093"
       y="267.10721"
       style="font-style:normal;font-variant:normal;font-weight:normal;font-stretch:normal;font-size:27.4701px;font-family:Orbitron;-inkscape-font-specification:'Orbitron, @wght=700';font-variant-ligatures:normal;font-variant-caps:normal;font-variant-numeric:normal;font-variant-east-asian:normal;font-variation-settings:'wght' 700;stroke-width:0.294102">Statement level semantic distance via optimal transport</tspan></text>
</svg>
